<?xml version="1.0" encoding="UTF-8" standalone="no"?>
<svg
   width="107"
   height="141"
   viewBox="0 0 107 141"
   version="1.1"
   id="svg14"
   sodipodi:docname="code.svg"
   inkscape:version="1.4.4 (dcaf3e7d9e, 2026-05-05)"
   xmlns:inkscape="http://www.inkscape.org/namespaces/inkscape"
   xmlns:sodipodi="http://sodipodi.sourceforge.net/DTD/sodipodi-0.dtd"
   xmlns="http://www.w3.org/2000/svg"
   xmlns:svg="http://www.w3.org/2000/svg">
  <defs
     id="defs14" />
  <sodipodi:namedview
     id="namedview14"
     pagecolor="#ffffff"
     bordercolor="#000000"
     borderopacity="0.25"
     inkscape:showpageshadow="2"
     inkscape:pageopacity="0.0"
     inkscape:pagecheckerboard="0"
     inkscape:deskcolor="#d1d1d1"
     inkscape:zoom="7.24375"
     inkscape:cx="60.051769"
     inkscape:cy="71.164797"
     inkscape:window-width="3440"
     inkscape:window-height="1368"
     inkscape:window-x="0"
     inkscape:window-y="0"
     inkscape:window-maximized="1"
     inkscape:current-layer="svg14" />
  <rect
     x="7.7988534"
     y="7.7988534"
     width="91.011444"
     height="124.66114"
     rx="5.2506599"
     fill="#555555"
     stroke="#888888"
     stroke-width="2.79259"
     id="rect1" />
  <rect
     x="24"
     y="20"
     width="57.366695"
     height="18"
     rx="2.3902791"
     fill="#7cff7c"
     opacity="0.8"
     id="rect2"
     style="stroke-width:0.892614" />
  <g
     fill="#d0d0d0"
     stroke="#444444"
     stroke-width="1"
     id="g14">
    <rect
       x="26"
       y="48"
       width="14"
       height="14"
       rx="2"
       id="rect3" />
    <rect
       x="46"
       y="48"
       width="14"
       height="14"
       rx="2"
       id="rect4" />
    <rect
       x="66"
       y="48"
       width="14"
       height="14"
       rx="2"
       id="rect5" />
    <rect
       x="26"
       y="68"
       width="14"
       height="14"
       rx="2"
       id="rect6" />
    <rect
       x="46"
       y="68"
       width="14"
       height="14"
       rx="2"
       id="rect7" />
    <rect
       x="66"
       y="68"
       width="14"
       height="14"
       rx="2"
       id="rect8" />
    <rect
       x="26"
       y="88"
       width="14"
       height="14"
       rx="2"
       id="rect9" />
    <rect
       x="46"
       y="88"
       width="14"
       height="14"
       rx="2"
       id="rect10" />
    <rect
       x="66"
       y="88"
       width="14"
       height="14"
       rx="2"
       id="rect11" />
    <rect
       x="26"
       y="108"
       width="14"
       height="14"
       rx="2"
       id="rect12" />
    <rect
       x="46"
       y="108"
       width="14"
       height="14"
       rx="2"
       id="rect13" />
    <rect
       x="66"
       y="108"
       width="14"
       height="14"
       rx="2"
       id="rect14" />
  </g>
</svg>
