<?xml version="1.0" encoding="UTF-8" standalone="no"?>
<svg
   width="320"
   height="520"
   viewBox="40 40 320 520"
   version="1.1"
   id="svg22"
   sodipodi:docname="door.svg"
   inkscape:version="1.4.4 (dcaf3e7d9e, 2026-05-05)"
   xmlns:inkscape="http://www.inkscape.org/namespaces/inkscape"
   xmlns:sodipodi="http://sodipodi.sourceforge.net/DTD/sodipodi-0.dtd"
   xmlns="http://www.w3.org/2000/svg"
   xmlns:svg="http://www.w3.org/2000/svg">
  <defs
     id="defs22" />
  <sodipodi:namedview
     id="namedview22"
     pagecolor="#ffffff"
     bordercolor="#000000"
     borderopacity="0.25"
     inkscape:showpageshadow="2"
     inkscape:pageopacity="0.0"
     inkscape:pagecheckerboard="0"
     inkscape:deskcolor="#d1d1d1"
     inkscape:zoom="2.2288462"
     inkscape:cx="160.17256"
     inkscape:cy="260"
     inkscape:window-width="3440"
     inkscape:window-height="1368"
     inkscape:window-x="0"
     inkscape:window-y="0"
     inkscape:window-maximized="1"
     inkscape:current-layer="svg22" />
  <!-- Door frame -->
  <rect
     x="40"
     y="40"
     width="320"
     height="520"
     fill="#ffffee"
     stroke="#555"
     stroke-width="20"
     id="rect1" />
  <!-- Vertical bars -->
  <g
     stroke="#b0b0b0"
     stroke-width="12"
     stroke-linecap="round"
     id="g7">
    <line
       x1="80"
       y1="47"
       x2="80"
       y2="553"
       id="line1" />
    <line
       x1="120"
       y1="47"
       x2="120"
       y2="553"
       id="line2" />
    <line
       x1="160"
       y1="47"
       x2="160"
       y2="553"
       id="line3" />
    <line
       x1="200"
       y1="47"
       x2="200"
       y2="553"
       id="line4" />
    <line
       x1="240"
       y1="47"
       x2="240"
       y2="553"
       id="line5" />
    <line
       x1="280"
       y1="47"
       x2="280"
       y2="553"
       id="line6" />
    <line
       x1="320"
       y1="47"
       x2="320"
       y2="553"
       id="line7" />
  </g>
  <!-- Horizontal supports -->
  <g
     stroke="#909090"
     stroke-width="10"
     id="g9"
     transform="matrix(0.95645333,0,0,1,1.3064,0)">
    <line
       x1="30"
       y1="180"
       x2="370"
       y2="180"
       id="line8"
       style="stroke-linecap:round" />
    <line
       x1="30"
       y1="420"
       x2="370"
       y2="420"
       id="line9"
       style="stroke-linecap:round" />
  </g>
  <!-- Electronic lock housing -->
  <rect
     x="285"
     y="240"
     width="60"
     height="110"
     rx="4"
     fill="#555"
     stroke="#888"
     stroke-width="2"
     id="rect9" />
  <!-- Display -->
  <rect
     x="295"
     y="250"
     width="40"
     height="18"
     rx="2"
     fill="#7cff7c"
     opacity="0.8"
     id="rect10" />
  <!-- Keypad buttons -->
  <g
     fill="#d0d0d0"
     stroke="#444"
     stroke-width="1"
     id="g22">
    <rect
       x="295"
       y="278"
       width="10"
       height="10"
       rx="1"
       id="rect11" />
    <rect
       x="310"
       y="278"
       width="10"
       height="10"
       rx="1"
       id="rect12" />
    <rect
       x="325"
       y="278"
       width="10"
       height="10"
       rx="1"
       id="rect13" />
    <rect
       x="295"
       y="293"
       width="10"
       height="10"
       rx="1"
       id="rect14" />
    <rect
       x="310"
       y="293"
       width="10"
       height="10"
       rx="1"
       id="rect15" />
    <rect
       x="325"
       y="293"
       width="10"
       height="10"
       rx="1"
       id="rect16" />
    <rect
       x="295"
       y="308"
       width="10"
       height="10"
       rx="1"
       id="rect17" />
    <rect
       x="310"
       y="308"
       width="10"
       height="10"
       rx="1"
       id="rect18" />
    <rect
       x="325"
       y="308"
       width="10"
       height="10"
       rx="1"
       id="rect19" />
    <rect
       x="295"
       y="323"
       width="10"
       height="10"
       rx="1"
       id="rect20" />
    <rect
       x="310"
       y="323"
       width="10"
       height="10"
       rx="1"
       id="rect21" />
    <rect
       x="325"
       y="323"
       width="10"
       height="10"
       rx="1"
       id="rect22" />
  </g>
  <!-- Hitbox -->
  <rect
     x="285"
     y="240"
     width="60"
     height="110"
     fill="transparent"
     cursor="Pointer"
     id="keypad" />
</svg>
