<?xml version="1.0" encoding="UTF-8" standalone="no"?>
<svg
   width="512"
   height="512"
   viewBox="0 0 512 512"
   version="1.1"
   id="svg16"
   sodipodi:docname="elecBox.svg"
   inkscape:version="1.4.4 (dcaf3e7d9e, 2026-05-05)"
   xmlns:inkscape="http://www.inkscape.org/namespaces/inkscape"
   xmlns:sodipodi="http://sodipodi.sourceforge.net/DTD/sodipodi-0.dtd"
   xmlns="http://www.w3.org/2000/svg"
   xmlns:svg="http://www.w3.org/2000/svg">
  <sodipodi:namedview
     id="namedview16"
     pagecolor="#ffffff"
     bordercolor="#000000"
     borderopacity="0.25"
     inkscape:showpageshadow="2"
     inkscape:pageopacity="0.0"
     inkscape:pagecheckerboard="0"
     inkscape:deskcolor="#d1d1d1"
     inkscape:zoom="2.2636719"
     inkscape:cx="256.22088"
     inkscape:cy="256.44176"
     inkscape:window-width="3440"
     inkscape:window-height="1368"
     inkscape:window-x="0"
     inkscape:window-y="0"
     inkscape:window-maximized="1"
     inkscape:current-layer="svg16" />
  <defs
     id="defs4">
    <linearGradient
       id="boxBody"
       x1="0%"
       y1="0%"
       x2="100%"
       y2="100%">
      <stop
         offset="0%"
         stop-color="#d8d8d8"
         id="stop1" />
      <stop
         offset="100%"
         stop-color="#9a9a9a"
         id="stop2" />
    </linearGradient>
    <linearGradient
       id="doorPanel"
       x1="0%"
       y1="0%"
       x2="100%"
       y2="100%">
      <stop
         offset="0%"
         stop-color="#f0f0f0"
         id="stop3" />
      <stop
         offset="100%"
         stop-color="#b8b8b8"
         id="stop4" />
    </linearGradient>
  </defs>
  <!-- Main enclosure -->
  <rect
     x="96"
     y="64"
     width="320"
     height="384"
     rx="12"
     fill="url(#boxBody)"
     stroke="#555"
     stroke-width="6"
     id="rect4" />
  <!-- Door -->
  <rect
     x="116"
     y="84"
     width="280"
     height="344"
     rx="8"
     fill="url(#doorPanel)"
     stroke="#666"
     stroke-width="3"
     id="rect5" />
  <!-- Vent slots -->
  <g
     fill="#777"
     id="g8">
    <rect
       x="156"
       y="120"
       width="200"
       height="6"
       rx="3"
       id="rect6" />
    <rect
       x="156"
       y="136"
       width="200"
       height="6"
       rx="3"
       id="rect7" />
    <rect
       x="156"
       y="152"
       width="200"
       height="6"
       rx="3"
       id="rect8" />
  </g>
  <!-- Warning triangle -->
  <polygon
     points="256,200 196,304 316,304"
     fill="#f7d21b"
     stroke="#444"
     stroke-width="4"
     id="polygon8" />
  <!-- Lightning bolt -->
  <path
     d="m 258.93184,226.18464 -30,48 22.88352,-7.50992 -16.88352,29.50992 42,-44 -24.65056,5.74288 z"
     fill="#222222"
     id="path8"
     sodipodi:nodetypes="ccccccc" />
  <!-- Door handle -->
  <rect
     x="350"
     y="240"
     width="16"
     height="48"
     rx="4"
     fill="#555"
     id="rect9" />
  <circle
     cx="358"
     cy="264"
     r="3"
     fill="#888"
     id="circle9" />
  <!-- Corner mounting bolts -->
  <g
     fill="#666"
     stroke="#444"
     stroke-width="1"
     id="g13">
    <circle
       cx="122"
       cy="90"
       r="5"
       id="circle10" />
    <circle
       cx="390"
       cy="90"
       r="5"
       id="circle11" />
    <circle
       cx="122"
       cy="422"
       r="5"
       id="circle12" />
    <circle
       cx="390"
       cy="422"
       r="5"
       id="circle13" />
  </g>
  <!-- Cable entries -->
  <g
     fill="#777"
     stroke="#555"
     stroke-width="2"
     id="g16">
    <circle
       cx="180"
       cy="448"
       r="12"
       id="circle14" />
    <circle
       cx="256"
       cy="448"
       r="12"
       id="circle15" />
    <circle
       cx="332"
       cy="448"
       r="12"
       id="circle16" />
  </g>
  <text
     xml:space="preserve"
     style="font-size:17.00787402px;font-family:'Adwaita Mono';-inkscape-font-specification:'Adwaita Mono';writing-mode:lr-tb;direction:ltr;fill:#000000"
     x="153.73253"
     y="343.24762"
     id="text16"><tspan
       sodipodi:role="line"
       id="tspan16"
       x="153.73253"
       y="343.24762" /></text>
  <path
     d="m 173.34139,341.92233 v -1.25858 l 5.5956,-10.00065 h -5.5956 v -1.24157 h 7.21135 v 1.24157 l -5.5956,10.00065 h 5.5956 v 1.25858 z m 13.18113,0.13607 q -0.37417,0 -0.74835,-0.051 -0.37417,-0.034 -0.73134,-0.15307 -0.35716,-0.13606 -0.68031,-0.34016 -0.30615,-0.20409 -0.52725,-0.51023 -0.2211,-0.30615 -0.32315,-0.66331 -0.10205,-0.37418 -0.10205,-0.74835 0,-0.47622 0.15308,-0.93543 0.15307,-0.45922 0.45921,-0.79938 0.32315,-0.34015 0.74835,-0.56126 0.42519,-0.23811 0.8674,-0.35716 0.45921,-0.13607 0.91843,-0.18709 0.47622,-0.051 0.95244,-0.051 h 1.85386 v -0.68032 q 0,-0.27213 -0.068,-0.54425 -0.068,-0.27213 -0.2211,-0.49323 -0.15308,-0.2211 -0.39119,-0.37417 -0.2211,-0.17008 -0.47622,-0.25512 -0.25512,-0.10205 -0.52724,-0.13607 -0.27213,-0.034 -0.54426,-0.034 -0.23811,0 -0.49322,0.017 -0.23812,0.017 -0.47623,0.085 -0.2211,0.051 -0.45921,0.15307 -0.2211,0.085 -0.40819,0.25512 -0.17008,0.15307 -0.28913,0.37417 -0.10205,0.2211 -0.10205,0.45921 v 0.017 h -1.39465 v -0.034 q 0,-0.40819 0.15307,-0.79937 0.15307,-0.40819 0.4252,-0.71433 0.27213,-0.30614 0.62929,-0.51024 0.37418,-0.2211 0.76536,-0.34015 0.40819,-0.11906 0.81638,-0.15307 0.40819,-0.051 0.83338,-0.051 0.44221,0 0.88442,0.068 0.45921,0.051 0.8674,0.22111 0.4252,0.15307 0.79937,0.42519 0.37417,0.27213 0.61228,0.6463 0.25512,0.37418 0.35717,0.83339 0.10205,0.44221 0.10205,0.88441 v 5.90174 h -1.39465 v -1.54772 q -0.17008,0.40819 -0.47622,0.74835 -0.28914,0.32315 -0.68032,0.54425 -0.37417,0.22111 -0.81638,0.30615 -0.42519,0.085 -0.8674,0.085 z m 0.54425,-1.24158 q 0.28914,0 0.57827,-0.034 0.30614,-0.051 0.57827,-0.17008 0.27213,-0.11905 0.49323,-0.30614 0.23811,-0.20409 0.37417,-0.45921 0.15307,-0.25512 0.2041,-0.54425 0.068,-0.30615 0.068,-0.59528 v -0.76536 h -1.85386 q -0.28914,0 -0.57827,0.017 -0.27213,0.017 -0.56126,0.085 -0.28914,0.051 -0.56126,0.15307 -0.27213,0.10205 -0.51024,0.27213 -0.2211,0.17008 -0.35716,0.4252 -0.13607,0.25512 -0.13607,0.54425 0,0.25512 0.10205,0.49323 0.10205,0.2211 0.28913,0.39118 0.18709,0.15307 0.40819,0.25512 0.23811,0.085 0.47622,0.15307 0.25512,0.051 0.49323,0.068 0.25512,0.017 0.49323,0.017 z m 10.27278,1.24158 q -0.40819,0 -0.81638,-0.034 -0.39118,-0.034 -0.78236,-0.13606 -0.39118,-0.10205 -0.76536,-0.27213 -0.35716,-0.18709 -0.6463,-0.45921 -0.28913,-0.28914 -0.45921,-0.66331 -0.15307,-0.39118 -0.15307,-0.78236 v -0.085 h 1.39465 v 0.017 q 0,0.23811 0.11905,0.44221 0.13606,0.20409 0.32315,0.34016 0.18709,0.11905 0.40819,0.20409 0.2211,0.068 0.44221,0.11906 0.23811,0.034 0.45921,0.051 0.23811,0.017 0.47622,0.017 0.23811,0 0.45921,-0.017 0.23811,-0.017 0.45922,-0.051 0.23811,-0.051 0.45921,-0.13607 0.2211,-0.085 0.40819,-0.2211 0.2041,-0.13606 0.32315,-0.34016 0.11906,-0.2211 0.11906,-0.4422 0,-0.27213 -0.17008,-0.51024 -0.15307,-0.23811 -0.39119,-0.37417 -0.23811,-0.13607 -0.51023,-0.22111 -0.25512,-0.085 -0.52725,-0.13606 -0.25512,-0.068 -0.52724,-0.13606 -0.25512,-0.068 -0.52725,-0.13606 -0.25512,-0.085 -0.52724,-0.17008 -0.25512,-0.085 -0.51024,-0.18709 -0.25512,-0.10205 -0.49323,-0.2211 -0.23811,-0.13607 -0.45921,-0.28914 -0.2211,-0.17008 -0.4252,-0.35716 -0.18709,-0.2041 -0.32315,-0.44221 -0.13606,-0.23811 -0.2211,-0.49323 -0.068,-0.27212 -0.068,-0.54425 0,-0.39118 0.13606,-0.76536 0.15307,-0.39118 0.4252,-0.68031 0.27212,-0.30614 0.61228,-0.49323 0.35717,-0.2041 0.73134,-0.30614 0.39118,-0.11906 0.78237,-0.15307 0.40818,-0.051 0.79937,-0.051 0.39118,0 0.78236,0.034 0.39118,0.034 0.76536,0.15307 0.39118,0.10205 0.73134,0.28913 0.35716,0.17008 0.62929,0.45922 0.27212,0.28913 0.42519,0.6633 0.15308,0.35717 0.15308,0.74835 v 0.085 h -1.39465 v -0.034 q 0,-0.22111 -0.11906,-0.40819 -0.10204,-0.2041 -0.28913,-0.34016 -0.17008,-0.13607 -0.39118,-0.2041 -0.2041,-0.085 -0.4252,-0.11905 -0.2041,-0.051 -0.4252,-0.068 -0.2211,-0.017 -0.4422,-0.017 -0.22111,0 -0.44221,0.017 -0.2211,0.017 -0.4422,0.068 -0.22111,0.034 -0.44221,0.11905 -0.20409,0.085 -0.37417,0.23811 -0.17008,0.13607 -0.28914,0.34016 -0.10205,0.2041 -0.10205,0.4252 0,0.27213 0.15308,0.51024 0.17007,0.23811 0.39118,0.37417 0.23811,0.13606 0.49323,0.2211 0.27212,0.068 0.54425,0.13607 0.27213,0.068 0.52724,0.13606 0.27213,0.068 0.52725,0.15307 0.27213,0.068 0.52724,0.15307 0.25512,0.085 0.51024,0.18709 0.25512,0.10205 0.49323,0.23811 0.25512,0.11905 0.47622,0.27213 0.2211,0.15307 0.40819,0.35716 0.2041,0.2041 0.34016,0.44221 0.13606,0.2211 0.20409,0.49323 0.085,0.27212 0.085,0.54425 0,0.40819 -0.17008,0.79937 -0.15307,0.37417 -0.4422,0.68032 -0.27213,0.28913 -0.6463,0.47622 -0.35717,0.18708 -0.74835,0.30614 -0.39118,0.10205 -0.79937,0.13606 -0.40819,0.051 -0.81638,0.051 z m 6.80317,-0.13607 v -1.25858 h 2.85732 v -6.34395 h -1.76882 v -1.24158 h 3.16347 v 7.58553 h 2.5852 v 1.25858 z m 3.52063,-10.3408 q -0.2211,0 -0.4252,-0.051 -0.20409,-0.068 -0.35716,-0.22111 -0.15307,-0.15307 -0.2211,-0.35716 -0.051,-0.2041 -0.051,-0.4252 0,-0.2211 0.051,-0.4252 0.068,-0.20409 0.2211,-0.35716 0.15307,-0.15307 0.35716,-0.22111 0.2041,-0.068 0.4252,-0.068 0.2211,0 0.4252,0.068 0.20409,0.068 0.35717,0.22111 0.15307,0.15307 0.2211,0.35716 0.068,0.2041 0.068,0.4252 0,0.2211 -0.068,0.4252 -0.068,0.20409 -0.2211,0.35716 -0.15308,0.15307 -0.35717,0.22111 -0.2041,0.051 -0.4252,0.051 z m 13.21515,10.3408 h -1.42867 q -0.37417,0 -0.76535,-0.068 -0.39118,-0.068 -0.73134,-0.23811 -0.34016,-0.17008 -0.62929,-0.4422 -0.27213,-0.27213 -0.44221,-0.61229 -0.17008,-0.35717 -0.23811,-0.73134 -0.068,-0.39118 -0.068,-0.78236 v -8.36789 h -2.70426 v -1.25858 h 4.11591 v 9.62647 q 0,0.32315 0.068,0.62929 0.085,0.30614 0.28913,0.54425 0.20409,0.23811 0.49323,0.34016 0.30614,0.10205 0.61228,0.10205 h 1.42867 z m 6.46301,0.13607 q -0.37418,0 -0.74835,-0.051 -0.37418,-0.034 -0.73134,-0.15307 -0.35717,-0.13606 -0.68032,-0.34016 -0.30614,-0.20409 -0.52724,-0.51023 -0.22111,-0.30615 -0.32315,-0.66331 -0.10205,-0.37418 -0.10205,-0.74835 0,-0.47622 0.15307,-0.93543 0.15307,-0.45922 0.45921,-0.79938 0.32315,-0.34015 0.74835,-0.56126 0.4252,-0.23811 0.8674,-0.35716 0.45922,-0.13607 0.91843,-0.18709 0.47622,-0.051 0.95244,-0.051 h 1.85386 v -0.68032 q 0,-0.27213 -0.068,-0.54425 -0.068,-0.27213 -0.2211,-0.49323 -0.15307,-0.2211 -0.39118,-0.37417 -0.2211,-0.17008 -0.47622,-0.25512 -0.25512,-0.10205 -0.52725,-0.13607 -0.27212,-0.034 -0.54425,-0.034 -0.23811,0 -0.49323,0.017 -0.23811,0.017 -0.47622,0.085 -0.2211,0.051 -0.45921,0.15307 -0.22111,0.085 -0.40819,0.25512 -0.17008,0.15307 -0.28914,0.37417 -0.10205,0.2211 -0.10205,0.45921 v 0.017 h -1.39464 v -0.034 q 0,-0.40819 0.15307,-0.79937 0.15307,-0.40819 0.4252,-0.71433 0.27212,-0.30614 0.62929,-0.51024 0.37417,-0.2211 0.76535,-0.34015 0.40819,-0.11906 0.81638,-0.15307 0.40819,-0.051 0.83339,-0.051 0.4422,0 0.88441,0.068 0.45921,0.051 0.8674,0.22111 0.4252,0.15307 0.79937,0.42519 0.37418,0.27213 0.61229,0.6463 0.25512,0.37418 0.35716,0.83339 0.10205,0.44221 0.10205,0.88441 v 5.90174 h -1.39465 v -1.54772 q -0.17007,0.40819 -0.47622,0.74835 -0.28913,0.32315 -0.68031,0.54425 -0.37418,0.22111 -0.81638,0.30615 -0.4252,0.085 -0.8674,0.085 z m 0.54425,-1.24158 q 0.28913,0 0.57827,-0.034 0.30614,-0.051 0.57827,-0.17008 0.27212,-0.11905 0.49322,-0.30614 0.23811,-0.20409 0.37418,-0.45921 0.15307,-0.25512 0.20409,-0.54425 0.068,-0.30615 0.068,-0.59528 v -0.76536 h -1.85386 q -0.28913,0 -0.57827,0.017 -0.27212,0.017 -0.56126,0.085 -0.28913,0.051 -0.56126,0.15307 -0.27212,0.10205 -0.51023,0.27213 -0.22111,0.17008 -0.35717,0.4252 -0.13606,0.25512 -0.13606,0.54425 0,0.25512 0.10204,0.49323 0.10205,0.2211 0.28914,0.39118 0.18709,0.15307 0.40819,0.25512 0.23811,0.085 0.47622,0.15307 0.25512,0.051 0.49323,0.068 0.25512,0.017 0.49323,0.017 z m 6.68411,1.10551 v -8.84411 h 1.41165 v 1.70079 q 0.15308,-0.40818 0.4252,-0.76535 0.27213,-0.35717 0.62929,-0.61229 0.37418,-0.25511 0.79938,-0.35716 0.4422,-0.10205 0.90141,-0.10205 0.44221,0 0.88442,0.11906 0.45921,0.10204 0.83338,0.37417 0.37418,0.25512 0.62929,0.62929 0.27213,0.37418 0.4252,0.79937 0.15307,0.4252 0.2041,0.88441 0.068,0.44221 0.068,0.90142 v 5.27245 h -1.41166 v -5.27245 q 0,-0.30614 -0.051,-0.61228 -0.034,-0.32315 -0.15307,-0.61229 -0.11906,-0.28913 -0.32315,-0.52724 -0.2041,-0.25512 -0.47622,-0.40819 -0.25512,-0.17008 -0.57827,-0.2211 -0.30614,-0.068 -0.61229,-0.068 -0.30614,0 -0.62929,0.068 -0.30614,0.051 -0.57827,0.2211 -0.25512,0.15307 -0.45921,0.40819 -0.2041,0.23811 -0.32315,0.52724 -0.11906,0.28914 -0.17008,0.61229 -0.034,0.30614 -0.034,0.61228 v 5.27245 z m 10.39184,0 v -1.25858 h 2.85732 v -6.34395 h -1.76882 v -1.24158 h 3.16347 v 7.58553 h 2.5852 v 1.25858 z m 3.52063,-10.3408 q -0.2211,0 -0.4252,-0.051 -0.20409,-0.068 -0.35716,-0.22111 -0.15307,-0.15307 -0.22111,-0.35716 -0.051,-0.2041 -0.051,-0.4252 0,-0.2211 0.051,-0.4252 0.068,-0.20409 0.22111,-0.35716 0.15307,-0.15307 0.35716,-0.22111 0.2041,-0.068 0.4252,-0.068 0.2211,0 0.4252,0.068 0.20409,0.068 0.35716,0.22111 0.15308,0.15307 0.22111,0.35716 0.068,0.2041 0.068,0.4252 0,0.2211 -0.068,0.4252 -0.068,0.20409 -0.22111,0.35716 -0.15307,0.15307 -0.35716,0.22111 -0.2041,0.051 -0.4252,0.051 z m 10.1027,10.47687 q -0.49323,0 -1.00347,-0.085 -0.49323,-0.085 -0.93543,-0.30615 -0.44221,-0.2211 -0.81638,-0.57826 -0.35717,-0.35717 -0.59528,-0.79938 -0.2211,-0.4422 -0.30614,-0.93543 -0.085,-0.51024 -0.085,-1.00347 v -1.70079 q 0,-0.49323 0.085,-0.98645 0.085,-0.51024 0.30614,-0.95245 0.23811,-0.4422 0.59528,-0.79937 0.37417,-0.35716 0.81638,-0.57827 0.4422,-0.2211 0.93543,-0.30614 0.51024,-0.085 1.00347,-0.085 0.49323,0 0.98645,0.085 0.51024,0.085 0.95245,0.30614 0.4422,0.22111 0.79937,0.57827 0.37417,0.35717 0.59527,0.79937 0.23812,0.44221 0.32315,0.95245 0.085,0.49322 0.085,0.98645 v 1.46268 h -6.08882 v 0.23811 q 0,0.32315 0.051,0.6463 0.051,0.32315 0.18709,0.61229 0.13606,0.28913 0.35716,0.54425 0.22111,0.23811 0.51024,0.39118 0.28913,0.15307 0.59528,0.22111 0.32315,0.051 0.6463,0.051 0.25511,0 0.49323,-0.017 0.25511,-0.017 0.49322,-0.068 0.23811,-0.068 0.45922,-0.17008 0.23811,-0.10205 0.4252,-0.25512 0.18708,-0.15307 0.30614,-0.37417 0.11905,-0.2211 0.13606,-0.47622 h 1.39465 q -0.017,0.42519 -0.18709,0.83338 -0.15307,0.39119 -0.4422,0.69733 -0.27213,0.30614 -0.6463,0.52724 -0.35717,0.2041 -0.76536,0.34016 -0.39118,0.11906 -0.81638,0.15307 -0.4252,0.051 -0.85039,0.051 z m -2.34709,-5.17041 h 4.69418 v -0.23811 q 0,-0.32315 -0.051,-0.6463 -0.051,-0.32315 -0.18708,-0.61228 -0.13607,-0.28914 -0.35717,-0.52725 -0.2211,-0.25511 -0.51024,-0.40819 -0.27212,-0.15307 -0.59527,-0.20409 -0.32315,-0.068 -0.6463,-0.068 -0.32315,0 -0.6463,0.068 -0.32315,0.051 -0.61229,0.20409 -0.27212,0.15308 -0.49323,0.40819 -0.2211,0.23811 -0.35716,0.52725 -0.13607,0.28913 -0.18709,0.61228 -0.051,0.32315 -0.051,0.6463 z m 19.1509,5.03434 v -1.25858 l 5.62962,-6.34395 h -5.62962 v -1.24158 h 7.21135 v 1.24158 l -5.62961,6.36096 h 5.62961 v 1.24157 z m 13.18114,0.13607 q -0.37418,0 -0.74835,-0.051 -0.37418,-0.034 -0.73134,-0.15307 -0.35717,-0.13606 -0.68032,-0.34016 -0.30614,-0.20409 -0.52724,-0.51023 -0.2211,-0.30615 -0.32315,-0.66331 -0.10205,-0.37418 -0.10205,-0.74835 0,-0.47622 0.15307,-0.93543 0.15307,-0.45922 0.45921,-0.79938 0.32316,-0.34015 0.74835,-0.56126 0.4252,-0.23811 0.86741,-0.35716 0.45921,-0.13607 0.91842,-0.18709 0.47622,-0.051 0.95244,-0.051 h 1.85387 v -0.68032 q 0,-0.27213 -0.068,-0.54425 -0.068,-0.27213 -0.2211,-0.49323 -0.15307,-0.2211 -0.39118,-0.37417 -0.2211,-0.17008 -0.47622,-0.25512 -0.25512,-0.10205 -0.52725,-0.13607 -0.27212,-0.034 -0.54425,-0.034 -0.23811,0 -0.49323,0.017 -0.23811,0.017 -0.47622,0.085 -0.2211,0.051 -0.45921,0.15307 -0.22111,0.085 -0.40819,0.25512 -0.17008,0.15307 -0.28914,0.37417 -0.10204,0.2211 -0.10204,0.45921 v 0.017 h -1.39465 v -0.034 q 0,-0.40819 0.15307,-0.79937 0.15307,-0.40819 0.4252,-0.71433 0.27212,-0.30614 0.62929,-0.51024 0.37417,-0.2211 0.76535,-0.34015 0.40819,-0.11906 0.81638,-0.15307 0.40819,-0.051 0.83339,-0.051 0.44221,0 0.88441,0.068 0.45921,0.051 0.8674,0.22111 0.4252,0.15307 0.79938,0.42519 0.37417,0.27213 0.61228,0.6463 0.25512,0.37418 0.35717,0.83339 0.10204,0.44221 0.10204,0.88441 v 5.90174 h -1.39464 v -1.54772 q -0.17008,0.40819 -0.47623,0.74835 -0.28913,0.32315 -0.68031,0.54425 -0.37418,0.22111 -0.81638,0.30615 -0.4252,0.085 -0.8674,0.085 z m 0.54425,-1.24158 q 0.28913,0 0.57827,-0.034 0.30614,-0.051 0.57827,-0.17008 0.27212,-0.11905 0.49323,-0.30614 0.23811,-0.20409 0.37417,-0.45921 0.15307,-0.25512 0.20409,-0.54425 0.068,-0.30615 0.068,-0.59528 v -0.76536 h -1.85387 q -0.28913,0 -0.57826,0.017 -0.27213,0.017 -0.56126,0.085 -0.28914,0.051 -0.56127,0.15307 -0.27212,0.10205 -0.51023,0.27213 -0.22111,0.17008 -0.35717,0.4252 -0.13606,0.25512 -0.13606,0.54425 0,0.25512 0.10205,0.49323 0.10204,0.2211 0.28913,0.39118 0.18709,0.15307 0.40819,0.25512 0.23811,0.085 0.47622,0.15307 0.25512,0.051 0.49323,0.068 0.25512,0.017 0.49323,0.017 z m 6.29292,1.10551 v -8.84411 h 1.32662 v 0.86741 q 0.10205,-0.22111 0.25512,-0.40819 0.15307,-0.2041 0.34016,-0.34016 0.20409,-0.13606 0.4422,-0.18709 0.23811,-0.068 0.49323,-0.068 0.28914,0 0.56126,0.10205 0.28914,0.085 0.51024,0.28913 0.2211,0.18709 0.35717,0.45922 0.15307,0.25511 0.23811,0.52724 0.068,-0.27213 0.20409,-0.52724 0.15307,-0.27213 0.37417,-0.45922 0.22111,-0.20409 0.49323,-0.28913 0.28914,-0.10205 0.57827,-0.10205 0.30614,0 0.57827,0.10205 0.28914,0.085 0.51024,0.28913 0.2211,0.18709 0.35716,0.45922 0.15307,0.25511 0.22111,0.54425 0.085,0.27213 0.11905,0.56126 0.034,0.28913 0.034,0.59528 v 6.42898 h -1.32662 v -6.42898 q 0,-0.25512 -0.051,-0.49323 -0.034,-0.23811 -0.17008,-0.44221 -0.11906,-0.20409 -0.34016,-0.32315 -0.20409,-0.11905 -0.4422,-0.11905 -0.23812,0 -0.45922,0.11905 -0.2211,0.11906 -0.34016,0.32315 -0.11905,0.2041 -0.17008,0.44221 -0.034,0.23811 -0.034,0.49323 v 6.42898 h -1.32662 v -6.42898 q 0,-0.25512 -0.051,-0.49323 -0.034,-0.23811 -0.15307,-0.44221 -0.11906,-0.20409 -0.34016,-0.32315 -0.2211,-0.11905 -0.45921,-0.11905 -0.23811,0 -0.45922,0.11905 -0.20409,0.11906 -0.34015,0.32315 -0.11906,0.2041 -0.17008,0.44221 -0.034,0.23811 -0.034,0.49323 v 6.42898 z m 16.31058,0 -2.87433,-3.86079 -1.12252,1.22457 v 2.63622 h -1.39465 v -12.5008 h 1.39465 v 8.04473 l 3.89481,-4.38804 h 1.78583 l -3.67371,4.03088 3.67371,4.81323 z m 8.09578,0.13607 q -0.49323,0 -1.00346,-0.085 -0.49323,-0.085 -0.93544,-0.30615 -0.4422,-0.2211 -0.81638,-0.57826 -0.35716,-0.35717 -0.59528,-0.79938 -0.2211,-0.4422 -0.30614,-0.93543 -0.085,-0.51024 -0.085,-1.00347 v -1.70079 q 0,-0.49323 0.085,-0.98645 0.085,-0.51024 0.30614,-0.95245 0.23812,-0.4422 0.59528,-0.79937 0.37418,-0.35716 0.81638,-0.57827 0.44221,-0.2211 0.93544,-0.30614 0.51023,-0.085 1.00346,-0.085 0.49323,0 0.98646,0.085 0.51024,0.085 0.95244,0.30614 0.44221,0.22111 0.79937,0.57827 0.37418,0.35717 0.59528,0.79937 0.23811,0.44221 0.32315,0.95245 0.085,0.49322 0.085,0.98645 v 1.70079 q 0,0.49323 -0.085,1.00347 -0.085,0.49323 -0.32315,0.93543 -0.2211,0.44221 -0.59528,0.79938 -0.35716,0.35716 -0.79937,0.57826 -0.4422,0.22111 -0.95244,0.30615 -0.49323,0.085 -0.98646,0.085 z m 0,-1.25859 q 0.32315,0 0.62929,-0.051 0.32315,-0.068 0.61229,-0.22111 0.28913,-0.15307 0.49323,-0.39118 0.2211,-0.23811 0.35716,-0.52724 0.13607,-0.30614 0.18709,-0.61229 0.051,-0.32315 0.051,-0.6463 v -1.70079 q 0,-0.32315 -0.051,-0.62929 -0.051,-0.32315 -0.18709,-0.61228 -0.13606,-0.30615 -0.35716,-0.54426 -0.2041,-0.23811 -0.49323,-0.39118 -0.28914,-0.15307 -0.61229,-0.20409 -0.30614,-0.068 -0.62929,-0.068 -0.32315,0 -0.6463,0.068 -0.30614,0.051 -0.59528,0.20409 -0.28913,0.15307 -0.51023,0.39118 -0.2041,0.23811 -0.34016,0.54426 -0.13606,0.28913 -0.18709,0.61228 -0.051,0.30614 -0.051,0.62929 v 1.70079 q 0,0.32315 0.051,0.6463 0.051,0.30615 0.18709,0.61229 0.13606,0.28913 0.34016,0.52724 0.2211,0.23811 0.51023,0.39118 0.28914,0.15308 0.59528,0.22111 0.32315,0.051 0.6463,0.051 z m -0.2211,-8.72505 -0.81638,-0.71433 2.24504,-2.46615 1.00347,0.88441 z m 12.97703,9.84757 h -1.27559 l -1.2756,-7.07528 -1.27559,7.07528 h -1.27559 l -1.7178,-8.84411 h 1.34362 l 1.03749,6.92222 1.24157,-6.92222 h 1.2926 l 1.24158,6.92222 1.03748,-6.92222 h 1.34363 z"
     id="text17"
     style="font-size:17.0079px;font-family:'Adwaita Mono';-inkscape-font-specification:'Adwaita Mono'"
     aria-label="Zasilanie zamków" />
  <path
     d="m 149.06425,356.6964 q -0.44409,-0.20787 -0.83149,-0.50079 -0.3874,-0.29291 -0.70866,-0.66141 -0.32126,-0.35906 -0.56693,-0.77481 -0.23622,-0.42519 -0.38741,-0.88819 -0.14173,-0.46299 -0.20787,-0.94488 -0.0661,-0.48189 -0.0661,-0.96378 0,-0.48189 0.0661,-0.96378 0.0661,-0.48189 0.20787,-0.94488 0.15119,-0.46299 0.38741,-0.87874 0.24567,-0.4252 0.56693,-0.78425 0.32126,-0.36851 0.70866,-0.66142 0.3874,-0.29291 0.83149,-0.50079 l 0.34016,0.62362 q -0.37795,0.18898 -0.70866,0.4441 -0.33071,0.25512 -0.59528,0.57638 -0.26456,0.31181 -0.47244,0.68031 -0.19842,0.36851 -0.32126,0.76536 -0.12283,0.39685 -0.17952,0.8126 -0.0472,0.41574 -0.0472,0.83149 0,0.41575 0.0472,0.8315 0.0567,0.41575 0.17952,0.8126 0.12284,0.39685 0.32126,0.76535 0.20788,0.3685 0.47244,0.68976 0.26457,0.31182 0.59528,0.56693 0.33071,0.25512 0.70866,0.4441 z m 2.33387,0.51024 v -6.94489 h 0.78425 v 0.95433 q 0.085,-0.22677 0.23622,-0.42519 0.16063,-0.20788 0.3685,-0.34961 0.20788,-0.14173 0.45355,-0.19842 0.25511,-0.0567 0.51023,-0.0567 0.25512,0 0.50079,0.0662 0.25512,0.0567 0.46299,0.19842 0.20788,0.14173 0.35906,0.34961 0.16063,0.20787 0.24567,0.44409 0.0945,0.23622 0.12283,0.49134 0.0378,0.25512 0.0378,0.51024 v 0.94488 q 0,0.25512 -0.0378,0.51023 -0.0283,0.25512 -0.12283,0.49134 -0.085,0.23622 -0.24567,0.4441 -0.15118,0.20787 -0.35906,0.3496 -0.20787,0.14174 -0.46299,0.19843 -0.24567,0.0661 -0.50079,0.0661 -0.25512,0 -0.51023,-0.0567 -0.24567,-0.0567 -0.45355,-0.19843 -0.20787,-0.14173 -0.3685,-0.34015 -0.15118,-0.20788 -0.23622,-0.43465 v 2.98583 z m 2.04094,-2.65512 q 0.17953,0 0.34961,-0.0283 0.17952,-0.0378 0.33071,-0.12283 0.15118,-0.0945 0.26456,-0.22677 0.12284,-0.13229 0.18898,-0.29292 0.0756,-0.16063 0.0945,-0.33071 0.0283,-0.17952 0.0283,-0.35905 v -0.94488 q 0,-0.17953 -0.0283,-0.34961 -0.0189,-0.17953 -0.0945,-0.34016 -0.0661,-0.16063 -0.18898,-0.29291 -0.11338,-0.13228 -0.26456,-0.21732 -0.15119,-0.0945 -0.33071,-0.12284 -0.17008,-0.0378 -0.34961,-0.0378 -0.17953,0 -0.35905,0.0378 -0.17008,0.0283 -0.32126,0.12284 -0.15119,0.085 -0.27402,0.21732 -0.11339,0.13228 -0.18898,0.29291 -0.0661,0.16063 -0.0945,0.34016 -0.0189,0.17008 -0.0189,0.34961 v 0.94488 q 0,0.17953 0.0189,0.35905 0.0283,0.17008 0.0945,0.33071 0.0756,0.16063 0.18898,0.29292 0.12283,0.13228 0.27402,0.22677 0.15118,0.085 0.32126,0.12283 0.17952,0.0283 0.35905,0.0283 z m 5.6315,0.69921 q -0.27401,0 -0.55748,-0.0472 -0.27401,-0.0472 -0.51968,-0.17008 -0.24567,-0.12284 -0.45355,-0.32126 -0.19842,-0.19843 -0.33071,-0.4441 -0.12283,-0.24567 -0.17008,-0.51968 -0.0472,-0.28347 -0.0472,-0.55748 v -0.94488 q 0,-0.27402 0.0472,-0.54804 0.0472,-0.28346 0.17008,-0.52913 0.13229,-0.24567 0.33071,-0.44409 0.20788,-0.19843 0.45355,-0.32126 0.24567,-0.12284 0.51968,-0.17008 0.28347,-0.0473 0.55748,-0.0473 0.27402,0 0.54803,0.0473 0.28347,0.0472 0.52914,0.17008 0.24567,0.12283 0.44409,0.32126 0.20788,0.19842 0.33071,0.44409 0.13228,0.24567 0.17953,0.52913 0.0472,0.27402 0.0472,0.54804 v 0.94488 q 0,0.27401 -0.0472,0.55748 -0.0472,0.27401 -0.17953,0.51968 -0.12283,0.24567 -0.33071,0.4441 -0.19842,0.19842 -0.44409,0.32126 -0.24567,0.12283 -0.52914,0.17008 -0.27401,0.0472 -0.54803,0.0472 z m 0,-0.69921 q 0.17953,0 0.34961,-0.0283 0.17953,-0.0378 0.34016,-0.12283 0.16063,-0.085 0.27401,-0.21733 0.12284,-0.13228 0.19843,-0.29291 0.0756,-0.17008 0.10393,-0.34016 0.0283,-0.17952 0.0283,-0.35905 v -0.94488 q 0,-0.17953 -0.0283,-0.34961 -0.0283,-0.17953 -0.10393,-0.34016 -0.0756,-0.17008 -0.19843,-0.30236 -0.11338,-0.13228 -0.27401,-0.21732 -0.16063,-0.085 -0.34016,-0.11339 -0.17008,-0.0378 -0.34961,-0.0378 -0.17953,0 -0.35905,0.0378 -0.17008,0.0283 -0.33071,0.11339 -0.16063,0.085 -0.28347,0.21732 -0.11338,0.13228 -0.18897,0.30236 -0.0756,0.16063 -0.10394,0.34016 -0.0283,0.17008 -0.0283,0.34961 v 0.94488 q 0,0.17953 0.0283,0.35905 0.0284,0.17008 0.10394,0.34016 0.0756,0.16063 0.18897,0.29291 0.12284,0.13229 0.28347,0.21733 0.16063,0.085 0.33071,0.12283 0.17952,0.0283 0.35905,0.0283 z m 5.31969,0.69921 q -0.25512,0 -0.51024,-0.0661 -0.24567,-0.0567 -0.45354,-0.19843 -0.20787,-0.14173 -0.3685,-0.3496 -0.15118,-0.20788 -0.24567,-0.4441 -0.085,-0.23622 -0.12284,-0.49134 -0.0283,-0.25511 -0.0283,-0.51023 v -0.94488 q 0,-0.25512 0.0283,-0.51024 0.0378,-0.25512 0.12284,-0.49134 0.0945,-0.23622 0.24567,-0.44409 0.16063,-0.20788 0.3685,-0.34961 0.20787,-0.14173 0.45354,-0.19842 0.25512,-0.0662 0.51024,-0.0662 0.25512,0 0.50079,0.0567 0.25512,0.0567 0.46299,0.19842 0.20787,0.14173 0.35906,0.34961 0.16062,0.19842 0.24566,0.42519 v -2.98582 h 0.78426 v 6.94488 h -0.78426 v -0.95433 q -0.085,0.22677 -0.24566,0.43465 -0.15119,0.19842 -0.35906,0.34015 -0.20787,0.14174 -0.46299,0.19843 -0.24567,0.0567 -0.50079,0.0567 z m 0.31181,-0.69921 q 0.17953,0 0.34961,-0.0283 0.17953,-0.0378 0.33071,-0.12283 0.15118,-0.0945 0.26456,-0.22677 0.12284,-0.13229 0.18898,-0.29292 0.0756,-0.16063 0.0945,-0.33071 0.0283,-0.17952 0.0283,-0.35905 v -0.94488 q 0,-0.17953 -0.0283,-0.34961 -0.0189,-0.17953 -0.0945,-0.34016 -0.0661,-0.16063 -0.18898,-0.29291 -0.11338,-0.13228 -0.26456,-0.21732 -0.15118,-0.0945 -0.33071,-0.12284 -0.17008,-0.0378 -0.34961,-0.0378 -0.17953,0 -0.35905,0.0378 -0.17008,0.0283 -0.32126,0.12284 -0.15118,0.085 -0.27402,0.21732 -0.11339,0.13228 -0.18898,0.29291 -0.0661,0.16063 -0.0945,0.34016 -0.0189,0.17008 -0.0189,0.34961 v 0.94488 q 0,0.17953 0.0189,0.35905 0.0283,0.17008 0.0945,0.33071 0.0756,0.16063 0.18898,0.29292 0.12284,0.13228 0.27402,0.22677 0.15118,0.085 0.32126,0.12283 0.17952,0.0283 0.35905,0.0283 z m 5.70709,0.69921 q -0.27401,0 -0.55748,-0.0472 -0.27401,-0.0472 -0.51968,-0.17008 -0.24567,-0.12284 -0.45355,-0.32126 -0.19842,-0.19843 -0.3307,-0.4441 -0.12284,-0.24567 -0.17008,-0.51968 -0.0472,-0.28347 -0.0472,-0.55748 v -0.94488 q 0,-0.27402 0.0472,-0.54804 0.0472,-0.28346 0.17008,-0.52913 0.13228,-0.24567 0.3307,-0.44409 0.20788,-0.19843 0.45355,-0.32126 0.24567,-0.12284 0.51968,-0.17008 0.28347,-0.0473 0.55748,-0.0473 0.27402,0 0.54803,0.0473 0.28347,0.0472 0.52914,0.17008 0.24567,0.12283 0.44409,0.32126 0.20788,0.19842 0.33071,0.44409 0.13229,0.24567 0.17953,0.52913 0.0472,0.27402 0.0472,0.54804 v 0.81259 h -3.38267 v 0.13229 q 0,0.17953 0.0283,0.35905 0.0284,0.17953 0.10394,0.34016 0.0756,0.16063 0.19842,0.30236 0.12284,0.13229 0.28347,0.21733 0.16063,0.085 0.33071,0.12283 0.17953,0.0283 0.35905,0.0283 0.14174,0 0.27402,-0.009 0.14173,-0.009 0.27401,-0.0378 0.13229,-0.0378 0.25512,-0.0945 0.13229,-0.0567 0.23622,-0.14173 0.10394,-0.085 0.17008,-0.20787 0.0661,-0.12284 0.0756,-0.26457 h 0.77481 q -0.009,0.23622 -0.10394,0.46299 -0.085,0.21733 -0.24567,0.38741 -0.15118,0.17007 -0.35906,0.29291 -0.19842,0.11338 -0.42519,0.18898 -0.21733,0.0661 -0.45355,0.085 -0.23622,0.0283 -0.47244,0.0283 z m -1.30393,-2.87244 h 2.60787 v -0.13228 q 0,-0.17953 -0.0283,-0.35906 -0.0283,-0.17953 -0.10393,-0.34016 -0.0756,-0.16063 -0.19843,-0.29291 -0.12283,-0.14173 -0.28346,-0.22677 -0.15118,-0.085 -0.33071,-0.11339 -0.17953,-0.0378 -0.35906,-0.0378 -0.17952,0 -0.35905,0.0378 -0.17953,0.0283 -0.34016,0.11339 -0.15118,0.085 -0.27402,0.22677 -0.12283,0.13228 -0.19842,0.29291 -0.0756,0.16063 -0.10394,0.34016 -0.0283,0.17953 -0.0283,0.35906 z m 5.12126,4.82835 v -0.69922 h 1.24724 q 0.17008,0 0.33071,-0.0567 0.17008,-0.0567 0.28347,-0.18898 0.11338,-0.13228 0.15118,-0.30236 0.0472,-0.17008 0.0472,-0.3496 v -4.65827 h -1.51181 v -0.68977 h 2.28662 v 5.34804 q 0,0.21732 -0.0378,0.42519 -0.0283,0.21733 -0.12283,0.4063 -0.0945,0.19843 -0.25512,0.34961 -0.15118,0.15118 -0.34961,0.24567 -0.18897,0.0945 -0.4063,0.13228 -0.20787,0.0378 -0.41575,0.0378 z m 2.37165,-7.77638 q -0.12283,0 -0.23622,-0.0283 -0.11338,-0.0378 -0.19842,-0.12283 -0.085,-0.085 -0.12284,-0.19843 -0.0283,-0.11338 -0.0283,-0.23622 0,-0.12283 0.0283,-0.23622 0.0378,-0.11339 0.12284,-0.19842 0.085,-0.085 0.19842,-0.12284 0.11339,-0.0378 0.23622,-0.0378 0.12284,0 0.23622,0.0378 0.11339,0.0378 0.19843,0.12284 0.085,0.085 0.12283,0.19842 0.0378,0.11339 0.0378,0.23622 0,0.12284 -0.0378,0.23622 -0.0378,0.11339 -0.12283,0.19843 -0.085,0.085 -0.19843,0.12283 -0.11338,0.0283 -0.23622,0.0283 z m 3.79843,5.74488 v -4.91339 h 0.78425 v 1.32284 q 0.0945,-0.24567 0.24567,-0.45354 0.16063,-0.20788 0.35906,-0.36851 0.19842,-0.16063 0.43464,-0.27401 0.23622,-0.11339 0.48189,-0.17953 0.24567,-0.0756 0.50079,-0.0945 0.25512,-0.0284 0.51969,-0.0284 v 0.76536 q -0.17008,0 -0.34016,0.009 -0.17008,0.009 -0.34016,0.0283 -0.16063,0.0189 -0.33071,0.0567 -0.16063,0.0378 -0.33071,0.0945 -0.16063,0.0473 -0.31181,0.12284 -0.15118,0.0661 -0.29291,0.16063 -0.13228,0.0945 -0.25512,0.22677 -0.11338,0.12284 -0.19842,0.27402 -0.0756,0.14173 -0.11339,0.31181 -0.0283,0.16063 -0.0283,0.33071 v 2.60787 z m 5.01733,0 v -0.69921 l 3.12756,-3.52441 h -3.12756 v -0.68977 h 4.0063 v 0.68977 l -3.12756,3.53386 h 3.12756 v 0.68976 z m 7.32284,0.0756 q -0.20787,0 -0.41575,-0.0283 -0.20787,-0.0189 -0.4063,-0.085 -0.19842,-0.0756 -0.37795,-0.18898 -0.17008,-0.11339 -0.29291,-0.28347 -0.12284,-0.17007 -0.17953,-0.3685 -0.0567,-0.20787 -0.0567,-0.41575 0,-0.26456 0.085,-0.51968 0.085,-0.25512 0.25512,-0.4441 0.17953,-0.18897 0.41575,-0.31181 0.23622,-0.13228 0.48189,-0.19842 0.25512,-0.0756 0.51024,-0.10394 0.26456,-0.0283 0.52913,-0.0283 h 1.02992 v -0.37795 q 0,-0.15118 -0.0378,-0.30236 -0.0378,-0.15118 -0.12284,-0.27402 -0.085,-0.12283 -0.21732,-0.20787 -0.12283,-0.0945 -0.26457,-0.14173 -0.14173,-0.0567 -0.29291,-0.0756 -0.15118,-0.0189 -0.30236,-0.0189 -0.13229,0 -0.27402,0.009 -0.13228,0.009 -0.26457,0.0472 -0.12283,0.0283 -0.25511,0.085 -0.12284,0.0472 -0.22678,0.14173 -0.0945,0.085 -0.16063,0.20788 -0.0567,0.12283 -0.0567,0.25511 v 0.009 h -0.7748 v -0.0189 q 0,-0.22678 0.085,-0.4441 0.085,-0.22677 0.23622,-0.39685 0.15118,-0.17008 0.3496,-0.28346 0.20788,-0.12284 0.4252,-0.18898 0.22677,-0.0661 0.45354,-0.085 0.22678,-0.0284 0.463,-0.0284 0.24567,0 0.49134,0.0378 0.25511,0.0284 0.48189,0.12283 0.23622,0.085 0.44409,0.23622 0.20787,0.15118 0.34016,0.35906 0.14173,0.20787 0.19842,0.46299 0.0567,0.24567 0.0567,0.49134 v 3.27874 h -0.77481 v -0.85984 q -0.0945,0.22677 -0.26456,0.41575 -0.16063,0.17952 -0.37796,0.30236 -0.20787,0.12283 -0.45354,0.17008 -0.23622,0.0472 -0.48189,0.0472 z m 0.30236,-0.68976 q 0.16063,0 0.32126,-0.0189 0.17008,-0.0284 0.32126,-0.0945 0.15118,-0.0661 0.27402,-0.17008 0.13228,-0.11338 0.20787,-0.25512 0.085,-0.14173 0.11339,-0.30236 0.0378,-0.17008 0.0378,-0.33071 v -0.42519 h -1.02992 q -0.16063,0 -0.32126,0.009 -0.15118,0.009 -0.31181,0.0472 -0.16063,0.0283 -0.31181,0.085 -0.15118,0.0567 -0.28347,0.15118 -0.12283,0.0945 -0.19842,0.23622 -0.0756,0.14173 -0.0756,0.30236 0,0.14173 0.0567,0.27402 0.0567,0.12283 0.16063,0.21732 0.10394,0.085 0.22677,0.14173 0.13229,0.0473 0.26457,0.085 0.14173,0.0284 0.27402,0.0378 0.14173,0.009 0.27401,0.009 z m 3.71339,0.61417 v -4.91339 h 0.78425 v 0.94489 q 0.085,-0.22678 0.23622,-0.4252 0.15119,-0.19843 0.34961,-0.34016 0.20788,-0.14173 0.4441,-0.19842 0.24567,-0.0567 0.50078,-0.0567 0.24567,0 0.49134,0.0662 0.25512,0.0567 0.46299,0.20787 0.20788,0.14173 0.34961,0.34961 0.15118,0.20787 0.23622,0.44409 0.085,0.23622 0.11339,0.49134 0.0378,0.24567 0.0378,0.50079 v 2.92913 h -0.78425 v -2.92913 q 0,-0.17008 -0.0283,-0.34016 -0.0189,-0.17953 -0.085,-0.34016 -0.0661,-0.16063 -0.17952,-0.29291 -0.11339,-0.14173 -0.26457,-0.22677 -0.14173,-0.0945 -0.32126,-0.12284 -0.17008,-0.0378 -0.34016,-0.0378 -0.17008,0 -0.3496,0.0378 -0.17008,0.0283 -0.32126,0.12284 -0.14174,0.085 -0.25512,0.22677 -0.11339,0.13228 -0.17953,0.29291 -0.0661,0.16063 -0.0945,0.34016 -0.0189,0.17008 -0.0189,0.34016 v 2.92913 z m 5.77324,0 v -0.69921 h 1.5874 v -3.52441 h -0.98268 v -0.68977 h 1.75748 v 4.21418 h 1.43622 v 0.69921 z m 1.9559,-5.74488 q -0.12283,0 -0.23622,-0.0283 -0.11338,-0.0378 -0.19842,-0.12283 -0.085,-0.085 -0.12284,-0.19843 -0.0283,-0.11338 -0.0283,-0.23622 0,-0.12283 0.0283,-0.23622 0.0378,-0.11339 0.12284,-0.19842 0.085,-0.085 0.19842,-0.12284 0.11339,-0.0378 0.23622,-0.0378 0.12284,0 0.23622,0.0378 0.11339,0.0378 0.19843,0.12284 0.085,0.085 0.12283,0.19842 0.0378,0.11339 0.0378,0.23622 0,0.12284 -0.0378,0.23622 -0.0378,0.11339 -0.12283,0.19843 -0.085,0.085 -0.19843,0.12283 -0.11338,0.0283 -0.23622,0.0283 z m 5.6126,5.82047 q -0.27401,0 -0.55748,-0.0472 -0.27401,-0.0472 -0.51968,-0.17008 -0.24567,-0.12284 -0.45354,-0.32126 -0.19843,-0.19843 -0.33071,-0.4441 -0.12284,-0.24567 -0.17008,-0.51968 -0.0472,-0.28347 -0.0472,-0.55748 v -0.94488 q 0,-0.27402 0.0472,-0.54804 0.0472,-0.28346 0.17008,-0.52913 0.13228,-0.24567 0.33071,-0.44409 0.20787,-0.19843 0.45354,-0.32126 0.24567,-0.12284 0.51968,-0.17008 0.28347,-0.0473 0.55748,-0.0473 0.27402,0 0.54804,0.0473 0.28346,0.0472 0.52913,0.17008 0.24567,0.12283 0.44409,0.32126 0.20788,0.19842 0.33071,0.44409 0.13229,0.24567 0.17953,0.52913 0.0472,0.27402 0.0472,0.54804 v 0.81259 h -3.38268 v 0.13229 q 0,0.17953 0.0283,0.35905 0.0283,0.17953 0.10394,0.34016 0.0756,0.16063 0.19843,0.30236 0.12283,0.13229 0.28346,0.21733 0.16063,0.085 0.33071,0.12283 0.17953,0.0283 0.35905,0.0283 0.14174,0 0.27402,-0.009 0.14173,-0.009 0.27402,-0.0378 0.13228,-0.0378 0.25511,-0.0945 0.13229,-0.0567 0.23622,-0.14173 0.10394,-0.085 0.17008,-0.20787 0.0661,-0.12284 0.0756,-0.26457 h 0.77481 q -0.009,0.23622 -0.10394,0.46299 -0.085,0.21733 -0.24567,0.38741 -0.15118,0.17007 -0.35905,0.29291 -0.19843,0.11338 -0.4252,0.18898 -0.21732,0.0661 -0.45354,0.085 -0.23622,0.0283 -0.47245,0.0283 z m -1.30393,-2.87244 h 2.60787 v -0.13228 q 0,-0.17953 -0.0283,-0.35906 -0.0284,-0.17953 -0.10394,-0.34016 -0.0756,-0.16063 -0.19843,-0.29291 -0.12283,-0.14173 -0.28346,-0.22677 -0.15118,-0.085 -0.33071,-0.11339 -0.17953,-0.0378 -0.35906,-0.0378 -0.17952,0 -0.35905,0.0378 -0.17953,0.0283 -0.34016,0.11339 -0.15118,0.085 -0.27401,0.22677 -0.12284,0.13228 -0.19843,0.29291 -0.0756,0.16063 -0.10394,0.34016 -0.0283,0.17953 -0.0283,0.35906 z m 12.33071,2.87244 q -0.24567,0 -0.50079,-0.0661 -0.24566,-0.0567 -0.45354,-0.19843 -0.20787,-0.15118 -0.35905,-0.35905 -0.14174,-0.20788 -0.22678,-0.4441 -0.085,-0.23622 -0.12283,-0.48189 -0.0283,-0.25511 -0.0283,-0.51023 v -2.92914 h 0.78426 v 2.92914 q 0,0.17008 0.0189,0.3496 0.0283,0.17008 0.0945,0.33071 0.0661,0.16063 0.17953,0.30237 0.11338,0.13228 0.25512,0.22677 0.15118,0.085 0.32126,0.12283 0.17952,0.0283 0.3496,0.0283 0.17008,0 0.34016,-0.0283 0.17953,-0.0378 0.32126,-0.12283 0.15118,-0.0945 0.26457,-0.22677 0.11338,-0.14174 0.17953,-0.30237 0.0661,-0.16063 0.085,-0.33071 0.0284,-0.17952 0.0284,-0.3496 v -2.92914 h 0.78425 v 4.91339 h -0.78425 v -0.94488 q -0.085,0.22677 -0.23622,0.4252 -0.15118,0.19842 -0.35905,0.34015 -0.19843,0.14174 -0.4441,0.19843 -0.23622,0.0567 -0.49134,0.0567 z m 3.76064,-0.0756 v -4.91339 h 0.737 v 0.48189 q 0.0567,-0.12283 0.14174,-0.22677 0.085,-0.11338 0.18897,-0.18897 0.11339,-0.0756 0.24567,-0.10394 0.13229,-0.0378 0.27402,-0.0378 0.16063,0 0.31181,0.0567 0.16063,0.0472 0.28346,0.16063 0.12284,0.10393 0.19843,0.25511 0.085,0.14174 0.13228,0.29292 0.0378,-0.15118 0.11339,-0.29292 0.085,-0.15118 0.20787,-0.25511 0.12284,-0.11339 0.27402,-0.16063 0.16063,-0.0567 0.32126,-0.0567 0.17008,0 0.32126,0.0567 0.16063,0.0472 0.28346,0.16063 0.12284,0.10393 0.19843,0.25511 0.085,0.14174 0.12283,0.30237 0.0472,0.15118 0.0661,0.31181 0.0189,0.16063 0.0189,0.33071 v 3.57165 h -0.73701 v -3.57165 q 0,-0.14174 -0.0283,-0.27402 -0.0189,-0.13228 -0.0945,-0.24567 -0.0661,-0.11338 -0.18898,-0.17953 -0.11338,-0.0661 -0.24567,-0.0661 -0.13228,0 -0.25511,0.0661 -0.12284,0.0661 -0.18898,0.17953 -0.0661,0.11339 -0.0945,0.24567 -0.0189,0.13228 -0.0189,0.27402 v 3.57165 h -0.737 v -3.57165 q 0,-0.14174 -0.0283,-0.27402 -0.0189,-0.13228 -0.085,-0.24567 -0.0661,-0.11338 -0.18898,-0.17953 -0.12283,-0.0661 -0.25511,-0.0661 -0.13229,0 -0.25512,0.0661 -0.11339,0.0661 -0.18898,0.17953 -0.0661,0.11339 -0.0945,0.24567 -0.0189,0.13228 -0.0189,0.27402 v 3.57165 z m 5.99055,0 v -0.69921 h 1.5874 v -3.52441 h -0.98267 v -0.68977 h 1.75748 v 4.21418 h 1.43622 v 0.69921 z m 1.95591,-5.74488 q -0.12284,0 -0.23622,-0.0283 -0.11339,-0.0378 -0.19843,-0.12283 -0.085,-0.085 -0.12283,-0.19843 -0.0284,-0.11338 -0.0284,-0.23622 0,-0.12283 0.0284,-0.23622 0.0378,-0.11339 0.12283,-0.19842 0.085,-0.085 0.19843,-0.12284 0.11338,-0.0378 0.23622,-0.0378 0.12283,0 0.23622,0.0378 0.11339,0.0378 0.19842,0.12284 0.085,0.085 0.12284,0.19842 0.0378,0.11339 0.0378,0.23622 0,0.12284 -0.0378,0.23622 -0.0378,0.11339 -0.12284,0.19843 -0.085,0.085 -0.19842,0.12283 -0.11339,0.0283 -0.23622,0.0283 z m 5.6126,5.82047 q -0.27401,0 -0.55748,-0.0472 -0.27401,-0.0472 -0.51968,-0.17008 -0.24567,-0.12284 -0.45355,-0.32126 -0.19842,-0.19843 -0.33071,-0.4441 -0.12283,-0.24567 -0.17007,-0.51968 -0.0472,-0.28347 -0.0472,-0.55748 v -0.94488 q 0,-0.27402 0.0472,-0.54804 0.0472,-0.28346 0.17007,-0.52913 0.13229,-0.24567 0.33071,-0.44409 0.20788,-0.19843 0.45355,-0.32126 0.24567,-0.12284 0.51968,-0.17008 0.28347,-0.0473 0.55748,-0.0473 0.27402,0 0.54803,0.0473 0.28347,0.0472 0.52914,0.17008 0.24567,0.12283 0.44409,0.32126 0.20788,0.19842 0.33071,0.44409 0.13228,0.24567 0.17953,0.52913 0.0472,0.27402 0.0472,0.54804 v 0.81259 h -3.38267 v 0.13229 q 0,0.17953 0.0283,0.35905 0.0283,0.17953 0.10394,0.34016 0.0756,0.16063 0.19842,0.30236 0.12284,0.13229 0.28347,0.21733 0.16063,0.085 0.33071,0.12283 0.17952,0.0283 0.35905,0.0283 0.14173,0 0.27402,-0.009 0.14173,-0.009 0.27401,-0.0378 0.13229,-0.0378 0.25512,-0.0945 0.13229,-0.0567 0.23622,-0.14173 0.10394,-0.085 0.17008,-0.20787 0.0661,-0.12284 0.0756,-0.26457 h 0.77481 q -0.009,0.23622 -0.10394,0.46299 -0.085,0.21733 -0.24567,0.38741 -0.15118,0.17007 -0.35906,0.29291 -0.19842,0.11338 -0.42519,0.18898 -0.21733,0.0661 -0.45355,0.085 -0.23622,0.0283 -0.47244,0.0283 z m -1.30393,-2.87244 h 2.60787 v -0.13228 q 0,-0.17953 -0.0284,-0.35906 -0.0283,-0.17953 -0.10393,-0.34016 -0.0756,-0.16063 -0.19843,-0.29291 -0.12283,-0.14173 -0.28346,-0.22677 -0.15119,-0.085 -0.33071,-0.11339 -0.17953,-0.0378 -0.35906,-0.0378 -0.17953,0 -0.35905,0.0378 -0.17953,0.0283 -0.34016,0.11339 -0.15118,0.085 -0.27402,0.22677 -0.12283,0.13228 -0.19842,0.29291 -0.0756,0.16063 -0.10394,0.34016 -0.0283,0.17953 -0.0283,0.35906 z m 6.96378,2.87244 q -0.22677,0 -0.45354,-0.0189 -0.21733,-0.0189 -0.43465,-0.0756 -0.21732,-0.0567 -0.4252,-0.15118 -0.19842,-0.10394 -0.35905,-0.25512 -0.16063,-0.16063 -0.25512,-0.3685 -0.085,-0.21732 -0.085,-0.43465 v -0.0472 h 0.7748 v 0.009 q 0,0.13228 0.0661,0.24567 0.0756,0.11338 0.17952,0.18897 0.10394,0.0661 0.22678,0.11339 0.12283,0.0378 0.24566,0.0661 0.13229,0.0189 0.25512,0.0283 0.13229,0.009 0.26457,0.009 0.13228,0 0.25512,-0.009 0.13228,-0.009 0.25512,-0.0283 0.13228,-0.0283 0.25511,-0.0756 0.12284,-0.0472 0.22678,-0.12283 0.11338,-0.0756 0.17952,-0.18898 0.0661,-0.12283 0.0661,-0.24567 0,-0.15118 -0.0945,-0.28346 -0.085,-0.13229 -0.21733,-0.20788 -0.13228,-0.0756 -0.28346,-0.12283 -0.14173,-0.0473 -0.29291,-0.0756 -0.14174,-0.0378 -0.29292,-0.0756 -0.14173,-0.0378 -0.29291,-0.0756 -0.14173,-0.0472 -0.29291,-0.0945 -0.14174,-0.0473 -0.28347,-0.10394 -0.14173,-0.0567 -0.27401,-0.12283 -0.13229,-0.0756 -0.25512,-0.16063 -0.12284,-0.0945 -0.23622,-0.19843 -0.10394,-0.11339 -0.17953,-0.24567 -0.0756,-0.13228 -0.12284,-0.27401 -0.0378,-0.15119 -0.0378,-0.30237 0,-0.21732 0.0756,-0.42519 0.085,-0.21733 0.23622,-0.37796 0.15118,-0.17008 0.34016,-0.27401 0.19842,-0.11339 0.4063,-0.17008 0.21732,-0.0661 0.43464,-0.085 0.22677,-0.0284 0.4441,-0.0284 0.21732,0 0.43464,0.0189 0.21733,0.0189 0.4252,0.085 0.21732,0.0567 0.4063,0.16063 0.19842,0.0945 0.34961,0.25512 0.15118,0.16063 0.23622,0.3685 0.085,0.19843 0.085,0.41575 v 0.0472 h -0.77481 v -0.0189 q 0,-0.12284 -0.0661,-0.22677 -0.0567,-0.11339 -0.16063,-0.18898 -0.0945,-0.0756 -0.21732,-0.11339 -0.11339,-0.0472 -0.23622,-0.0661 -0.11339,-0.0284 -0.23622,-0.0378 -0.12284,-0.009 -0.24567,-0.009 -0.12284,0 -0.24567,0.009 -0.12284,0.009 -0.24567,0.0378 -0.12284,0.0189 -0.24567,0.0661 -0.11339,0.0473 -0.20787,0.13229 -0.0945,0.0756 -0.16063,0.18897 -0.0567,0.11339 -0.0567,0.23622 0,0.15118 0.085,0.28347 0.0945,0.13228 0.21732,0.20787 0.13229,0.0756 0.27402,0.12284 0.15118,0.0378 0.30236,0.0756 0.15118,0.0378 0.29292,0.0756 0.15118,0.0378 0.29291,0.085 0.15118,0.0378 0.29291,0.085 0.14174,0.0472 0.28347,0.10393 0.14173,0.0567 0.27401,0.13229 0.14174,0.0661 0.26457,0.15118 0.12284,0.085 0.22677,0.19842 0.11339,0.11339 0.18898,0.24567 0.0756,0.12284 0.11338,0.27402 0.0472,0.15118 0.0472,0.30236 0,0.22677 -0.0945,0.4441 -0.085,0.20787 -0.24567,0.37795 -0.15118,0.16063 -0.35905,0.26457 -0.19843,0.10393 -0.41575,0.17007 -0.21733,0.0567 -0.4441,0.0756 -0.22677,0.0283 -0.45354,0.0283 z m 3.67559,-0.0756 v -0.69921 l 3.12756,-3.52441 h -3.12756 v -0.68977 h 4.0063 v 0.68977 l -3.12755,3.53386 h 3.12755 v 0.68976 z m 7.6441,0.0756 q -0.27401,0 -0.54803,-0.0472 -0.27401,-0.0472 -0.51968,-0.17008 -0.24567,-0.13229 -0.4441,-0.33071 -0.19842,-0.19843 -0.32126,-0.4441 -0.12283,-0.24566 -0.17008,-0.51968 -0.0472,-0.27402 -0.0472,-0.54803 v -0.94488 q 0,-0.27402 0.0472,-0.54804 0.0472,-0.27401 0.17008,-0.51968 0.12284,-0.24567 0.32126,-0.4441 0.19843,-0.19842 0.4441,-0.32125 0.24567,-0.13229 0.51968,-0.17953 0.27402,-0.0473 0.54803,-0.0473 0.25512,0 0.50079,0.0378 0.25512,0.0284 0.49134,0.13228 0.23622,0.0945 0.43465,0.25512 0.20787,0.15118 0.34015,0.3685 0.14174,0.20788 0.20788,0.45355 0.0756,0.24567 0.0756,0.50079 v 0.0283 h -0.78425 v -0.0189 q 0,-0.23622 -0.10394,-0.45354 -0.0945,-0.21732 -0.28347,-0.35905 -0.17952,-0.14174 -0.41574,-0.18898 -0.22677,-0.0567 -0.463,-0.0567 -0.17007,0 -0.3496,0.0378 -0.17953,0.0283 -0.33071,0.11339 -0.15118,0.085 -0.27402,0.22677 -0.11338,0.13228 -0.18897,0.29291 -0.0756,0.16063 -0.10394,0.34016 -0.0189,0.17008 -0.0189,0.34961 v 0.94488 q 0,0.17953 0.0189,0.35905 0.0283,0.17008 0.10394,0.33071 0.0756,0.16063 0.18897,0.30236 0.12284,0.13229 0.27402,0.21733 0.15118,0.085 0.33071,0.12283 0.17953,0.0283 0.3496,0.0283 0.23623,0 0.463,-0.0472 0.23622,-0.0567 0.41574,-0.19842 0.18898,-0.14173 0.28347,-0.35906 0.10394,-0.21732 0.10394,-0.45354 v -0.0189 h 0.78425 v 0.0283 q 0,0.25512 -0.0756,0.50079 -0.0661,0.24567 -0.20788,0.46299 -0.13228,0.20787 -0.34015,0.3685 -0.19843,0.15118 -0.43465,0.25512 -0.23622,0.0945 -0.49134,0.12284 -0.24567,0.0378 -0.50079,0.0378 z m 3.6945,-0.0756 v -0.69921 l 3.12756,-3.52441 h -3.12756 v -0.68977 h 4.0063 v 0.68977 l -3.12756,3.53386 h 3.12756 v 0.68976 z m 7.67244,0.0756 q -0.27401,0 -0.55748,-0.0472 -0.27401,-0.0472 -0.51968,-0.17008 -0.24567,-0.12284 -0.45355,-0.32126 -0.19842,-0.19843 -0.3307,-0.4441 -0.12284,-0.24567 -0.17008,-0.51968 -0.0473,-0.28347 -0.0473,-0.55748 v -0.94488 q 0,-0.27402 0.0473,-0.54804 0.0472,-0.28346 0.17008,-0.52913 0.13228,-0.24567 0.3307,-0.44409 0.20788,-0.19843 0.45355,-0.32126 0.24567,-0.12284 0.51968,-0.17008 0.28347,-0.0473 0.55748,-0.0473 0.27402,0 0.54804,0.0473 0.28346,0.0472 0.52913,0.17008 0.24567,0.12283 0.44409,0.32126 0.20788,0.19842 0.33071,0.44409 0.13229,0.24567 0.17953,0.52913 0.0472,0.27402 0.0472,0.54804 v 0.94488 q 0,0.27401 -0.0472,0.55748 -0.0472,0.27401 -0.17953,0.51968 -0.12283,0.24567 -0.33071,0.4441 -0.19842,0.19842 -0.44409,0.32126 -0.24567,0.12283 -0.52913,0.17008 -0.27402,0.0472 -0.54804,0.0472 z m 0,-0.69921 q 0.17953,0 0.34961,-0.0283 0.17953,-0.0378 0.34016,-0.12283 0.16063,-0.085 0.27401,-0.21733 0.12284,-0.13228 0.19843,-0.29291 0.0756,-0.17008 0.10394,-0.34016 0.0283,-0.17952 0.0283,-0.35905 v -0.94488 q 0,-0.17953 -0.0283,-0.34961 -0.0283,-0.17953 -0.10394,-0.34016 -0.0756,-0.17008 -0.19843,-0.30236 -0.11338,-0.13228 -0.27401,-0.21732 -0.16063,-0.085 -0.34016,-0.11339 -0.17008,-0.0378 -0.34961,-0.0378 -0.17952,0 -0.35905,0.0378 -0.17008,0.0283 -0.33071,0.11339 -0.16063,0.085 -0.28346,0.21732 -0.11339,0.13228 -0.18898,0.30236 -0.0756,0.16063 -0.10394,0.34016 -0.0283,0.17008 -0.0283,0.34961 v 0.94488 q 0,0.17953 0.0283,0.35905 0.0283,0.17008 0.10394,0.34016 0.0756,0.16063 0.18898,0.29291 0.12283,0.13229 0.28346,0.21733 0.16063,0.085 0.33071,0.12283 0.17953,0.0283 0.35905,0.0283 z m 3.66615,0.62362 v -4.91339 h 0.78425 v 0.94489 q 0.085,-0.22678 0.23622,-0.4252 0.15118,-0.19843 0.34961,-0.34016 0.20787,-0.14173 0.44409,-0.19842 0.24567,-0.0567 0.50079,-0.0567 0.24567,0 0.49134,0.0662 0.25512,0.0567 0.46299,0.20787 0.20788,0.14173 0.34961,0.34961 0.15118,0.20787 0.23622,0.44409 0.085,0.23622 0.11338,0.49134 0.0378,0.24567 0.0378,0.50079 v 2.92913 h -0.78425 v -2.92913 q 0,-0.17008 -0.0284,-0.34016 -0.0189,-0.17953 -0.085,-0.34016 -0.0661,-0.16063 -0.17953,-0.29291 -0.11338,-0.14173 -0.26456,-0.22677 -0.14174,-0.0945 -0.32126,-0.12284 -0.17008,-0.0378 -0.34016,-0.0378 -0.17008,0 -0.34961,0.0378 -0.17008,0.0283 -0.32126,0.12284 -0.14173,0.085 -0.25511,0.22677 -0.11339,0.13228 -0.17953,0.29291 -0.0661,0.16063 -0.0945,0.34016 -0.0189,0.17008 -0.0189,0.34016 v 2.92913 z m 7.67244,0.0756 q -0.27402,0 -0.55748,-0.0472 -0.27402,-0.0472 -0.51969,-0.17008 -0.24567,-0.12284 -0.45354,-0.32126 -0.19843,-0.19843 -0.33071,-0.4441 -0.12283,-0.24567 -0.17008,-0.51968 -0.0472,-0.28347 -0.0472,-0.55748 v -0.94488 q 0,-0.27402 0.0472,-0.54804 0.0473,-0.28346 0.17008,-0.52913 0.13228,-0.24567 0.33071,-0.44409 0.20787,-0.19843 0.45354,-0.32126 0.24567,-0.12284 0.51969,-0.17008 0.28346,-0.0473 0.55748,-0.0473 0.27401,0 0.54803,0.0473 0.28346,0.0472 0.52913,0.17008 0.24567,0.12283 0.4441,0.32126 0.20787,0.19842 0.33071,0.44409 0.13228,0.24567 0.17952,0.52913 0.0473,0.27402 0.0473,0.54804 v 0.81259 h -3.38268 v 0.13229 q 0,0.17953 0.0284,0.35905 0.0283,0.17953 0.10393,0.34016 0.0756,0.16063 0.19843,0.30236 0.12283,0.13229 0.28346,0.21733 0.16063,0.085 0.33071,0.12283 0.17953,0.0283 0.35906,0.0283 0.14173,0 0.27401,-0.009 0.14174,-0.009 0.27402,-0.0378 0.13228,-0.0378 0.25512,-0.0945 0.13228,-0.0567 0.23622,-0.14173 0.10394,-0.085 0.17008,-0.20787 0.0661,-0.12284 0.0756,-0.26457 h 0.7748 q -0.009,0.23622 -0.10394,0.46299 -0.085,0.21733 -0.24567,0.38741 -0.15118,0.17007 -0.35905,0.29291 -0.19843,0.11338 -0.4252,0.18898 -0.21732,0.0661 -0.45354,0.085 -0.23622,0.0283 -0.47244,0.0283 z m -1.30394,-2.87244 h 2.60788 v -0.13228 q 0,-0.17953 -0.0283,-0.35906 -0.0283,-0.17953 -0.10394,-0.34016 -0.0756,-0.16063 -0.19842,-0.29291 -0.12284,-0.14173 -0.28347,-0.22677 -0.15118,-0.085 -0.33071,-0.11339 -0.17952,-0.0378 -0.35905,-0.0378 -0.17953,0 -0.35906,0.0378 -0.17952,0.0283 -0.34015,0.11339 -0.15119,0.085 -0.27402,0.22677 -0.12283,0.13228 -0.19843,0.29291 -0.0756,0.16063 -0.10393,0.34016 -0.0284,0.17953 -0.0284,0.35906 z m 10.63938,4.82835 v -6.94489 h 0.78425 v 0.95433 q 0.085,-0.22677 0.23622,-0.42519 0.16063,-0.20788 0.36851,-0.34961 0.20787,-0.14173 0.45354,-0.19842 0.25512,-0.0567 0.51024,-0.0567 0.25512,0 0.50078,0.0662 0.25512,0.0567 0.463,0.19842 0.20787,0.14173 0.35905,0.34961 0.16063,0.20787 0.24567,0.44409 0.0945,0.23622 0.12284,0.49134 0.0378,0.25512 0.0378,0.51024 v 0.94488 q 0,0.25512 -0.0378,0.51023 -0.0283,0.25512 -0.12284,0.49134 -0.085,0.23622 -0.24567,0.4441 -0.15118,0.20787 -0.35905,0.3496 -0.20788,0.14174 -0.463,0.19843 -0.24566,0.0661 -0.50078,0.0661 -0.25512,0 -0.51024,-0.0567 -0.24567,-0.0567 -0.45354,-0.19843 -0.20788,-0.14173 -0.36851,-0.34015 -0.15118,-0.20788 -0.23622,-0.43465 v 2.98583 z m 2.04095,-2.65512 q 0.17952,0 0.3496,-0.0283 0.17953,-0.0378 0.33071,-0.12283 0.15118,-0.0945 0.26457,-0.22677 0.12283,-0.13229 0.18897,-0.29292 0.0756,-0.16063 0.0945,-0.33071 0.0283,-0.17952 0.0283,-0.35905 v -0.94488 q 0,-0.17953 -0.0283,-0.34961 -0.0189,-0.17953 -0.0945,-0.34016 -0.0661,-0.16063 -0.18897,-0.29291 -0.11339,-0.13228 -0.26457,-0.21732 -0.15118,-0.0945 -0.33071,-0.12284 -0.17008,-0.0378 -0.3496,-0.0378 -0.17953,0 -0.35906,0.0378 -0.17008,0.0283 -0.32126,0.12284 -0.15118,0.085 -0.27401,0.21732 -0.11339,0.13228 -0.18898,0.29291 -0.0661,0.16063 -0.0945,0.34016 -0.0189,0.17008 -0.0189,0.34961 v 0.94488 q 0,0.17953 0.0189,0.35905 0.0283,0.17008 0.0945,0.33071 0.0756,0.16063 0.18898,0.29292 0.12283,0.13228 0.27401,0.22677 0.15118,0.085 0.32126,0.12283 0.17953,0.0283 0.35906,0.0283 z m 4.28032,0.62362 v -4.91339 h 0.78425 v 1.32284 q 0.0945,-0.24567 0.24567,-0.45354 0.16063,-0.20788 0.35905,-0.36851 0.19843,-0.16063 0.43465,-0.27401 0.23622,-0.11339 0.48189,-0.17953 0.24567,-0.0756 0.50079,-0.0945 0.25511,-0.0284 0.51968,-0.0284 v 0.76536 q -0.17008,0 -0.34016,0.009 -0.17008,0.009 -0.34015,0.0283 -0.16063,0.0189 -0.33071,0.0567 -0.16063,0.0378 -0.33071,0.0945 -0.16063,0.0473 -0.31181,0.12284 -0.15118,0.0661 -0.29292,0.16063 -0.13228,0.0945 -0.25511,0.22677 -0.11339,0.12284 -0.19843,0.27402 -0.0756,0.14173 -0.11339,0.31181 -0.0283,0.16063 -0.0283,0.33071 v 2.60787 z m 5.01732,0 v -0.69921 l 3.12756,-3.52441 h -3.12756 v -0.68977 h 4.0063 v 0.68977 l -3.12756,3.53386 h 3.12756 v 0.68976 z m 5.77324,2.0315 v -0.69922 h 0.46299 q 0.14173,0 0.27401,-0.0378 0.13229,-0.0283 0.22678,-0.12284 0.10393,-0.085 0.16063,-0.21732 0.0567,-0.12283 0.10393,-0.25512 l 0.26457,-0.72756 -1.76693,-4.88504 h 0.82205 l 1.35118,3.99685 1.35118,-3.99685 h 0.82205 l -2.10709,5.84882 q -0.0567,0.16063 -0.12283,0.31181 -0.0661,0.16063 -0.17008,0.29292 -0.10394,0.14173 -0.24567,0.24567 -0.13228,0.10393 -0.29291,0.16063 -0.16063,0.0567 -0.33071,0.0661 -0.17008,0.0189 -0.34016,0.0189 z m 14.65513,-2.0315 h -0.70867 l -0.70866,-3.93071 -0.70866,3.93071 h -0.70866 l -0.95433,-4.91339 h 0.74646 l 0.57637,3.84567 0.68977,-3.84567 h 0.71811 l 0.68976,3.84567 0.57638,-3.84567 h 0.74646 z m 2.35276,2.0315 v -0.69922 h 0.46299 q 0.14173,0 0.27401,-0.0378 0.13229,-0.0283 0.22678,-0.12284 0.10393,-0.085 0.16063,-0.21732 0.0567,-0.12283 0.10393,-0.25512 l 0.26457,-0.72756 -1.76693,-4.88504 h 0.82205 l 1.35118,3.99685 1.35118,-3.99685 h 0.82205 l -2.10709,5.84882 q -0.0567,0.16063 -0.12283,0.31181 -0.0661,0.16063 -0.17008,0.29292 -0.10394,0.14173 -0.24567,0.24567 -0.13229,0.10393 -0.29292,0.16063 -0.16063,0.0567 -0.3307,0.0661 -0.17008,0.0189 -0.34016,0.0189 z m 5.71654,0 v -0.69922 h 1.24724 q 0.17008,0 0.33071,-0.0567 0.17008,-0.0567 0.28346,-0.18898 0.11339,-0.13228 0.15118,-0.30236 0.0472,-0.17008 0.0472,-0.3496 v -4.65827 h -1.51181 v -0.68977 h 2.28661 v 5.34804 q 0,0.21732 -0.0378,0.42519 -0.0283,0.21733 -0.12284,0.4063 -0.0945,0.19843 -0.25512,0.34961 -0.15118,0.15118 -0.3496,0.24567 -0.18898,0.0945 -0.4063,0.13228 -0.20788,0.0378 -0.41575,0.0378 z m 2.37165,-7.77638 q -0.12283,0 -0.23622,-0.0283 -0.11339,-0.0378 -0.19843,-0.12283 -0.085,-0.085 -0.12283,-0.19843 -0.0284,-0.11338 -0.0284,-0.23622 0,-0.12283 0.0284,-0.23622 0.0378,-0.11339 0.12283,-0.19842 0.085,-0.085 0.19843,-0.12284 0.11339,-0.0378 0.23622,-0.0378 0.12283,0 0.23622,0.0378 0.11339,0.0378 0.19843,0.12284 0.085,0.085 0.12283,0.19842 0.0378,0.11339 0.0378,0.23622 0,0.12284 -0.0378,0.23622 -0.0378,0.11339 -0.12283,0.19843 -0.085,0.085 -0.19843,0.12283 -0.11339,0.0283 -0.23622,0.0283 z m 5.14016,5.82047 q -0.22677,0 -0.45354,-0.0189 -0.21732,-0.0189 -0.43465,-0.0756 -0.21732,-0.0567 -0.42519,-0.15118 -0.19843,-0.10394 -0.35906,-0.25512 -0.16063,-0.16063 -0.25512,-0.3685 -0.085,-0.21732 -0.085,-0.43465 v -0.0472 h 0.77481 v 0.009 q 0,0.13228 0.0661,0.24567 0.0756,0.11338 0.17953,0.18897 0.10393,0.0661 0.22677,0.11339 0.12283,0.0378 0.24567,0.0661 0.13228,0.0189 0.25512,0.0283 0.13228,0.009 0.26456,0.009 0.13229,0 0.25512,-0.009 0.13228,-0.009 0.25512,-0.0283 0.13228,-0.0283 0.25512,-0.0756 0.12283,-0.0472 0.22677,-0.12283 0.11338,-0.0756 0.17953,-0.18898 0.0661,-0.12283 0.0661,-0.24567 0,-0.15118 -0.0945,-0.28346 -0.085,-0.13229 -0.21732,-0.20788 -0.13229,-0.0756 -0.28347,-0.12283 -0.14173,-0.0473 -0.29291,-0.0756 -0.14173,-0.0378 -0.29291,-0.0756 -0.14174,-0.0378 -0.29292,-0.0756 -0.14173,-0.0472 -0.29291,-0.0945 -0.14173,-0.0473 -0.28347,-0.10394 -0.14173,-0.0567 -0.27401,-0.12283 -0.13229,-0.0756 -0.25512,-0.16063 -0.12283,-0.0945 -0.23622,-0.19843 -0.10394,-0.11339 -0.17953,-0.24567 -0.0756,-0.13228 -0.12283,-0.27401 -0.0378,-0.15119 -0.0378,-0.30237 0,-0.21732 0.0756,-0.42519 0.085,-0.21733 0.23622,-0.37796 0.15118,-0.17008 0.34016,-0.27401 0.19843,-0.11339 0.4063,-0.17008 0.21732,-0.0661 0.43465,-0.085 0.22677,-0.0284 0.44409,-0.0284 0.21732,0 0.43465,0.0189 0.21732,0.0189 0.42519,0.085 0.21733,0.0567 0.4063,0.16063 0.19843,0.0945 0.34961,0.25512 0.15118,0.16063 0.23622,0.3685 0.085,0.19843 0.085,0.41575 v 0.0472 h -0.77481 v -0.0189 q 0,-0.12284 -0.0661,-0.22677 -0.0567,-0.11339 -0.16063,-0.18898 -0.0945,-0.0756 -0.21732,-0.11339 -0.11339,-0.0472 -0.23622,-0.0661 -0.11339,-0.0284 -0.23622,-0.0378 -0.12284,-0.009 -0.24567,-0.009 -0.12283,0 -0.24567,0.009 -0.12283,0.009 -0.24567,0.0378 -0.12283,0.0189 -0.24567,0.0661 -0.11338,0.0473 -0.20787,0.13229 -0.0945,0.0756 -0.16063,0.18897 -0.0567,0.11339 -0.0567,0.23622 0,0.15118 0.085,0.28347 0.0945,0.13228 0.21733,0.20787 0.13228,0.0756 0.27401,0.12284 0.15118,0.0378 0.30237,0.0756 0.15118,0.0378 0.29291,0.0756 0.15118,0.0378 0.29291,0.085 0.15118,0.0378 0.29292,0.085 0.14173,0.0472 0.28346,0.10393 0.14173,0.0567 0.27402,0.13229 0.14173,0.0661 0.26456,0.15118 0.12284,0.085 0.22677,0.19842 0.11339,0.11339 0.18898,0.24567 0.0756,0.12284 0.11339,0.27402 0.0472,0.15118 0.0472,0.30236 0,0.22677 -0.0945,0.4441 -0.085,0.20787 -0.24567,0.37795 -0.15118,0.16063 -0.35905,0.26457 -0.19843,0.10393 -0.41575,0.17007 -0.21732,0.0567 -0.44409,0.0756 -0.22678,0.0283 -0.45355,0.0283 z m -0.11338,-5.54646 -0.45355,-0.39685 1.24725,-1.37008 0.55748,0.49134 z m 5.76378,5.54646 q -0.27401,0 -0.54803,-0.0472 -0.27402,-0.0472 -0.51969,-0.17008 -0.24567,-0.13229 -0.44409,-0.33071 -0.19843,-0.19843 -0.32126,-0.4441 -0.12283,-0.24566 -0.17008,-0.51968 -0.0472,-0.27402 -0.0472,-0.54803 v -0.94488 q 0,-0.27402 0.0472,-0.54804 0.0473,-0.27401 0.17008,-0.51968 0.12283,-0.24567 0.32126,-0.4441 0.19842,-0.19842 0.44409,-0.32125 0.24567,-0.13229 0.51969,-0.17953 0.27402,-0.0473 0.54803,-0.0473 0.25512,0 0.50079,0.0378 0.25512,0.0284 0.49134,0.13228 0.23622,0.0945 0.43464,0.25512 0.20788,0.15118 0.34016,0.3685 0.14173,0.20788 0.20787,0.45355 0.0756,0.24567 0.0756,0.50079 v 0.0283 h -0.78425 v -0.0189 q 0,-0.23622 -0.10393,-0.45354 -0.0945,-0.21732 -0.28347,-0.35905 -0.17953,-0.14174 -0.41575,-0.18898 -0.22677,-0.0567 -0.46299,-0.0567 -0.17008,0 -0.34961,0.0378 -0.17952,0.0283 -0.3307,0.11339 -0.15119,0.085 -0.27402,0.22677 -0.11339,0.13228 -0.18898,0.29291 -0.0756,0.16063 -0.10393,0.34016 -0.0189,0.17008 -0.0189,0.34961 v 0.94488 q 0,0.17953 0.0189,0.35905 0.0283,0.17008 0.10393,0.33071 0.0756,0.16063 0.18898,0.30236 0.12283,0.13229 0.27402,0.21733 0.15118,0.085 0.3307,0.12283 0.17953,0.0283 0.34961,0.0283 0.23622,0 0.46299,-0.0472 0.23622,-0.0567 0.41575,-0.19842 0.18898,-0.14173 0.28347,-0.35906 0.10393,-0.21732 0.10393,-0.45354 v -0.0189 h 0.78425 v 0.0283 q 0,0.25512 -0.0756,0.50079 -0.0661,0.24567 -0.20787,0.46299 -0.13228,0.20787 -0.34016,0.3685 -0.19842,0.15118 -0.43464,0.25512 -0.23622,0.0945 -0.49134,0.12284 -0.24567,0.0378 -0.50079,0.0378 z m 3.79843,-0.0756 v -0.69921 h 1.5874 v -3.52441 h -0.98267 v -0.68977 h 1.75748 v 4.21418 h 1.43622 v 0.69921 z m 1.95591,-5.74488 q -0.12284,0 -0.23622,-0.0283 -0.11339,-0.0378 -0.19843,-0.12283 -0.085,-0.085 -0.12283,-0.19843 -0.0283,-0.11338 -0.0283,-0.23622 0,-0.12283 0.0283,-0.23622 0.0378,-0.11339 0.12283,-0.19842 0.085,-0.085 0.19843,-0.12284 0.11338,-0.0378 0.23622,-0.0378 0.12283,0 0.23622,0.0378 0.11338,0.0378 0.19842,0.12284 0.085,0.085 0.12284,0.19842 0.0378,0.11339 0.0378,0.23622 0,0.12284 -0.0378,0.23622 -0.0378,0.11339 -0.12284,0.19843 -0.085,0.085 -0.19842,0.12283 -0.11339,0.0283 -0.23622,0.0283 z m 5.30079,5.82047 q -0.24567,0 -0.50079,-0.0661 -0.24567,-0.0567 -0.45354,-0.19843 -0.20788,-0.15118 -0.35906,-0.35905 -0.14173,-0.20788 -0.22677,-0.4441 -0.085,-0.23622 -0.12283,-0.48189 -0.0283,-0.25511 -0.0283,-0.51023 v -2.92914 h 0.78425 v 2.92914 q 0,0.17008 0.0189,0.3496 0.0283,0.17008 0.0945,0.33071 0.0661,0.16063 0.17953,0.30237 0.11338,0.13228 0.25511,0.22677 0.15118,0.085 0.32126,0.12283 0.17953,0.0283 0.34961,0.0283 0.17008,0 0.34016,-0.0283 0.17953,-0.0378 0.32126,-0.12283 0.15118,-0.0945 0.26456,-0.22677 0.11339,-0.14174 0.17953,-0.30237 0.0661,-0.16063 0.085,-0.33071 0.0283,-0.17952 0.0283,-0.3496 v -2.92914 h 0.78425 v 4.91339 h -0.78425 v -0.94488 q -0.085,0.22677 -0.23622,0.4252 -0.15118,0.19842 -0.35906,0.34015 -0.19842,0.14174 -0.44409,0.19843 -0.23622,0.0567 -0.49134,0.0567 z m 4.64882,1.44567 -0.34015,-0.62362 q 0.37795,-0.18898 0.70866,-0.4441 0.33071,-0.25511 0.59527,-0.56693 0.26457,-0.32126 0.46299,-0.68976 0.20788,-0.3685 0.33071,-0.76535 0.12284,-0.39685 0.17008,-0.8126 0.0567,-0.41575 0.0567,-0.8315 0,-0.41575 -0.0567,-0.83149 -0.0472,-0.41575 -0.17008,-0.8126 -0.12283,-0.39685 -0.33071,-0.76536 -0.19842,-0.3685 -0.46299,-0.68031 -0.26456,-0.32126 -0.59527,-0.57638 -0.33071,-0.25512 -0.70866,-0.4441 l 0.34015,-0.62362 q 0.4441,0.20788 0.8315,0.50079 0.3874,0.29291 0.70866,0.66142 0.32126,0.35905 0.55748,0.78425 0.24567,0.41575 0.3874,0.87874 0.15118,0.46299 0.21733,0.94488 0.0661,0.48189 0.0661,0.96378 0,0.48189 -0.0661,0.96378 -0.0661,0.48189 -0.21733,0.94488 -0.14173,0.463 -0.3874,0.88819 -0.23622,0.41575 -0.55748,0.77481 -0.32126,0.3685 -0.70866,0.66141 -0.3874,0.29292 -0.8315,0.50079 z"
     id="text18"
     style="font-size:9.44882px;font-family:'Adwaita Mono';-inkscape-font-specification:'Adwaita Mono'"
     aria-label="(podejrzanie umieszczone przy wyjściu)" />
</svg>
