<?xml version="1.0" encoding="UTF-8" standalone="no"?>
<svg
   width="512"
   height="768"
   viewBox="0 0 512 768"
   version="1.1"
   id="svg22"
   sodipodi:docname="heavyDoor.svg"
   inkscape:version="1.4.4 (dcaf3e7d9e, 2026-05-05)"
   xmlns:inkscape="http://www.inkscape.org/namespaces/inkscape"
   xmlns:sodipodi="http://sodipodi.sourceforge.net/DTD/sodipodi-0.dtd"
   xmlns="http://www.w3.org/2000/svg"
   xmlns:svg="http://www.w3.org/2000/svg">
  <sodipodi:namedview
     id="namedview22"
     pagecolor="#ffffff"
     bordercolor="#000000"
     borderopacity="0.25"
     inkscape:showpageshadow="2"
     inkscape:pageopacity="0.0"
     inkscape:pagecheckerboard="0"
     inkscape:deskcolor="#d1d1d1"
     inkscape:zoom="20.088968"
     inkscape:cx="240.28114"
     inkscape:cy="397.40718"
     inkscape:window-width="3440"
     inkscape:window-height="1368"
     inkscape:window-x="0"
     inkscape:window-y="0"
     inkscape:window-maximized="1"
     inkscape:current-layer="text24" />
  <defs
     id="defs7">
    <linearGradient
       id="steel"
       x1="0%"
       y1="0%"
       x2="100%"
       y2="0%">
      <stop
         offset="0%"
         stop-color="#4a4f55"
         id="stop1" />
      <stop
         offset="20%"
         stop-color="#8f969e"
         id="stop2" />
      <stop
         offset="50%"
         stop-color="#626971"
         id="stop3" />
      <stop
         offset="80%"
         stop-color="#a4abb2"
         id="stop4" />
      <stop
         offset="100%"
         stop-color="#50555b"
         id="stop5" />
    </linearGradient>
    <linearGradient
       id="frame"
       x1="0%"
       y1="0%"
       x2="100%"
       y2="100%">
      <stop
         offset="0%"
         stop-color="#2d3136"
         id="stop6" />
      <stop
         offset="100%"
         stop-color="#1b1e22"
         id="stop7" />
    </linearGradient>
  </defs>
  <!-- Outer frame -->
  <rect
     x="24"
     y="24"
     width="464"
     height="720"
     rx="8"
     fill="url(#frame)"
     stroke="#111"
     stroke-width="8"
     id="rect7" />
  <!-- Main steel door -->
  <rect
     x="48"
     y="48"
     width="416"
     height="672"
     rx="4"
     fill="url(#steel)"
     stroke="#2f3439"
     stroke-width="4"
     id="rect8" />
  <!-- Reinforcement plates -->
  <rect
     x="80"
     y="120"
     width="352"
     height="56"
     fill="none"
     stroke="#394047"
     stroke-width="6"
     id="rect9" />
  <rect
     x="80"
     y="356"
     width="352"
     height="56"
     fill="none"
     stroke="#394047"
     stroke-width="6"
     id="rect10" />
  <rect
     x="80"
     y="592"
     width="352"
     height="56"
     fill="none"
     stroke="#394047"
     stroke-width="6"
     id="rect11" />
  <!-- Rivets -->
  <g
     fill="#b0b7be"
     stroke="#555"
     id="g16">
    <!-- Top row -->
    <circle
       cx="96"
       cy="148"
       r="6"
       id="circle11" />
    <circle
       cx="416"
       cy="148"
       r="6"
       id="circle12" />
    <!-- Middle row -->
    <circle
       cx="96"
       cy="384"
       r="6"
       id="circle13" />
    <!-- Bottom row -->
    <circle
       cx="96"
       cy="620"
       r="6"
       id="circle15" />
    <circle
       cx="416"
       cy="620"
       r="6"
       id="circle16" />
  </g>
  <!-- Heavy locking mechanism -->
  <rect
     x="364.63849"
     y="300"
     width="56"
     height="120"
     rx="4"
     fill="#4d5258"
     stroke="#2d3136"
     stroke-width="3"
     id="rect16" />
  <!-- Handle -->
  <rect
     x="374"
     y="332"
     width="12"
     height="56"
     rx="4"
     fill="#d0d4d8"
     id="rect17" />
  <rect
     x="383.34943"
     y="349.33737"
     width="32"
     height="12"
     rx="4"
     fill="#d0d4d8"
     id="rect18" />
  <!-- Viewing hatch -->
  <rect
     x="156"
     y="220"
     width="200"
     height="48"
     rx="4"
     fill="#2b2f33"
     stroke="#666"
     stroke-width="3"
     id="rect19" />
  <!-- Hinge plates -->
  <g
     fill="#3b4046"
     stroke="#222"
     stroke-width="2"
     id="g22">
    <rect
       x="48"
       y="120"
       width="24"
       height="64"
       id="rect20" />
    <rect
       x="48"
       y="352"
       width="24"
       height="64"
       id="rect21" />
    <rect
       x="48"
       y="584"
       width="24"
       height="64"
       id="rect22" />
  </g>
  <path
     d="m 189.31633,157.70837 -3.43559,-25.00154 h 2.68724 l 2.07496,19.55903 2.51716,-19.55903 h 2.51717 l 2.51716,19.55903 2.07496,-19.55903 h 2.68724 l -3.43559,25.00154 h -2.55118 l -2.55118,-20.00123 -2.55117,20.00123 z m 18.67463,7.31338 v -2.51716 h 1.66677 q 0.51024,0 0.98646,-0.13606 0.47622,-0.10205 0.81637,-0.44221 0.37418,-0.30614 0.57827,-0.78236 0.20409,-0.4422 0.37417,-0.91842 l 0.95244,-2.61921 -6.36093,-17.58612 h 2.95936 l 4.86425,14.38864 4.86424,-14.38864 h 2.95937 l -7.5855,21.05572 q -0.2041,0.57827 -0.44221,1.12252 -0.23811,0.57826 -0.61228,1.05448 -0.37417,0.51024 -0.88441,0.88441 -0.47622,0.37417 -1.05448,0.57827 -0.57827,0.20409 -1.19055,0.23811 -0.61229,0.068 -1.22457,0.068 z m 20.57951,0 v -2.51716 h 4.49008 q 0.61228,0 1.19055,-0.2041 0.61228,-0.20409 1.02047,-0.68031 0.40819,-0.47622 0.54425,-1.0885 0.17008,-0.61229 0.17008,-1.25858 v -16.76974 h -5.44252 v -2.48315 h 8.2318 v 19.25289 q 0,0.78236 -0.13606,1.5307 -0.10205,0.78236 -0.4422,1.46268 -0.34016,0.71433 -0.91843,1.25858 -0.54425,0.54425 -1.25858,0.88441 -0.68031,0.34015 -1.46267,0.47622 -0.74835,0.13606 -1.49669,0.13606 z m 8.53794,-27.99492 q -0.4422,0 -0.85039,-0.10205 -0.40819,-0.13606 -0.71433,-0.4422 -0.30614,-0.30614 -0.4422,-0.71433 -0.10205,-0.40819 -0.10205,-0.8504 0,-0.4422 0.10205,-0.85039 0.13606,-0.40819 0.4422,-0.71433 0.30614,-0.30614 0.71433,-0.4422 0.40819,-0.13607 0.85039,-0.13607 0.44221,0 0.8504,0.13607 0.40819,0.13606 0.71433,0.4422 0.30614,0.30614 0.4422,0.71433 0.13606,0.40819 0.13606,0.85039 0,0.44221 -0.13606,0.8504 -0.13606,0.40819 -0.4422,0.71433 -0.30614,0.30614 -0.71433,0.4422 -0.40819,0.10205 -0.8504,0.10205 z m 18.50456,20.95367 q -0.81638,0 -1.63275,-0.068 -0.78236,-0.068 -1.56473,-0.27213 -0.78236,-0.20409 -1.5307,-0.54425 -0.71433,-0.37417 -1.2926,-0.91842 -0.57827,-0.57827 -0.91842,-1.32661 -0.30614,-0.78237 -0.30614,-1.56473 v -0.17008 h 2.78928 v 0.034 q 0,0.47622 0.23811,0.88441 0.27213,0.40819 0.6463,0.68031 0.37417,0.23811 0.81638,0.40819 0.4422,0.13606 0.88441,0.23811 0.47622,0.068 0.91842,0.10205 0.47622,0.034 0.95244,0.034 0.47622,0 0.91842,-0.034 0.47622,-0.034 0.91843,-0.10205 0.47622,-0.10205 0.91842,-0.27212 0.44221,-0.17008 0.81638,-0.44221 0.40819,-0.27212 0.6463,-0.68031 0.23811,-0.44221 0.23811,-0.88441 0,-0.54425 -0.34016,-1.02047 -0.30614,-0.47622 -0.78236,-0.74835 -0.47622,-0.27212 -1.02047,-0.4422 -0.51024,-0.17008 -1.05449,-0.27213 -0.51023,-0.13606 -1.05449,-0.27212 -0.51023,-0.13607 -1.05448,-0.27213 -0.51024,-0.17008 -1.05449,-0.34016 -0.51023,-0.17007 -1.02047,-0.37417 -0.51024,-0.20409 -0.98645,-0.4422 -0.47622,-0.27213 -0.91843,-0.57827 -0.4422,-0.34016 -0.85039,-0.71433 -0.37417,-0.40819 -0.6463,-0.88441 -0.27213,-0.47622 -0.4422,-0.98645 -0.13607,-0.54425 -0.13607,-1.08851 0,-0.78236 0.27213,-1.5307 0.30614,-0.78236 0.85039,-1.36063 0.54425,-0.61228 1.22457,-0.98646 0.71433,-0.40818 1.46267,-0.61228 0.78236,-0.23811 1.56472,-0.30614 0.81638,-0.10205 1.59874,-0.10205 0.78236,0 1.56472,0.068 0.78237,0.068 1.53071,0.30614 0.78236,0.20409 1.46268,0.57826 0.71433,0.34016 1.25858,0.91843 0.54425,0.57826 0.85039,1.32661 0.30614,0.71433 0.30614,1.49669 v 0.17008 h -2.78929 v -0.068 q 0,-0.44221 -0.23811,-0.81638 -0.20409,-0.40819 -0.57826,-0.68031 -0.34016,-0.27213 -0.78236,-0.40819 -0.40819,-0.17008 -0.8504,-0.23811 -0.40819,-0.10205 -0.85039,-0.13606 -0.4422,-0.034 -0.88441,-0.034 -0.4422,0 -0.88441,0.034 -0.4422,0.034 -0.8844,0.13606 -0.44221,0.068 -0.88441,0.23811 -0.40819,0.17008 -0.74835,0.47622 -0.34016,0.27212 -0.57826,0.68031 -0.2041,0.40819 -0.2041,0.85039 0,0.54426 0.30614,1.02048 0.34016,0.47622 0.78236,0.74834 0.47622,0.27213 0.98646,0.44221 0.54425,0.13606 1.0885,0.27212 0.54425,0.13606 1.05449,0.27213 0.54425,0.13606 1.05448,0.30614 0.54426,0.13606 1.05449,0.30614 0.51024,0.17008 1.02047,0.37417 0.51024,0.2041 0.98646,0.47622 0.51023,0.23811 0.95244,0.54425 0.4422,0.30614 0.81637,0.71433 0.40819,0.40819 0.68032,0.88441 0.27212,0.4422 0.40819,0.98646 0.17008,0.54425 0.17008,1.0885 0,0.81638 -0.34016,1.59874 -0.30614,0.74834 -0.88441,1.36062 -0.54425,0.57827 -1.2926,0.95244 -0.71433,0.37418 -1.49669,0.61229 -0.78236,0.20409 -1.59874,0.27212 -0.81637,0.10205 -1.63275,0.10205 z m -0.40819,-19.96722 -1.63275,-1.42866 4.49007,-4.93227 2.00693,1.76881 z m 20.74959,19.96722 q -0.98645,0 -1.97291,-0.17008 -0.98646,-0.17008 -1.87086,-0.61228 -0.88441,-0.47622 -1.59874,-1.19055 -0.71433,-0.71433 -1.15654,-1.59874 -0.4422,-0.88441 -0.61228,-1.87086 -0.17008,-0.98646 -0.17008,-1.97291 v -3.40157 q 0,-0.98646 0.17008,-1.97291 0.17008,-0.98646 0.61228,-1.87087 0.44221,-0.88441 1.15654,-1.59874 0.71433,-0.71433 1.59874,-1.15653 0.8844,-0.47622 1.87086,-0.6463 0.98646,-0.17008 1.97291,-0.17008 0.91842,0 1.80283,0.13607 0.91843,0.10204 1.76882,0.47622 0.85039,0.34015 1.56472,0.91842 0.74835,0.54425 1.22457,1.32661 0.51023,0.74835 0.74834,1.63276 0.27213,0.8844 0.27213,1.80283 v 0.10205 h -2.82331 v -0.068 q 0,-0.85039 -0.37417,-1.63275 -0.34016,-0.78236 -1.02047,-1.2926 -0.6463,-0.51023 -1.49669,-0.68031 -0.81638,-0.20409 -1.66677,-0.20409 -0.61228,0 -1.25858,0.13606 -0.6463,0.10205 -1.19055,0.40819 -0.54425,0.30614 -0.98646,0.81637 -0.40818,0.47622 -0.68031,1.05449 -0.27212,0.57827 -0.37417,1.22457 -0.068,0.61228 -0.068,1.25858 v 3.40157 q 0,0.6463 0.068,1.29259 0.10205,0.61229 0.37417,1.19055 0.27213,0.57827 0.68031,1.08851 0.44221,0.47622 0.98646,0.78236 0.54425,0.30614 1.19055,0.4422 0.6463,0.10205 1.25858,0.10205 0.85039,0 1.66677,-0.17008 0.85039,-0.20409 1.49669,-0.71433 0.68031,-0.51024 1.02047,-1.2926 0.37417,-0.78236 0.37417,-1.63275 v -0.068 h 2.82331 v 0.10204 q 0,0.91843 -0.27213,1.80284 -0.23811,0.88441 -0.74834,1.66677 -0.47622,0.74834 -1.22457,1.32661 -0.71433,0.54425 -1.56472,0.91842 -0.85039,0.34016 -1.76882,0.44221 -0.88441,0.13606 -1.80283,0.13606 z m 13.67432,-0.27213 v -2.51716 h 5.71464 v -12.68785 h -3.53763 v -2.48315 h 6.32692 v 15.171 h 5.17039 v 2.51716 z m 7.04125,-20.68154 q -0.4422,0 -0.85039,-0.10205 -0.40819,-0.13606 -0.71433,-0.4422 -0.30614,-0.30614 -0.4422,-0.71433 -0.10205,-0.40819 -0.10205,-0.8504 0,-0.4422 0.10205,-0.85039 0.13606,-0.40819 0.4422,-0.71433 0.30614,-0.30614 0.71433,-0.4422 0.40819,-0.13607 0.85039,-0.13607 0.44221,0 0.8504,0.13607 0.40818,0.13606 0.71433,0.4422 0.30614,0.30614 0.4422,0.71433 0.13606,0.40819 0.13606,0.85039 0,0.44221 -0.13606,0.8504 -0.13606,0.40819 -0.4422,0.71433 -0.30615,0.30614 -0.71433,0.4422 -0.40819,0.10205 -0.8504,0.10205 z m 20.20535,20.95367 q -0.98646,0 -2.00693,-0.17008 -0.98645,-0.17008 -1.87086,-0.61228 -0.88441,-0.44221 -1.63276,-1.15654 -0.71432,-0.71433 -1.19054,-1.59873 -0.44221,-0.88441 -0.61229,-1.87087 -0.17008,-1.02047 -0.17008,-2.00692 v -3.40157 q 0,-0.98646 0.17008,-1.97291 0.17008,-1.02048 0.61229,-1.90488 0.47622,-0.88441 1.19054,-1.59874 0.74835,-0.71433 1.63276,-1.15654 0.88441,-0.4422 1.87086,-0.61228 1.02047,-0.17008 2.00693,-0.17008 0.98645,0 1.97291,0.17008 1.02047,0.17008 1.90488,0.61228 0.88441,0.44221 1.59874,1.15654 0.74834,0.71433 1.19055,1.59874 0.47622,0.8844 0.64629,1.90488 0.17008,0.98645 0.17008,1.97291 v 2.92535 h -12.17762 v 0.47622 q 0,0.6463 0.10205,1.29259 0.10205,0.6463 0.37417,1.22457 0.27213,0.57827 0.71433,1.0885 0.44221,0.47622 1.02047,0.78236 0.57827,0.30614 1.19055,0.44221 0.6463,0.10204 1.2926,0.10204 0.51023,0 0.98645,-0.034 0.51024,-0.034 0.98646,-0.13607 0.47622,-0.13606 0.91842,-0.34015 0.47622,-0.2041 0.8504,-0.51024 0.37417,-0.30614 0.61228,-0.74834 0.23811,-0.44221 0.27212,-0.95244 h 2.78929 q -0.034,0.85039 -0.37417,1.66677 -0.30614,0.78236 -0.88441,1.39464 -0.54425,0.61228 -1.2926,1.05449 -0.71433,0.40819 -1.5307,0.68031 -0.78236,0.23811 -1.63276,0.30614 -0.85039,0.10205 -1.70078,0.10205 z m -4.69417,-10.34077 h 9.38834 v -0.47622 q 0,-0.6463 -0.10205,-1.2926 -0.10205,-0.6463 -0.37417,-1.22457 -0.27213,-0.57826 -0.71433,-1.05448 -0.44221,-0.51024 -1.02048,-0.81638 -0.54425,-0.30614 -1.19054,-0.40819 -0.6463,-0.13606 -1.2926,-0.13606 -0.6463,0 -1.2926,0.13606 -0.6463,0.10205 -1.22456,0.40819 -0.54425,0.30614 -0.98646,0.81638 -0.4422,0.47622 -0.71433,1.05448 -0.27212,0.57827 -0.37417,1.22457 -0.10205,0.6463 -0.10205,1.2926 z"
     id="text22"
     style="font-size:34.0157px;font-family:'Adwaita Mono';-inkscape-font-specification:'Adwaita Mono';fill:#ffffff"
     aria-label="Wyjście" />
  <path
     d="m 114.97702,381.01813 v -1.9578 l 8.70425,-15.55654 h -8.70425 v -1.93134 h 11.21764 v 1.93134 l -8.70426,15.55654 h 8.70426 v 1.9578 z m 20.50395,0.21165 q -0.58205,0 -1.1641,-0.0794 -0.58204,-0.0529 -1.13763,-0.23811 -0.55559,-0.21165 -1.05827,-0.52913 -0.47622,-0.31748 -0.82016,-0.7937 -0.34394,-0.47622 -0.50268,-1.03182 -0.15874,-0.58204 -0.15874,-1.16409 0,-0.74079 0.23811,-1.45512 0.23811,-0.71433 0.71433,-1.24346 0.50268,-0.52914 1.1641,-0.87307 0.66142,-0.3704 1.34929,-0.5556 0.71433,-0.21165 1.42866,-0.29102 0.74079,-0.0794 1.48158,-0.0794 h 2.88378 v -1.05827 q 0,-0.4233 -0.10583,-0.84661 -0.10583,-0.42331 -0.34394,-0.76725 -0.23811,-0.34393 -0.6085,-0.58204 -0.34394,-0.26457 -0.74079,-0.39685 -0.39685,-0.15874 -0.82016,-0.21166 -0.4233,-0.0529 -0.84661,-0.0529 -0.37039,0 -0.76724,0.0265 -0.3704,0.0264 -0.74079,0.13228 -0.34394,0.0794 -0.71433,0.23811 -0.34394,0.13228 -0.63496,0.39685 -0.26457,0.23811 -0.44977,0.58205 -0.15874,0.34393 -0.15874,0.71433 v 0.0265 h -2.16945 v -0.0529 q 0,-0.63496 0.23811,-1.24346 0.23811,-0.63496 0.66142,-1.11118 0.42331,-0.47623 0.9789,-0.79371 0.58205,-0.34393 1.19055,-0.52913 0.63496,-0.1852 1.26992,-0.23811 0.63496,-0.0794 1.29638,-0.0794 0.68787,0 1.37575,0.10583 0.71433,0.0794 1.34929,0.34393 0.66142,0.23811 1.24346,0.66142 0.58205,0.42331 0.95245,1.00536 0.39685,0.58204 0.55559,1.29637 0.15874,0.68788 0.15874,1.37575 v 9.18048 h -2.16945 v -2.40756 q -0.26457,0.63496 -0.74079,1.16409 -0.44976,0.50268 -1.05827,0.84662 -0.58205,0.34393 -1.26992,0.47622 -0.66142,0.13228 -1.34929,0.13228 z m 0.84661,-1.93134 q 0.44977,0 0.89953,-0.0529 0.47622,-0.0794 0.89953,-0.26457 0.42331,-0.1852 0.76724,-0.47622 0.3704,-0.31748 0.58205,-0.71433 0.23811,-0.39685 0.31748,-0.84661 0.10583,-0.47622 0.10583,-0.92599 v -1.19055 h -2.88378 q -0.44977,0 -0.89953,0.0265 -0.42331,0.0265 -0.87307,0.13228 -0.44977,0.0794 -0.87307,0.23811 -0.42331,0.15874 -0.7937,0.42331 -0.34394,0.26456 -0.55559,0.66141 -0.21166,0.39686 -0.21166,0.84662 0,0.39685 0.15874,0.76724 0.15874,0.34394 0.44977,0.60851 0.29102,0.23811 0.63496,0.39685 0.37039,0.13228 0.74078,0.23811 0.39685,0.0794 0.76725,0.10583 0.39685,0.0265 0.76724,0.0265 z m 9.78899,1.71969 v -13.75749 h 2.06362 v 1.3493 q 0.15875,-0.34394 0.39686,-0.63497 0.23811,-0.31748 0.52913,-0.52913 0.31748,-0.21165 0.68787,-0.29102 0.3704,-0.10583 0.76725,-0.10583 0.44976,0 0.87307,0.15874 0.44976,0.13228 0.7937,0.44976 0.34394,0.29103 0.55559,0.71434 0.23811,0.39685 0.37039,0.82015 0.10583,-0.4233 0.31748,-0.82015 0.23812,-0.42331 0.58205,-0.71434 0.34394,-0.31748 0.76725,-0.44976 0.44976,-0.15874 0.89952,-0.15874 0.47622,0 0.89953,0.15874 0.44977,0.13228 0.7937,0.44976 0.34394,0.29103 0.55559,0.71434 0.23811,0.39685 0.34394,0.84661 0.13228,0.42331 0.1852,0.87307 0.0529,0.44976 0.0529,0.92599 v 10.00063 H 156.4876 V 371.0175 q 0,-0.39686 -0.0794,-0.76725 -0.0529,-0.37039 -0.26457,-0.68787 -0.1852,-0.31748 -0.52913,-0.50268 -0.31748,-0.1852 -0.68788,-0.1852 -0.37039,0 -0.71433,0.1852 -0.34393,0.1852 -0.52913,0.50268 -0.1852,0.31748 -0.26457,0.68787 -0.0529,0.37039 -0.0529,0.76725 v 10.00063 h -2.06362 V 371.0175 q 0,-0.39686 -0.0794,-0.76725 -0.0529,-0.37039 -0.23812,-0.68787 -0.18519,-0.31748 -0.52913,-0.50268 -0.34394,-0.1852 -0.71433,-0.1852 -0.37039,0 -0.71433,0.1852 -0.31748,0.1852 -0.52913,0.50268 -0.1852,0.31748 -0.26457,0.68787 -0.0529,0.37039 -0.0529,0.76725 v 10.00063 z m 22.09136,0.21165 q -0.76725,0 -1.56095,-0.13228 -0.76724,-0.13229 -1.45512,-0.47622 -0.68787,-0.34394 -1.26992,-0.89953 -0.55559,-0.55559 -0.92598,-1.24347 -0.34394,-0.68787 -0.47622,-1.45511 -0.13229,-0.79371 -0.13229,-1.56095 v -2.64567 q 0,-0.76724 0.13229,-1.53449 0.13228,-0.7937 0.47622,-1.48157 0.37039,-0.68788 0.92598,-1.24347 0.58205,-0.55559 1.26992,-0.89953 0.68788,-0.34393 1.45512,-0.47622 0.7937,-0.13228 1.56095,-0.13228 0.76724,0 1.53448,0.13228 0.79371,0.13229 1.48158,0.47622 0.68787,0.34394 1.24346,0.89953 0.58205,0.55559 0.92599,1.24347 0.37039,0.68787 0.50268,1.48157 0.13228,0.76725 0.13228,1.53449 v 2.27528 h -9.4715 v 0.37039 q 0,0.50268 0.0794,1.00536 0.0794,0.50267 0.29103,0.95244 0.21165,0.44976 0.55559,0.84661 0.34393,0.37039 0.7937,0.6085 0.44976,0.23812 0.92598,0.34394 0.50268,0.0794 1.00536,0.0794 0.39685,0 0.76724,-0.0265 0.39685,-0.0265 0.76724,-0.10583 0.3704,-0.10583 0.71434,-0.26457 0.37039,-0.15874 0.66141,-0.39685 0.29103,-0.23811 0.47622,-0.58205 0.1852,-0.34393 0.21166,-0.74078 h 2.16945 q -0.0265,0.66141 -0.29103,1.29637 -0.23811,0.60851 -0.68787,1.08473 -0.42331,0.47622 -1.00536,0.82016 -0.55559,0.31748 -1.19055,0.52913 -0.6085,0.1852 -1.26992,0.23811 -0.66142,0.0794 -1.32283,0.0794 z m -3.65103,-8.04284 h 7.30205 v -0.37039 q 0,-0.50268 -0.0794,-1.00535 -0.0794,-0.50268 -0.29102,-0.95245 -0.21166,-0.44976 -0.55559,-0.82015 -0.34394,-0.39685 -0.79371,-0.63496 -0.4233,-0.23811 -0.92598,-0.31748 -0.50268,-0.10583 -1.00535,-0.10583 -0.50268,0 -1.00536,0.10583 -0.50268,0.0794 -0.95244,0.31748 -0.42331,0.23811 -0.76724,0.63496 -0.34394,0.37039 -0.55559,0.82015 -0.21166,0.44977 -0.29103,0.95245 -0.0794,0.50267 -0.0794,1.00535 z m 22.80569,7.83119 -4.47118,-6.00567 -1.74615,1.90488 v 4.10079 h -2.16945 v -19.44568 h 2.16945 v 12.51402 l 6.05859,-6.82583 h 2.77795 l -5.71465,6.27024 5.71465,7.48725 z m 28.94365,0 h -2.19591 v -10.58268 h -3.88914 v -1.93134 h 3.88914 v -2.46047 q 0,-0.60851 0.10583,-1.19056 0.10582,-0.6085 0.37039,-1.13763 0.26457,-0.55559 0.68787,-0.9789 0.42331,-0.42331 0.95245,-0.68788 0.55559,-0.26456 1.13763,-0.37039 0.60851,-0.10583 1.21701,-0.10583 h 2.85733 v 1.93134 h -2.85733 q -0.47622,0 -0.95244,0.1852 -0.47622,0.15874 -0.7937,0.52913 -0.29102,0.3704 -0.42331,0.84662 -0.10582,0.47622 -0.10582,0.9789 v 2.46047 h 5.1326 v 1.93134 h -5.1326 z m 14.41891,0.21165 q -0.58205,0 -1.1641,-0.0794 -0.58204,-0.0529 -1.13763,-0.23811 -0.5556,-0.21165 -1.05827,-0.52913 -0.47622,-0.31748 -0.82016,-0.7937 -0.34394,-0.47622 -0.50268,-1.03182 -0.15874,-0.58204 -0.15874,-1.16409 0,-0.74079 0.23811,-1.45512 0.23811,-0.71433 0.71433,-1.24346 0.50268,-0.52914 1.1641,-0.87307 0.66142,-0.3704 1.34929,-0.5556 0.71433,-0.21165 1.42866,-0.29102 0.74079,-0.0794 1.48158,-0.0794 h 2.88378 v -1.05827 q 0,-0.4233 -0.10583,-0.84661 -0.10583,-0.42331 -0.34394,-0.76725 -0.23811,-0.34393 -0.6085,-0.58204 -0.34394,-0.26457 -0.74079,-0.39685 -0.39685,-0.15874 -0.82016,-0.21166 -0.4233,-0.0529 -0.84661,-0.0529 -0.37039,0 -0.76724,0.0265 -0.3704,0.0264 -0.74079,0.13228 -0.34394,0.0794 -0.71433,0.23811 -0.34394,0.13228 -0.63496,0.39685 -0.26457,0.23811 -0.44977,0.58205 -0.15874,0.34393 -0.15874,0.71433 v 0.0265 h -2.16945 v -0.0529 q 0,-0.63496 0.23811,-1.24346 0.23811,-0.63496 0.66142,-1.11118 0.42331,-0.47623 0.9789,-0.79371 0.58205,-0.34393 1.19055,-0.52913 0.63496,-0.1852 1.26992,-0.23811 0.63496,-0.0794 1.29638,-0.0794 0.68787,0 1.37575,0.10583 0.71433,0.0794 1.34929,0.34393 0.66142,0.23811 1.24346,0.66142 0.58205,0.42331 0.95245,1.00536 0.39685,0.58204 0.55559,1.29637 0.15874,0.68788 0.15874,1.37575 v 9.18048 h -2.16945 v -2.40756 q -0.26457,0.63496 -0.74079,1.16409 -0.44976,0.50268 -1.05827,0.84662 -0.58205,0.34393 -1.26992,0.47622 -0.66142,0.13228 -1.34929,0.13228 z m 0.84661,-1.93134 q 0.44977,0 0.89953,-0.0529 0.47622,-0.0794 0.89953,-0.26457 0.42331,-0.1852 0.76724,-0.47622 0.3704,-0.31748 0.58205,-0.71433 0.23811,-0.39685 0.31748,-0.84661 0.10583,-0.47622 0.10583,-0.92599 v -1.19055 h -2.88378 q -0.44977,0 -0.89953,0.0265 -0.42331,0.0265 -0.87307,0.13228 -0.44977,0.0794 -0.87307,0.23811 -0.42331,0.15874 -0.7937,0.42331 -0.34394,0.26456 -0.55559,0.66141 -0.21166,0.39686 -0.21166,0.84662 0,0.39685 0.15874,0.76724 0.15874,0.34394 0.44977,0.60851 0.29102,0.23811 0.63496,0.39685 0.37039,0.13228 0.74078,0.23811 0.39685,0.0794 0.76725,0.10583 0.39685,0.0265 0.76724,0.0265 z m 10.68852,1.71969 v -1.9578 h 4.44473 v -9.86835 h -2.7515 v -1.93134 h 4.92095 v 11.79969 h 4.02141 v 1.9578 z m 5.47654,-16.08568 q -0.34394,0 -0.66142,-0.0794 -0.31748,-0.10582 -0.55559,-0.34393 -0.23811,-0.23811 -0.34394,-0.55559 -0.0794,-0.31748 -0.0794,-0.66142 0,-0.34394 0.0794,-0.66142 0.10583,-0.31748 0.34394,-0.55559 0.23811,-0.23811 0.55559,-0.34394 0.31748,-0.10582 0.66142,-0.10582 0.34393,0 0.66141,0.10582 0.31749,0.10583 0.5556,0.34394 0.23811,0.23811 0.34393,0.55559 0.10583,0.31748 0.10583,0.66142 0,0.34394 -0.10583,0.66142 -0.10582,0.31748 -0.34393,0.55559 -0.23811,0.23811 -0.5556,0.34393 -0.31748,0.0794 -0.66141,0.0794 z m 20.55686,16.08568 h -2.22236 q -0.58205,0 -1.19055,-0.10583 -0.6085,-0.10583 -1.13764,-0.37039 -0.52913,-0.26457 -0.9789,-0.68788 -0.4233,-0.4233 -0.68787,-0.95244 -0.26457,-0.55559 -0.37039,-1.13764 -0.10583,-0.6085 -0.10583,-1.217 v -13.0167 h -4.20662 v -1.9578 h 6.40253 v 14.9745 q 0,0.50267 0.10582,0.97889 0.13229,0.47622 0.44977,0.84662 0.31748,0.37039 0.76724,0.52913 0.47622,0.15874 0.95244,0.15874 h 2.22236 z m 5.42363,-8.01638 v -1.9578 h 11.21764 v 1.9578 z m 21.4564,8.22803 q -0.63496,0 -1.26992,-0.0529 -0.6085,-0.0529 -1.21701,-0.21166 -0.6085,-0.15874 -1.19055,-0.4233 -0.55559,-0.29103 -1.00535,-0.71433 -0.44977,-0.44977 -0.71433,-1.03182 -0.23811,-0.6085 -0.23811,-1.217 v -0.13229 h 2.16945 v 0.0265 q 0,0.37039 0.18519,0.68787 0.21166,0.31748 0.50268,0.52914 0.29102,0.18519 0.63496,0.31748 0.34394,0.10583 0.68788,0.1852 0.37039,0.0529 0.71433,0.0794 0.37039,0.0265 0.74078,0.0265 0.3704,0 0.71433,-0.0265 0.3704,-0.0265 0.71434,-0.0794 0.37039,-0.0794 0.71433,-0.21166 0.34393,-0.13228 0.63496,-0.34394 0.31748,-0.21165 0.50267,-0.52913 0.1852,-0.34394 0.1852,-0.68787 0,-0.42331 -0.26457,-0.7937 -0.23811,-0.3704 -0.6085,-0.58205 -0.37039,-0.21166 -0.7937,-0.34394 -0.39685,-0.13228 -0.82016,-0.21165 -0.39685,-0.10583 -0.82016,-0.21166 -0.39685,-0.10582 -0.82015,-0.21165 -0.39685,-0.13228 -0.82016,-0.26457 -0.39685,-0.13228 -0.7937,-0.29102 -0.39685,-0.15874 -0.76725,-0.34394 -0.37039,-0.21165 -0.71433,-0.44976 -0.34393,-0.26457 -0.66141,-0.55559 -0.29103,-0.31748 -0.50268,-0.68788 -0.21166,-0.37039 -0.34394,-0.76724 -0.10583,-0.42331 -0.10583,-0.84662 0,-0.6085 0.21166,-1.19055 0.23811,-0.6085 0.66141,-1.05826 0.42331,-0.47623 0.95245,-0.76725 0.55559,-0.31748 1.13763,-0.47622 0.60851,-0.1852 1.21701,-0.23811 0.63496,-0.0794 1.24347,-0.0794 0.6085,0 1.21701,0.0529 0.6085,0.0529 1.19055,0.23811 0.6085,0.15874 1.13763,0.44977 0.5556,0.26456 0.9789,0.71433 0.42331,0.44976 0.66142,1.03181 0.23811,0.55559 0.23811,1.16409 v 0.13229 h -2.16945 v -0.0529 q 0,-0.34393 -0.1852,-0.63496 -0.15874,-0.31748 -0.44976,-0.52913 -0.26457,-0.21165 -0.6085,-0.31748 -0.31748,-0.13228 -0.66142,-0.1852 -0.31748,-0.0794 -0.66142,-0.10582 -0.34394,-0.0265 -0.68787,-0.0265 -0.34394,0 -0.68788,0.0265 -0.34393,0.0264 -0.68787,0.10582 -0.34394,0.0529 -0.68788,0.1852 -0.31748,0.13228 -0.58204,0.37039 -0.26457,0.21166 -0.44977,0.52914 -0.15874,0.31748 -0.15874,0.66141 0,0.42331 0.23811,0.79371 0.26457,0.37039 0.60851,0.58204 0.37039,0.21166 0.76724,0.34394 0.42331,0.10583 0.84662,0.21165 0.4233,0.10583 0.82015,0.21166 0.42331,0.10582 0.82016,0.23811 0.42331,0.10582 0.82016,0.23811 0.39685,0.13228 0.7937,0.29102 0.39685,0.15874 0.76724,0.3704 0.39686,0.18519 0.74079,0.4233 0.34394,0.23811 0.63496,0.55559 0.31748,0.31748 0.52914,0.68788 0.21165,0.34393 0.31748,0.76724 0.13228,0.42331 0.13228,0.84662 0,0.63496 -0.26457,1.24346 -0.23811,0.58205 -0.68787,1.05827 -0.42331,0.44976 -1.00535,0.74079 -0.5556,0.29102 -1.1641,0.47622 -0.6085,0.15874 -1.24346,0.21165 -0.63497,0.0794 -1.26993,0.0794 z m 14.92159,0 q -0.58205,0 -1.1641,-0.0794 -0.58205,-0.0529 -1.13764,-0.23811 -0.55559,-0.21165 -1.05826,-0.52913 -0.47623,-0.31748 -0.82016,-0.7937 -0.34394,-0.47622 -0.50268,-1.03182 -0.15874,-0.58204 -0.15874,-1.16409 0,-0.74079 0.23811,-1.45512 0.23811,-0.71433 0.71433,-1.24346 0.50268,-0.52914 1.1641,-0.87307 0.66141,-0.3704 1.34929,-0.5556 0.71433,-0.21165 1.42866,-0.29102 0.74079,-0.0794 1.48157,-0.0794 h 2.88378 v -1.05827 q 0,-0.4233 -0.10582,-0.84661 -0.10583,-0.42331 -0.34394,-0.76725 -0.23811,-0.34393 -0.6085,-0.58204 -0.34394,-0.26457 -0.74079,-0.39685 -0.39685,-0.15874 -0.82016,-0.21166 -0.42331,-0.0529 -0.84661,-0.0529 -0.3704,0 -0.76725,0.0265 -0.37039,0.0264 -0.74078,0.13228 -0.34394,0.0794 -0.71434,0.23811 -0.34393,0.13228 -0.63496,0.39685 -0.26456,0.23811 -0.44976,0.58205 -0.15874,0.34393 -0.15874,0.71433 v 0.0265 h -2.16945 v -0.0529 q 0,-0.63496 0.23811,-1.24346 0.23811,-0.63496 0.66142,-1.11118 0.42331,-0.47623 0.9789,-0.79371 0.58204,-0.34393 1.19055,-0.52913 0.63496,-0.1852 1.26992,-0.23811 0.63496,-0.0794 1.29638,-0.0794 0.68787,0 1.37575,0.10583 0.71433,0.0794 1.34929,0.34393 0.66141,0.23811 1.24346,0.66142 0.58205,0.42331 0.95244,1.00536 0.39685,0.58204 0.55559,1.29637 0.15874,0.68788 0.15874,1.37575 v 9.18048 h -2.16945 v -2.40756 q -0.26456,0.63496 -0.74078,1.16409 -0.44977,0.50268 -1.05827,0.84662 -0.58205,0.34393 -1.26992,0.47622 -0.66142,0.13228 -1.34929,0.13228 z m 0.84661,-1.93134 q 0.44976,0 0.89953,-0.0529 0.47622,-0.0794 0.89953,-0.26457 0.4233,-0.1852 0.76724,-0.47622 0.37039,-0.31748 0.58205,-0.71433 0.23811,-0.39685 0.31748,-0.84661 0.10582,-0.47622 0.10582,-0.92599 v -1.19055 h -2.88378 q -0.44976,0 -0.89952,0.0265 -0.42331,0.0265 -0.87307,0.13228 -0.44977,0.0794 -0.87308,0.23811 -0.4233,0.15874 -0.7937,0.42331 -0.34393,0.26456 -0.55559,0.66141 -0.21165,0.39686 -0.21165,0.84662 0,0.39685 0.15874,0.76724 0.15874,0.34394 0.44976,0.60851 0.29103,0.23811 0.63496,0.39685 0.3704,0.13228 0.74079,0.23811 0.39685,0.0794 0.76725,0.10583 0.39685,0.0265 0.76724,0.0265 z m 16.48254,1.71969 h -2.1959 v -10.58268 h -3.88914 v -1.93134 h 3.88914 v -2.46047 q 0,-0.60851 0.10582,-1.19056 0.10583,-0.6085 0.3704,-1.13763 0.26456,-0.55559 0.68787,-0.9789 0.42331,-0.42331 0.95244,-0.68788 0.55559,-0.26456 1.13764,-0.37039 0.60851,-0.10583 1.21701,-0.10583 h 2.85732 v 1.93134 h -2.85732 q -0.47622,0 -0.95244,0.1852 -0.47622,0.15874 -0.7937,0.52913 -0.29103,0.3704 -0.42331,0.84662 -0.10583,0.47622 -0.10583,0.9789 v 2.46047 h 5.1326 v 1.93134 h -5.1326 z m 15.39781,0.21165 q -0.76725,0 -1.56095,-0.13228 -0.76724,-0.13229 -1.45512,-0.47622 -0.68787,-0.34394 -1.26992,-0.89953 -0.55559,-0.55559 -0.92598,-1.24347 -0.34394,-0.68787 -0.47622,-1.45511 -0.13229,-0.79371 -0.13229,-1.56095 v -2.64567 q 0,-0.76724 0.13229,-1.53449 0.13228,-0.7937 0.47622,-1.48157 0.37039,-0.68788 0.92598,-1.24347 0.58205,-0.55559 1.26992,-0.89953 0.68788,-0.34393 1.45512,-0.47622 0.7937,-0.13228 1.56095,-0.13228 0.76724,0 1.53448,0.13228 0.79371,0.13229 1.48158,0.47622 0.68787,0.34394 1.24346,0.89953 0.58205,0.55559 0.92599,1.24347 0.37039,0.68787 0.50268,1.48157 0.13228,0.76725 0.13228,1.53449 v 2.27528 h -9.4715 v 0.37039 q 0,0.50268 0.0794,1.00536 0.0794,0.50267 0.29103,0.95244 0.21165,0.44976 0.55559,0.84661 0.34393,0.37039 0.7937,0.6085 0.44976,0.23812 0.92598,0.34394 0.50268,0.0794 1.00536,0.0794 0.39685,0 0.76724,-0.0265 0.39685,-0.0265 0.76724,-0.10583 0.3704,-0.10583 0.71434,-0.26457 0.37039,-0.15874 0.66141,-0.39685 0.29103,-0.23811 0.47622,-0.58205 0.1852,-0.34393 0.21166,-0.74078 h 2.16945 q -0.0265,0.66141 -0.29103,1.29637 -0.23811,0.60851 -0.68787,1.08473 -0.42331,0.47622 -1.00536,0.82016 -0.55559,0.31748 -1.19055,0.52913 -0.6085,0.1852 -1.26992,0.23811 -0.66142,0.0794 -1.32283,0.0794 z m -3.65103,-8.04284 h 7.30205 v -0.37039 q 0,-0.50268 -0.0794,-1.00535 -0.0794,-0.50268 -0.29102,-0.95245 -0.21166,-0.44976 -0.55559,-0.82015 -0.34394,-0.39685 -0.7937,-0.63496 -0.42331,-0.23811 -0.92599,-0.31748 -0.50268,-0.10583 -1.00535,-0.10583 -0.50268,0 -1.00536,0.10583 -0.50268,0.0794 -0.95244,0.31748 -0.42331,0.23811 -0.76724,0.63496 -0.34394,0.37039 -0.55559,0.82015 -0.21166,0.44977 -0.29103,0.95245 -0.0794,0.50267 -0.0794,1.00535 z"
     id="text23"
     style="font-size:26.4567px;font-family:'Adwaita Mono';-inkscape-font-specification:'Adwaita Mono';fill:#ffffff"
     aria-label="Zamek fail-safe" />
  <g
     id="text24"
     style="font-size:11.3386px;font-family:'Adwaita Mono';-inkscape-font-specification:'Adwaita Mono';fill:#ffffff"
     aria-label="(jesteśmy więziniem to,&#10; może być pewna podatność)">
    <path
       d="m 141.5042,394.77116 q -0.53292,-0.24945 -0.9978,-0.60094 -0.46488,-0.3515 -0.85039,-0.79371 -0.38552,-0.43086 -0.68032,-0.92976 -0.28346,-0.51024 -0.46488,-1.06583 -0.17008,-0.55559 -0.24945,-1.13386 -0.0794,-0.57827 -0.0794,-1.15654 0,-0.57826 0.0794,-1.15653 0.0794,-0.57827 0.24945,-1.13386 0.18142,-0.55559 0.46488,-1.05449 0.2948,-0.51024 0.68032,-0.94111 0.38551,-0.4422 0.85039,-0.7937 0.46488,-0.3515 0.9978,-0.60094 l 0.40819,0.74834 q -0.45355,0.22678 -0.8504,0.53292 -0.39685,0.30614 -0.71433,0.69165 -0.31748,0.37418 -0.56693,0.81638 -0.23811,0.44221 -0.38551,0.91843 -0.1474,0.47622 -0.21543,0.97512 -0.0567,0.4989 -0.0567,0.99779 0,0.4989 0.0567,0.9978 0.068,0.4989 0.21543,0.97512 0.1474,0.47622 0.38551,0.91843 0.24945,0.4422 0.56693,0.82771 0.31748,0.37418 0.71433,0.68032 0.39685,0.30614 0.8504,0.53292 z m 2.98205,0.61229 v -0.83906 h 1.4967 q 0.20409,0 0.39685,-0.068 0.2041,-0.068 0.34016,-0.22677 0.13606,-0.15874 0.18142,-0.36284 0.0567,-0.20409 0.0567,-0.41953 v -5.58993 h -1.81418 v -0.82771 h 2.74394 v 6.41764 q 0,0.26079 -0.0454,0.51024 -0.034,0.26079 -0.1474,0.48756 -0.11339,0.23811 -0.30614,0.41953 -0.18142,0.18142 -0.41953,0.2948 -0.22677,0.11339 -0.48756,0.15874 -0.24945,0.0454 -0.4989,0.0454 z m 2.84599,-9.33167 q -0.1474,0 -0.28346,-0.034 -0.13606,-0.0453 -0.23811,-0.1474 -0.10205,-0.10205 -0.1474,-0.23811 -0.034,-0.13606 -0.034,-0.28346 0,-0.14741 0.034,-0.28347 0.0453,-0.13606 0.1474,-0.23811 0.10205,-0.10205 0.23811,-0.1474 0.13606,-0.0454 0.28346,-0.0454 0.14741,0 0.28347,0.0454 0.13606,0.0454 0.23811,0.1474 0.10205,0.10205 0.1474,0.23811 0.0454,0.13606 0.0454,0.28347 0,0.1474 -0.0454,0.28346 -0.0453,0.13606 -0.1474,0.23811 -0.10205,0.10205 -0.23811,0.1474 -0.13606,0.034 -0.28347,0.034 z m 6.17954,6.98458 q -0.32881,0 -0.66897,-0.0567 -0.32882,-0.0567 -0.62363,-0.20409 -0.2948,-0.1474 -0.54425,-0.38551 -0.23811,-0.23811 -0.39685,-0.53292 -0.1474,-0.2948 -0.20409,-0.62362 -0.0567,-0.34016 -0.0567,-0.66898 v -1.13386 q 0,-0.32882 0.0567,-0.65764 0.0567,-0.34015 0.20409,-0.63496 0.15874,-0.2948 0.39685,-0.53291 0.24945,-0.23811 0.54425,-0.38551 0.29481,-0.14741 0.62363,-0.2041 0.34016,-0.0567 0.66897,-0.0567 0.32882,0 0.65764,0.0567 0.34016,0.0567 0.63497,0.2041 0.2948,0.1474 0.53291,0.38551 0.24945,0.23811 0.39685,0.53291 0.15874,0.29481 0.21543,0.63496 0.0567,0.32882 0.0567,0.65764 v 0.97512 h -4.05922 v 0.15874 q 0,0.21544 0.034,0.43087 0.034,0.21543 0.12473,0.40819 0.0907,0.19275 0.23811,0.36283 0.1474,0.15874 0.34016,0.26079 0.19275,0.10205 0.39685,0.1474 0.21543,0.034 0.43086,0.034 0.17008,0 0.32882,-0.0113 0.17008,-0.0113 0.32882,-0.0453 0.15874,-0.0454 0.30615,-0.11339 0.15874,-0.068 0.28346,-0.17008 0.12473,-0.10205 0.2041,-0.24945 0.0794,-0.1474 0.0907,-0.31748 h 0.92977 q -0.0113,0.28347 -0.12473,0.55559 -0.10204,0.26079 -0.2948,0.46489 -0.18142,0.20409 -0.43087,0.35149 -0.23811,0.13606 -0.51023,0.22677 -0.26079,0.0794 -0.54426,0.10205 -0.28346,0.034 -0.56693,0.034 z m -1.56472,-3.44694 h 3.12945 v -0.15874 q 0,-0.21543 -0.034,-0.43086 -0.034,-0.21544 -0.12473,-0.40819 -0.0907,-0.19276 -0.23811,-0.3515 -0.1474,-0.17008 -0.34016,-0.27213 -0.18142,-0.10204 -0.39685,-0.13606 -0.21543,-0.0453 -0.43087,-0.0453 -0.21543,0 -0.43086,0.0453 -0.21544,0.034 -0.40819,0.13606 -0.18142,0.10205 -0.32882,0.27213 -0.1474,0.15874 -0.23811,0.3515 -0.0907,0.19275 -0.12473,0.40819 -0.034,0.21543 -0.034,0.43086 z m 8.35655,3.44694 q -0.27213,0 -0.54425,-0.0227 -0.26079,-0.0227 -0.52158,-0.0907 -0.26079,-0.068 -0.51024,-0.18142 -0.23811,-0.12472 -0.43086,-0.30614 -0.19276,-0.19276 -0.30614,-0.4422 -0.10205,-0.26079 -0.10205,-0.52158 v -0.0567 h 0.92976 v 0.0113 q 0,0.15874 0.0794,0.2948 0.0907,0.13606 0.21544,0.22677 0.12472,0.0794 0.27212,0.13606 0.1474,0.0454 0.29481,0.0794 0.15874,0.0227 0.30614,0.034 0.15874,0.0113 0.31748,0.0113 0.15874,0 0.30614,-0.0113 0.15874,-0.0113 0.30614,-0.034 0.15874,-0.034 0.30615,-0.0907 0.1474,-0.0567 0.27212,-0.14741 0.13607,-0.0907 0.21544,-0.22677 0.0794,-0.1474 0.0794,-0.2948 0,-0.18142 -0.11339,-0.34016 -0.10205,-0.15874 -0.26079,-0.24945 -0.15874,-0.0907 -0.34016,-0.1474 -0.17007,-0.0567 -0.35149,-0.0907 -0.17008,-0.0453 -0.3515,-0.0907 -0.17008,-0.0453 -0.3515,-0.0907 -0.17007,-0.0567 -0.35149,-0.11338 -0.17008,-0.0567 -0.34016,-0.12473 -0.17008,-0.068 -0.32882,-0.1474 -0.15874,-0.0907 -0.30614,-0.19276 -0.1474,-0.11338 -0.28347,-0.23811 -0.12472,-0.13606 -0.21543,-0.2948 -0.0907,-0.15874 -0.1474,-0.32882 -0.0454,-0.18142 -0.0454,-0.36283 0,-0.26079 0.0907,-0.51024 0.10205,-0.26079 0.28347,-0.45355 0.18142,-0.20409 0.40819,-0.32881 0.23811,-0.13607 0.48756,-0.2041 0.26078,-0.0794 0.52157,-0.10205 0.27213,-0.034 0.53292,-0.034 0.26078,0 0.52157,0.0227 0.26079,0.0227 0.51024,0.10205 0.26079,0.068 0.48756,0.19276 0.23811,0.11338 0.41953,0.30614 0.18142,0.19276 0.28346,0.44221 0.10205,0.23811 0.10205,0.49889 v 0.0567 h -0.92977 v -0.0227 q 0,-0.1474 -0.0794,-0.27213 -0.068,-0.13606 -0.19275,-0.22677 -0.11339,-0.0907 -0.26079,-0.13606 -0.13606,-0.0567 -0.28346,-0.0794 -0.13607,-0.034 -0.28347,-0.0454 -0.1474,-0.0113 -0.2948,-0.0113 -0.1474,0 -0.29481,0.0113 -0.1474,0.0113 -0.2948,0.0454 -0.1474,0.0227 -0.2948,0.0794 -0.13607,0.0567 -0.24945,0.15874 -0.11339,0.0907 -0.19276,0.22677 -0.068,0.13606 -0.068,0.28347 0,0.18141 0.10205,0.34015 0.11338,0.15874 0.26078,0.24945 0.15874,0.0907 0.32882,0.1474 0.18142,0.0454 0.36284,0.0907 0.18142,0.0454 0.3515,0.0907 0.18141,0.0454 0.35149,0.10205 0.18142,0.0453 0.3515,0.10205 0.17008,0.0567 0.34016,0.12472 0.17008,0.068 0.32882,0.15874 0.17008,0.0794 0.31748,0.18142 0.1474,0.10205 0.27212,0.23811 0.13607,0.13606 0.22678,0.2948 0.0907,0.14741 0.13606,0.32882 0.0567,0.18142 0.0567,0.36284 0,0.27212 -0.11338,0.53291 -0.10205,0.24945 -0.29481,0.45355 -0.18142,0.19275 -0.43086,0.31748 -0.23812,0.12472 -0.4989,0.20409 -0.26079,0.068 -0.53292,0.0907 -0.27212,0.034 -0.54425,0.034 z m 9.21829,-0.0907 h -1.51938 q -0.26078,0 -0.52157,-0.0454 -0.24945,-0.0453 -0.48756,-0.15874 -0.22677,-0.11338 -0.40819,-0.2948 -0.18142,-0.18142 -0.2948,-0.40819 -0.11339,-0.23811 -0.15874,-0.48756 -0.0454,-0.26079 -0.0454,-0.52158 v -3.15213 h -1.76882 v -0.82771 h 1.76882 v -2.4378 h 0.9411 v 2.4378 h 2.4945 v 0.82771 h -2.4945 v 3.15213 q 0,0.21544 0.0454,0.41953 0.0567,0.2041 0.18142,0.36284 0.13606,0.15874 0.34015,0.22677 0.2041,0.068 0.40819,0.068 h 1.51938 z m 4.39938,0.0907 q -0.32882,0 -0.66898,-0.0567 -0.32882,-0.0567 -0.62362,-0.20409 -0.2948,-0.1474 -0.54425,-0.38551 -0.23811,-0.23811 -0.39686,-0.53292 -0.1474,-0.2948 -0.20409,-0.62362 -0.0567,-0.34016 -0.0567,-0.66898 v -1.13386 q 0,-0.32882 0.0567,-0.65764 0.0567,-0.34015 0.20409,-0.63496 0.15875,-0.2948 0.39686,-0.53291 0.24945,-0.23811 0.54425,-0.38551 0.2948,-0.14741 0.62362,-0.2041 0.34016,-0.0567 0.66898,-0.0567 0.32882,0 0.65764,0.0567 0.34016,0.0567 0.63496,0.2041 0.2948,0.1474 0.53291,0.38551 0.24945,0.23811 0.39685,0.53291 0.15875,0.29481 0.21544,0.63496 0.0567,0.32882 0.0567,0.65764 v 0.97512 h -4.05922 v 0.15874 q 0,0.21544 0.034,0.43087 0.034,0.21543 0.12472,0.40819 0.0907,0.19275 0.23811,0.36283 0.14741,0.15874 0.34016,0.26079 0.19276,0.10205 0.39685,0.1474 0.21544,0.034 0.43087,0.034 0.17008,0 0.32882,-0.0113 0.17008,-0.0113 0.32882,-0.0453 0.15874,-0.0454 0.30614,-0.11339 0.15874,-0.068 0.28347,-0.17008 0.12472,-0.10205 0.20409,-0.24945 0.0794,-0.1474 0.0907,-0.31748 h 0.92976 q -0.0113,0.28347 -0.12472,0.55559 -0.10205,0.26079 -0.2948,0.46489 -0.18142,0.20409 -0.43087,0.35149 -0.23811,0.13606 -0.51024,0.22677 -0.26079,0.0794 -0.54425,0.10205 -0.28347,0.034 -0.56693,0.034 z m -1.56473,-3.44694 h 3.12946 v -0.15874 q 0,-0.21543 -0.034,-0.43086 -0.034,-0.21544 -0.12472,-0.40819 -0.0907,-0.19276 -0.23812,-0.3515 -0.1474,-0.17008 -0.34015,-0.27213 -0.18142,-0.10204 -0.39685,-0.13606 -0.21544,-0.0453 -0.43087,-0.0453 -0.21543,0 -0.43087,0.0453 -0.21543,0.034 -0.40819,0.13606 -0.18141,0.10205 -0.32882,0.27213 -0.1474,0.15874 -0.23811,0.3515 -0.0907,0.19275 -0.12472,0.40819 -0.034,0.21543 -0.034,0.43086 z m 8.35655,3.44694 q -0.27212,0 -0.54425,-0.0227 -0.26079,-0.0227 -0.52158,-0.0907 -0.26078,-0.068 -0.51023,-0.18142 -0.23811,-0.12472 -0.43087,-0.30614 -0.19276,-0.19276 -0.30614,-0.4422 -0.10205,-0.26079 -0.10205,-0.52158 v -0.0567 h 0.92977 v 0.0113 q 0,0.15874 0.0794,0.2948 0.0907,0.13606 0.21543,0.22677 0.12472,0.0794 0.27213,0.13606 0.1474,0.0454 0.2948,0.0794 0.15874,0.0227 0.30614,0.034 0.15874,0.0113 0.31748,0.0113 0.15874,0 0.30614,-0.0113 0.15874,-0.0113 0.30615,-0.034 0.15874,-0.034 0.30614,-0.0907 0.1474,-0.0567 0.27213,-0.14741 0.13606,-0.0907 0.21543,-0.22677 0.0794,-0.1474 0.0794,-0.2948 0,-0.18142 -0.11339,-0.34016 -0.10204,-0.15874 -0.26079,-0.24945 -0.15874,-0.0907 -0.34015,-0.1474 -0.17008,-0.0567 -0.3515,-0.0907 -0.17008,-0.0453 -0.3515,-0.0907 -0.17008,-0.0453 -0.35149,-0.0907 -0.17008,-0.0567 -0.3515,-0.11338 -0.17008,-0.0567 -0.34016,-0.12473 -0.17008,-0.068 -0.32882,-0.1474 -0.15874,-0.0907 -0.30614,-0.19276 -0.1474,-0.11338 -0.28346,-0.23811 -0.12473,-0.13606 -0.21544,-0.2948 -0.0907,-0.15874 -0.1474,-0.32882 -0.0453,-0.18142 -0.0453,-0.36283 0,-0.26079 0.0907,-0.51024 0.10204,-0.26079 0.28346,-0.45355 0.18142,-0.20409 0.40819,-0.32881 0.23811,-0.13607 0.48756,-0.2041 0.26079,-0.0794 0.52158,-0.10205 0.27212,-0.034 0.53291,-0.034 0.26079,0 0.52157,0.0227 0.26079,0.0227 0.51024,0.10205 0.26079,0.068 0.48756,0.19276 0.23811,0.11338 0.41953,0.30614 0.18142,0.19276 0.28346,0.44221 0.10205,0.23811 0.10205,0.49889 v 0.0567 h -0.92976 v -0.0227 q 0,-0.1474 -0.0794,-0.27213 -0.068,-0.13606 -0.19276,-0.22677 -0.11339,-0.0907 -0.26079,-0.13606 -0.13606,-0.0567 -0.28346,-0.0794 -0.13607,-0.034 -0.28347,-0.0454 -0.1474,-0.0113 -0.2948,-0.0113 -0.1474,0 -0.2948,0.0113 -0.14741,0.0113 -0.29481,0.0454 -0.1474,0.0227 -0.2948,0.0794 -0.13606,0.0567 -0.24945,0.15874 -0.11339,0.0907 -0.19276,0.22677 -0.068,0.13606 -0.068,0.28347 0,0.18141 0.10205,0.34015 0.11338,0.15874 0.26079,0.24945 0.15874,0.0907 0.32882,0.1474 0.18141,0.0454 0.36283,0.0907 0.18142,0.0454 0.3515,0.0907 0.18142,0.0454 0.35149,0.10205 0.18142,0.0453 0.3515,0.10205 0.17008,0.0567 0.34016,0.12472 0.17008,0.068 0.32882,0.15874 0.17008,0.0794 0.31748,0.18142 0.1474,0.10205 0.27213,0.23811 0.13606,0.13606 0.22677,0.2948 0.0907,0.14741 0.13606,0.32882 0.0567,0.18142 0.0567,0.36284 0,0.27212 -0.11338,0.53291 -0.10205,0.24945 -0.29481,0.45355 -0.18141,0.19275 -0.43086,0.31748 -0.23811,0.12472 -0.4989,0.20409 -0.26079,0.068 -0.53292,0.0907 -0.27212,0.034 -0.54425,0.034 z m -0.13606,-6.65576 -0.54425,-0.47622 1.49669,-1.6441 0.66898,0.58961 z m 4.286,6.56505 v -5.89607 h 0.88441 v 0.57826 q 0.068,-0.1474 0.17007,-0.27212 0.10205,-0.13606 0.22678,-0.22677 0.13606,-0.0907 0.2948,-0.12473 0.15874,-0.0453 0.32882,-0.0453 0.19276,0 0.37417,0.068 0.19276,0.0567 0.34016,0.19276 0.1474,0.12472 0.23811,0.30614 0.10205,0.17008 0.15874,0.35149 0.0454,-0.18141 0.13607,-0.35149 0.10204,-0.18142 0.24945,-0.30614 0.1474,-0.13607 0.32881,-0.19276 0.19276,-0.068 0.38552,-0.068 0.20409,0 0.38551,0.068 0.19276,0.0567 0.34016,0.19276 0.1474,0.12472 0.23811,0.30614 0.10205,0.17008 0.1474,0.36283 0.0567,0.18142 0.0794,0.37418 0.0227,0.19275 0.0227,0.39685 v 4.28599 h -0.88441 v -4.28599 q 0,-0.17008 -0.034,-0.32882 -0.0227,-0.15874 -0.11339,-0.29481 -0.0794,-0.13606 -0.22677,-0.21543 -0.13606,-0.0794 -0.2948,-0.0794 -0.15874,0 -0.30614,0.0794 -0.1474,0.0794 -0.22678,0.21543 -0.0794,0.13607 -0.11338,0.29481 -0.0227,0.15874 -0.0227,0.32882 v 4.28599 h -0.88441 v -4.28599 q 0,-0.17008 -0.034,-0.32882 -0.0227,-0.15874 -0.10204,-0.29481 -0.0794,-0.13606 -0.22677,-0.21543 -0.14741,-0.0794 -0.30615,-0.0794 -0.15874,0 -0.30614,0.0794 -0.13606,0.0794 -0.22677,0.21543 -0.0794,0.13607 -0.11339,0.29481 -0.0227,0.15874 -0.0227,0.32882 v 4.28599 z m 7.18867,2.4378 v -0.83906 h 0.55559 q 0.17008,0 0.32882,-0.0454 0.15874,-0.034 0.27213,-0.14741 0.12472,-0.10204 0.19276,-0.26078 0.068,-0.1474 0.12472,-0.30615 l 0.31748,-0.87307 -2.12032,-5.86205 h 0.98646 l 1.62142,4.79622 1.62142,-4.79622 h 0.98646 l -2.52851,7.01859 q -0.068,0.19276 -0.1474,0.37417 -0.0794,0.19276 -0.20409,0.3515 -0.12473,0.17008 -0.29481,0.2948 -0.15874,0.12473 -0.35149,0.19276 -0.19276,0.068 -0.39686,0.0794 -0.20409,0.0227 -0.40819,0.0227 z m 17.58618,-2.4378 h -0.85039 l -0.8504,-4.71686 -0.85039,4.71686 h -0.8504 l -1.1452,-5.89607 h 0.89575 l 0.69166,4.61481 0.82772,-4.61481 h 0.86173 l 0.82772,4.61481 0.69165,-4.61481 h 0.89575 z m 2.82332,0 v -0.83906 h 1.90488 v -4.2293 h -1.17921 v -0.82771 h 2.10898 v 5.05701 h 1.72346 v 0.83906 z m 2.34709,-6.89387 q -0.14741,0 -0.28347,-0.034 -0.13606,-0.0453 -0.23811,-0.1474 -0.10205,-0.10205 -0.1474,-0.23811 -0.034,-0.13606 -0.034,-0.28346 0,-0.14741 0.034,-0.28347 0.0454,-0.13606 0.1474,-0.23811 0.10205,-0.10205 0.23811,-0.1474 0.13606,-0.0454 0.28347,-0.0454 0.1474,0 0.28346,0.0454 0.13606,0.0454 0.23811,0.1474 0.10205,0.10205 0.1474,0.23811 0.0454,0.13606 0.0454,0.28347 0,0.1474 -0.0454,0.28346 -0.0454,0.13606 -0.1474,0.23811 -0.10205,0.10205 -0.23811,0.1474 -0.13606,0.034 -0.28346,0.034 z m 8.76474,9.43371 q -0.23812,0 -0.48756,-0.0794 -0.23812,-0.068 -0.43087,-0.22677 -0.18142,-0.1474 -0.29481,-0.37417 -0.10204,-0.22677 -0.10204,-0.46488 0,-0.22678 0.068,-0.44221 0.068,-0.21543 0.18142,-0.40819 0.11338,-0.19276 0.24945,-0.37417 0.13606,-0.18142 0.26078,-0.36284 -0.34015,0.17008 -0.71433,0.22677 -0.37417,0.0567 -0.75968,0.0567 -0.32882,0 -0.66898,-0.0567 -0.32882,-0.0567 -0.62362,-0.20409 -0.29481,-0.1474 -0.54426,-0.38551 -0.23811,-0.23811 -0.39685,-0.53292 -0.1474,-0.2948 -0.20409,-0.62362 -0.0567,-0.34016 -0.0567,-0.66898 v -1.13386 q 0,-0.32882 0.0567,-0.65764 0.0567,-0.34015 0.20409,-0.63496 0.15874,-0.2948 0.39685,-0.53291 0.24945,-0.23811 0.54426,-0.38551 0.2948,-0.14741 0.62362,-0.2041 0.34016,-0.0567 0.66898,-0.0567 0.32882,0 0.65763,0.0567 0.34016,0.0567 0.63497,0.2041 0.2948,0.1474 0.53291,0.38551 0.24945,0.23811 0.39685,0.53291 0.15874,0.29481 0.21543,0.63496 0.0567,0.32882 0.0567,0.65764 v 0.97512 h -4.05922 v 0.15874 q 0,0.21544 0.034,0.43087 0.034,0.21543 0.12473,0.40819 0.0907,0.19275 0.23811,0.36283 0.1474,0.15874 0.34016,0.26079 0.19275,0.10205 0.39685,0.1474 0.21543,0.034 0.43087,0.034 0.17007,0 0.32882,-0.0113 0.17007,-0.0113 0.32881,-0.0453 0.15874,-0.0454 0.30615,-0.11339 0.15874,-0.068 0.28346,-0.17008 0.12473,-0.10205 0.2041,-0.24945 0.0794,-0.1474 0.0907,-0.31748 h 0.92976 q 0,0.19276 -0.0227,0.38551 -0.0227,0.19276 -0.068,0.38552 -0.034,0.18141 -0.10205,0.36283 -0.0567,0.18142 -0.13606,0.36284 -0.0794,0.17008 -0.17008,0.34015 -0.0907,0.17008 -0.17008,0.34016 -0.0794,0.17008 -0.15874,0.3515 -0.0794,0.18142 -0.0794,0.37417 0,0.11339 0.0454,0.21544 0.0567,0.10204 0.13606,0.17008 0.0907,0.068 0.19276,0.0907 0.11338,0.034 0.22677,0.034 0.0794,0 0.15874,-0.0113 0.0794,-0.0113 0.15874,-0.034 v 0.75968 q -0.11339,0.0227 -0.22677,0.034 -0.11339,0.0227 -0.22677,0.0227 z m -3.59434,-5.89607 h 3.12945 v -0.15874 q 0,-0.21543 -0.034,-0.43086 -0.034,-0.21544 -0.12473,-0.40819 -0.0907,-0.19276 -0.23811,-0.3515 -0.1474,-0.17008 -0.34016,-0.27213 -0.18141,-0.10204 -0.39685,-0.13606 -0.21543,-0.0453 -0.43086,-0.0453 -0.21544,0 -0.43087,0.0453 -0.21543,0.034 -0.40819,0.13606 -0.18142,0.10205 -0.32882,0.27213 -0.1474,0.15874 -0.23811,0.3515 -0.0907,0.19275 -0.12473,0.40819 -0.034,0.21543 -0.034,0.43086 z m 5.96411,3.35623 v -0.83906 l 3.75308,-4.2293 h -3.75308 v -0.82771 h 4.80757 v 0.82771 l -3.75308,4.24064 h 3.75308 v 0.82772 z m 6.92789,0 v -0.83906 h 1.90488 v -4.2293 h -1.17921 v -0.82771 h 2.10898 v 5.05701 h 1.72347 v 0.83906 z m 2.34709,-6.89387 q -0.1474,0 -0.28347,-0.034 -0.13606,-0.0453 -0.23811,-0.1474 -0.10204,-0.10205 -0.1474,-0.23811 -0.034,-0.13606 -0.034,-0.28346 0,-0.14741 0.034,-0.28347 0.0454,-0.13606 0.1474,-0.23811 0.10205,-0.10205 0.23811,-0.1474 0.13607,-0.0454 0.28347,-0.0454 0.1474,0 0.28346,0.0454 0.13607,0.0454 0.23811,0.1474 0.10205,0.10205 0.14741,0.23811 0.0453,0.13606 0.0453,0.28347 0,0.1474 -0.0453,0.28346 -0.0454,0.13606 -0.14741,0.23811 -0.10204,0.10205 -0.23811,0.1474 -0.13606,0.034 -0.28346,0.034 z m 4.33135,6.89387 v -5.89607 h 0.94111 v 1.13386 q 0.10204,-0.27213 0.28346,-0.51024 0.18142,-0.23811 0.41953,-0.40819 0.24945,-0.17008 0.53291,-0.23811 0.29481,-0.068 0.60095,-0.068 0.2948,0 0.58961,0.0794 0.30614,0.068 0.55559,0.24945 0.24945,0.17008 0.41953,0.41952 0.18141,0.24945 0.28346,0.53292 0.10205,0.28346 0.13606,0.58961 0.0454,0.2948 0.0454,0.60094 v 3.51497 h -0.9411 v -3.51497 q 0,-0.20409 -0.034,-0.40819 -0.0227,-0.21543 -0.10205,-0.40819 -0.0794,-0.19275 -0.21543,-0.35149 -0.13606,-0.17008 -0.31748,-0.27213 -0.17008,-0.11339 -0.38551,-0.1474 -0.2041,-0.0454 -0.40819,-0.0454 -0.2041,0 -0.41953,0.0454 -0.2041,0.034 -0.38551,0.1474 -0.17008,0.10205 -0.30615,0.27213 -0.13606,0.15874 -0.21543,0.35149 -0.0794,0.19276 -0.11339,0.40819 -0.0227,0.2041 -0.0227,0.40819 v 3.51497 z m 6.92789,0 v -0.83906 h 1.90488 v -4.2293 h -1.17921 v -0.82771 h 2.10898 v 5.05701 h 1.72347 v 0.83906 z m 2.34709,-6.89387 q -0.1474,0 -0.28347,-0.034 -0.13606,-0.0453 -0.23811,-0.1474 -0.10204,-0.10205 -0.1474,-0.23811 -0.034,-0.13606 -0.034,-0.28346 0,-0.14741 0.034,-0.28347 0.0454,-0.13606 0.1474,-0.23811 0.10205,-0.10205 0.23811,-0.1474 0.13607,-0.0454 0.28347,-0.0454 0.1474,0 0.28346,0.0454 0.13607,0.0454 0.23811,0.1474 0.10205,0.10205 0.14741,0.23811 0.0454,0.13606 0.0454,0.28347 0,0.1474 -0.0454,0.28346 -0.0454,0.13606 -0.14741,0.23811 -0.10204,0.10205 -0.23811,0.1474 -0.13606,0.034 -0.28346,0.034 z m 6.73513,6.98458 q -0.32882,0 -0.66898,-0.0567 -0.32882,-0.0567 -0.62362,-0.20409 -0.2948,-0.1474 -0.54425,-0.38551 -0.23811,-0.23811 -0.39686,-0.53292 -0.1474,-0.2948 -0.20409,-0.62362 -0.0567,-0.34016 -0.0567,-0.66898 v -1.13386 q 0,-0.32882 0.0567,-0.65764 0.0567,-0.34015 0.20409,-0.63496 0.15875,-0.2948 0.39686,-0.53291 0.24945,-0.23811 0.54425,-0.38551 0.2948,-0.14741 0.62362,-0.2041 0.34016,-0.0567 0.66898,-0.0567 0.32882,0 0.65764,0.0567 0.34016,0.0567 0.63496,0.2041 0.2948,0.1474 0.53291,0.38551 0.24945,0.23811 0.39685,0.53291 0.15875,0.29481 0.21544,0.63496 0.0567,0.32882 0.0567,0.65764 v 0.97512 h -4.05922 v 0.15874 q 0,0.21544 0.034,0.43087 0.034,0.21543 0.12472,0.40819 0.0907,0.19275 0.23811,0.36283 0.14741,0.15874 0.34016,0.26079 0.19276,0.10205 0.39685,0.1474 0.21544,0.034 0.43087,0.034 0.17008,0 0.32882,-0.0113 0.17008,-0.0113 0.32882,-0.0453 0.15874,-0.0454 0.30614,-0.11339 0.15874,-0.068 0.28347,-0.17008 0.12472,-0.10205 0.20409,-0.24945 0.0794,-0.1474 0.0907,-0.31748 h 0.92976 q -0.0113,0.28347 -0.12472,0.55559 -0.10205,0.26079 -0.2948,0.46489 -0.18142,0.20409 -0.43087,0.35149 -0.23811,0.13606 -0.51024,0.22677 -0.26079,0.0794 -0.54425,0.10205 -0.28347,0.034 -0.56693,0.034 z m -1.56473,-3.44694 h 3.12946 v -0.15874 q 0,-0.21543 -0.034,-0.43086 -0.034,-0.21544 -0.12472,-0.40819 -0.0907,-0.19276 -0.23812,-0.3515 -0.1474,-0.17008 -0.34015,-0.27213 -0.18142,-0.10204 -0.39685,-0.13606 -0.21544,-0.0453 -0.43087,-0.0453 -0.21543,0 -0.43087,0.0453 -0.21543,0.034 -0.40819,0.13606 -0.18141,0.10205 -0.32882,0.27213 -0.1474,0.15874 -0.23811,0.3515 -0.0907,0.19275 -0.12472,0.40819 -0.034,0.21543 -0.034,0.43086 z m 5.70333,3.35623 v -5.89607 h 0.88441 v 0.57826 q 0.068,-0.1474 0.17008,-0.27212 0.10204,-0.13606 0.22677,-0.22677 0.13606,-0.0907 0.2948,-0.12473 0.15874,-0.0453 0.32882,-0.0453 0.19276,0 0.37418,0.068 0.19275,0.0567 0.34015,0.19276 0.14741,0.12472 0.23811,0.30614 0.10205,0.17008 0.15874,0.35149 0.0454,-0.18141 0.13607,-0.35149 0.10205,-0.18142 0.24945,-0.30614 0.1474,-0.13607 0.32882,-0.19276 0.19275,-0.068 0.38551,-0.068 0.20409,0 0.38551,0.068 0.19276,0.0567 0.34016,0.19276 0.1474,0.12472 0.23811,0.30614 0.10205,0.17008 0.1474,0.36283 0.0567,0.18142 0.0794,0.37418 0.0227,0.19275 0.0227,0.39685 v 4.28599 h -0.88441 v -4.28599 q 0,-0.17008 -0.034,-0.32882 -0.0227,-0.15874 -0.11338,-0.29481 -0.0794,-0.13606 -0.22678,-0.21543 -0.13606,-0.0794 -0.2948,-0.0794 -0.15874,0 -0.30614,0.0794 -0.1474,0.0794 -0.22677,0.21543 -0.0794,0.13607 -0.11339,0.29481 -0.0227,0.15874 -0.0227,0.32882 v 4.28599 h -0.88441 v -4.28599 q 0,-0.17008 -0.034,-0.32882 -0.0227,-0.15874 -0.10205,-0.29481 -0.0794,-0.13606 -0.22677,-0.21543 -0.1474,-0.0794 -0.30614,-0.0794 -0.15874,0 -0.30615,0.0794 -0.13606,0.0794 -0.22677,0.21543 -0.0794,0.13607 -0.11338,0.29481 -0.0227,0.15874 -0.0227,0.32882 v 4.28599 z m 18.67468,0 h -1.51937 q -0.26079,0 -0.52158,-0.0454 -0.24944,-0.0453 -0.48756,-0.15874 -0.22677,-0.11338 -0.40818,-0.2948 -0.18142,-0.18142 -0.29481,-0.40819 -0.11338,-0.23811 -0.15874,-0.48756 -0.0453,-0.26079 -0.0453,-0.52158 v -3.15213 h -1.76883 v -0.82771 h 1.76883 v -2.4378 h 0.9411 v 2.4378 h 2.49449 v 0.82771 h -2.49449 v 3.15213 q 0,0.21544 0.0453,0.41953 0.0567,0.2041 0.18142,0.36284 0.13607,0.15874 0.34016,0.22677 0.2041,0.068 0.40819,0.068 h 1.51937 z m 4.39938,0.0907 q -0.32882,0 -0.66898,-0.0567 -0.32882,-0.0567 -0.62362,-0.20409 -0.2948,-0.1474 -0.54425,-0.38551 -0.23811,-0.23811 -0.39685,-0.53292 -0.14741,-0.2948 -0.2041,-0.62362 -0.0567,-0.34016 -0.0567,-0.66898 v -1.13386 q 0,-0.32882 0.0567,-0.65764 0.0567,-0.34015 0.2041,-0.63496 0.15874,-0.2948 0.39685,-0.53291 0.24945,-0.23811 0.54425,-0.38551 0.2948,-0.14741 0.62362,-0.2041 0.34016,-0.0567 0.66898,-0.0567 0.32882,0 0.65764,0.0567 0.34016,0.0567 0.63496,0.2041 0.2948,0.1474 0.53292,0.38551 0.24944,0.23811 0.39685,0.53291 0.15874,0.29481 0.21543,0.63496 0.0567,0.32882 0.0567,0.65764 v 1.13386 q 0,0.32882 -0.0567,0.66898 -0.0567,0.32882 -0.21543,0.62362 -0.14741,0.29481 -0.39685,0.53292 -0.23812,0.23811 -0.53292,0.38551 -0.2948,0.1474 -0.63496,0.20409 -0.32882,0.0567 -0.65764,0.0567 z m 0,-0.83906 q 0.21543,0 0.41953,-0.034 0.21543,-0.0453 0.40819,-0.1474 0.19275,-0.10204 0.32882,-0.26078 0.1474,-0.15875 0.23811,-0.3515 0.0907,-0.2041 0.12472,-0.40819 0.034,-0.21543 0.034,-0.43087 v -1.13386 q 0,-0.21543 -0.034,-0.41953 -0.034,-0.21543 -0.12472,-0.40819 -0.0907,-0.20409 -0.23811,-0.36283 -0.13607,-0.15874 -0.32882,-0.26079 -0.19276,-0.10205 -0.40819,-0.13606 -0.2041,-0.0454 -0.41953,-0.0454 -0.21543,0 -0.43087,0.0454 -0.20409,0.034 -0.39685,0.13606 -0.19275,0.10205 -0.34015,0.26079 -0.13607,0.15874 -0.22678,0.36283 -0.0907,0.19276 -0.12472,0.40819 -0.034,0.2041 -0.034,0.41953 v 1.13386 q 0,0.21544 0.034,0.43087 0.034,0.20409 0.12472,0.40819 0.0907,0.19275 0.22678,0.3515 0.1474,0.15874 0.34015,0.26078 0.19276,0.10205 0.39685,0.1474 0.21544,0.034 0.43087,0.034 z m 6.40631,3.18615 -0.68031,-0.51024 q 0.36283,-0.40819 0.65763,-0.86173 0.30615,-0.45355 0.45355,-0.97512 h -0.0454 q -0.17008,0 -0.35149,-0.0567 -0.17008,-0.0567 -0.29481,-0.18141 -0.12472,-0.12473 -0.18141,-0.29481 -0.0454,-0.17008 -0.0454,-0.35149 0,-0.18142 0.0454,-0.3515 0.0567,-0.17008 0.18141,-0.2948 0.13607,-0.13607 0.30615,-0.18142 0.17007,-0.0567 0.35149,-0.0567 0.18142,0 0.36284,0.0567 0.18142,0.0567 0.30614,0.19275 0.12472,0.12473 0.17008,0.30615 0.0453,0.18141 0.0453,0.36283 0,0.44221 -0.10204,0.87307 -0.10205,0.43087 -0.27213,0.82772 -0.17008,0.40819 -0.40819,0.78237 -0.22677,0.37417 -0.4989,0.71433 z"
       id="path1" />
    <path
       d="m 144.04405,407.1189 v -5.89607 h 0.88441 v 0.57826 q 0.068,-0.1474 0.17008,-0.27212 0.10205,-0.13606 0.22677,-0.22677 0.13606,-0.0907 0.2948,-0.12473 0.15875,-0.0454 0.32882,-0.0454 0.19276,0 0.37418,0.068 0.19275,0.0567 0.34016,0.19276 0.1474,0.12472 0.23811,0.30614 0.10204,0.17008 0.15874,0.35149 0.0453,-0.18141 0.13606,-0.35149 0.10205,-0.18142 0.24945,-0.30614 0.1474,-0.13607 0.32882,-0.19276 0.19275,-0.068 0.38551,-0.068 0.2041,0 0.38551,0.068 0.19276,0.0567 0.34016,0.19276 0.1474,0.12472 0.23811,0.30614 0.10205,0.17008 0.1474,0.36283 0.0567,0.18142 0.0794,0.37418 0.0227,0.19275 0.0227,0.39685 v 4.28599 h -0.88441 v -4.28599 q 0,-0.17008 -0.034,-0.32882 -0.0227,-0.15874 -0.11338,-0.29481 -0.0794,-0.13606 -0.22677,-0.21543 -0.13607,-0.0794 -0.29481,-0.0794 -0.15874,0 -0.30614,0.0794 -0.1474,0.0794 -0.22677,0.21543 -0.0794,0.13607 -0.11339,0.29481 -0.0227,0.15874 -0.0227,0.32882 v 4.28599 h -0.88442 v -4.28599 q 0,-0.17008 -0.034,-0.32882 -0.0227,-0.15874 -0.10205,-0.29481 -0.0794,-0.13606 -0.22677,-0.21543 -0.1474,-0.0794 -0.30614,-0.0794 -0.15874,0 -0.30614,0.0794 -0.13607,0.0794 -0.22678,0.21543 -0.0794,0.13607 -0.11338,0.29481 -0.0227,0.15874 -0.0227,0.32882 v 4.28599 z m 9.46773,0.0907 q -0.32881,0 -0.66897,-0.0567 -0.32882,-0.0567 -0.62363,-0.20409 -0.2948,-0.1474 -0.54425,-0.38551 -0.23811,-0.23811 -0.39685,-0.53292 -0.1474,-0.2948 -0.20409,-0.62362 -0.0567,-0.34016 -0.0567,-0.66898 v -1.13386 q 0,-0.32882 0.0567,-0.65764 0.0567,-0.34015 0.20409,-0.63496 0.15874,-0.2948 0.39685,-0.53291 0.24945,-0.23811 0.54425,-0.38551 0.29481,-0.14741 0.62363,-0.2041 0.34016,-0.0567 0.66897,-0.0567 0.32882,0 0.65764,0.0567 0.34016,0.0567 0.63497,0.2041 0.2948,0.1474 0.53291,0.38551 0.24945,0.23811 0.39685,0.53291 0.15874,0.29481 0.21543,0.63496 0.0567,0.32882 0.0567,0.65764 v 1.13386 q 0,0.32882 -0.0567,0.66898 -0.0567,0.32882 -0.21543,0.62362 -0.1474,0.29481 -0.39685,0.53292 -0.23811,0.23811 -0.53291,0.38551 -0.29481,0.1474 -0.63497,0.20409 -0.32882,0.0567 -0.65764,0.0567 z m 0,-0.83906 q 0.21544,0 0.41953,-0.034 0.21544,-0.0453 0.40819,-0.1474 0.19276,-0.10204 0.32882,-0.26078 0.1474,-0.15875 0.23811,-0.3515 0.0907,-0.2041 0.12473,-0.40819 0.034,-0.21543 0.034,-0.43087 v -1.13386 q 0,-0.21543 -0.034,-0.41953 -0.034,-0.21543 -0.12473,-0.40819 -0.0907,-0.20409 -0.23811,-0.36283 -0.13606,-0.15874 -0.32882,-0.26079 -0.19275,-0.10205 -0.40819,-0.13606 -0.20409,-0.0454 -0.41953,-0.0454 -0.21543,0 -0.43086,0.0454 -0.2041,0.034 -0.39685,0.13606 -0.19276,0.10205 -0.34016,0.26079 -0.13606,0.15874 -0.22677,0.36283 -0.0907,0.19276 -0.12473,0.40819 -0.034,0.2041 -0.034,0.41953 v 1.13386 q 0,0.21544 0.034,0.43087 0.034,0.20409 0.12473,0.40819 0.0907,0.19275 0.22677,0.3515 0.1474,0.15874 0.34016,0.26078 0.19275,0.10205 0.39685,0.1474 0.21543,0.034 0.43086,0.034 z m 4.39939,0.74835 v -0.83906 l 3.75307,-4.2293 h -3.75307 v -0.82771 h 4.80756 v 0.82771 l -3.75308,4.24064 h 3.75308 v 0.82772 z m 2.40378,-6.89387 q -0.1474,0 -0.28347,-0.034 -0.13606,-0.0453 -0.23811,-0.1474 -0.10204,-0.10205 -0.1474,-0.23811 -0.034,-0.13606 -0.034,-0.28346 0,-0.14741 0.034,-0.28347 0.0454,-0.13606 0.1474,-0.23811 0.10205,-0.10205 0.23811,-0.1474 0.13607,-0.0454 0.28347,-0.0454 0.1474,0 0.28346,0.0454 0.13607,0.0453 0.23811,0.1474 0.10205,0.10205 0.14741,0.23811 0.0454,0.13606 0.0454,0.28347 0,0.1474 -0.0454,0.28346 -0.0454,0.13606 -0.14741,0.23811 -0.10204,0.10205 -0.23811,0.1474 -0.13606,0.034 -0.28346,0.034 z m 6.80316,6.98458 q -0.32882,0 -0.66897,-0.0567 -0.32882,-0.0567 -0.62363,-0.20409 -0.2948,-0.1474 -0.54425,-0.38551 -0.23811,-0.23811 -0.39685,-0.53292 -0.1474,-0.2948 -0.2041,-0.62362 -0.0567,-0.34016 -0.0567,-0.66898 v -1.13386 q 0,-0.32882 0.0567,-0.65764 0.0567,-0.34015 0.2041,-0.63496 0.15874,-0.2948 0.39685,-0.53291 0.24945,-0.23811 0.54425,-0.38551 0.29481,-0.14741 0.62363,-0.2041 0.34015,-0.0567 0.66897,-0.0567 0.32882,0 0.65764,0.0567 0.34016,0.0567 0.63496,0.2041 0.29481,0.1474 0.53292,0.38551 0.24945,0.23811 0.39685,0.53291 0.15874,0.29481 0.21543,0.63496 0.0567,0.32882 0.0567,0.65764 v 0.97512 h -4.05922 v 0.15874 q 0,0.21544 0.034,0.43087 0.034,0.21543 0.12473,0.40819 0.0907,0.19275 0.23811,0.36283 0.1474,0.15874 0.34016,0.26079 0.19275,0.10205 0.39685,0.1474 0.21543,0.034 0.43086,0.034 0.17008,0 0.32882,-0.0113 0.17008,-0.0113 0.32882,-0.0453 0.15874,-0.0454 0.30614,-0.11339 0.15875,-0.068 0.28347,-0.17008 0.12472,-0.10205 0.20409,-0.24945 0.0794,-0.1474 0.0907,-0.31748 h 0.92977 q -0.0113,0.28347 -0.12473,0.55559 -0.10204,0.26079 -0.2948,0.46489 -0.18142,0.20409 -0.43087,0.35149 -0.23811,0.13607 -0.51023,0.22677 -0.26079,0.0794 -0.54426,0.10205 -0.28346,0.034 -0.56693,0.034 z m -1.56472,-3.44694 h 3.12945 v -0.15874 q 0,-0.21543 -0.034,-0.43086 -0.034,-0.21544 -0.12472,-0.40819 -0.0907,-0.19276 -0.23811,-0.3515 -0.1474,-0.17008 -0.34016,-0.27213 -0.18142,-0.10204 -0.39685,-0.13606 -0.21543,-0.0454 -0.43087,-0.0454 -0.21543,0 -0.43086,0.0454 -0.21544,0.034 -0.40819,0.13606 -0.18142,0.10205 -0.32882,0.27213 -0.1474,0.15874 -0.23811,0.3515 -0.0907,0.19275 -0.12473,0.40819 -0.034,0.21543 -0.034,0.43086 z m 15.59058,3.44694 q -0.30614,0 -0.61229,-0.068 -0.2948,-0.068 -0.54425,-0.23812 -0.24945,-0.17007 -0.4422,-0.40818 -0.18142,-0.24945 -0.28347,-0.52158 v 1.1452 h -0.9411 v -8.33387 h 0.9411 v 3.58299 q 0.10205,-0.27212 0.28347,-0.51023 0.19275,-0.24945 0.4422,-0.41953 0.24945,-0.17008 0.54425,-0.23811 0.30615,-0.068 0.61229,-0.068 0.30614,0 0.60094,0.0794 0.30615,0.068 0.5556,0.23811 0.24945,0.17008 0.43086,0.41953 0.19276,0.24945 0.29481,0.53291 0.11338,0.28347 0.1474,0.58961 0.0454,0.30614 0.0454,0.61228 v 1.13386 q 0,0.30614 -0.0454,0.61229 -0.034,0.30614 -0.1474,0.5896 -0.10205,0.28347 -0.29481,0.53292 -0.18141,0.24945 -0.43086,0.41953 -0.24945,0.17008 -0.5556,0.23811 -0.2948,0.0794 -0.60094,0.0794 z m -0.37417,-0.83906 q 0.21543,0 0.41952,-0.034 0.21544,-0.0453 0.39685,-0.1474 0.18142,-0.11338 0.31749,-0.27212 0.1474,-0.15874 0.22677,-0.3515 0.0907,-0.19276 0.11338,-0.39685 0.034,-0.21543 0.034,-0.43087 v -1.13386 q 0,-0.21543 -0.034,-0.41953 -0.0227,-0.21543 -0.11338,-0.40819 -0.0794,-0.19275 -0.22677,-0.35149 -0.13607,-0.15874 -0.31749,-0.26079 -0.18141,-0.11339 -0.39685,-0.1474 -0.20409,-0.0454 -0.41952,-0.0454 -0.21544,0 -0.43087,0.0454 -0.2041,0.034 -0.38551,0.1474 -0.18142,0.10205 -0.32882,0.26079 -0.13607,0.15874 -0.22678,0.35149 -0.0794,0.19276 -0.11338,0.40819 -0.0227,0.2041 -0.0227,0.41953 v 1.13386 q 0,0.21544 0.0227,0.43087 0.034,0.20409 0.11338,0.39685 0.0907,0.19276 0.22678,0.3515 0.1474,0.15874 0.32882,0.27212 0.18141,0.10205 0.38551,0.1474 0.21543,0.034 0.43087,0.034 z m 4.47875,3.18615 v -0.83906 h 0.55559 q 0.17008,0 0.32882,-0.0454 0.15874,-0.034 0.27212,-0.14741 0.12473,-0.10204 0.19276,-0.26078 0.068,-0.1474 0.12473,-0.30615 l 0.31748,-0.87307 -2.12032,-5.86205 h 0.98646 l 1.62142,4.79622 1.62142,-4.79622 h 0.98645 l -2.5285,7.01859 q -0.068,0.19276 -0.14741,0.37417 -0.0794,0.19276 -0.20409,0.3515 -0.12472,0.17008 -0.2948,0.2948 -0.15874,0.12473 -0.3515,0.19276 -0.19276,0.068 -0.39685,0.0794 -0.2041,0.0227 -0.40819,0.0227 z m 9.04821,-2.34709 q -0.32882,0 -0.65764,-0.0567 -0.32882,-0.0567 -0.62363,-0.20409 -0.2948,-0.15874 -0.53291,-0.39685 -0.23811,-0.23811 -0.38551,-0.53292 -0.1474,-0.2948 -0.2041,-0.62362 -0.0567,-0.32882 -0.0567,-0.65764 v -1.13386 q 0,-0.32882 0.0567,-0.65764 0.0567,-0.32882 0.2041,-0.62362 0.1474,-0.2948 0.38551,-0.53291 0.23811,-0.23811 0.53291,-0.38552 0.29481,-0.15874 0.62363,-0.21543 0.32882,-0.0567 0.65764,-0.0567 0.30614,0 0.60094,0.0454 0.30614,0.034 0.58961,0.15874 0.28346,0.11339 0.52157,0.30614 0.24945,0.18142 0.40819,0.44221 0.17008,0.24945 0.24945,0.54425 0.0907,0.29481 0.0907,0.60095 v 0.034 h -0.9411 v -0.0227 q 0,-0.28347 -0.12473,-0.54426 -0.11338,-0.26078 -0.34015,-0.43086 -0.21544,-0.17008 -0.4989,-0.22677 -0.27213,-0.068 -0.55559,-0.068 -0.2041,0 -0.41953,0.0454 -0.21544,0.034 -0.39685,0.13606 -0.18142,0.10205 -0.32882,0.27213 -0.13607,0.15874 -0.22677,0.35149 -0.0907,0.19276 -0.12473,0.40819 -0.0227,0.2041 -0.0227,0.41953 v 1.13386 q 0,0.21544 0.0227,0.43087 0.034,0.20409 0.12473,0.39685 0.0907,0.19276 0.22677,0.36284 0.1474,0.15874 0.32882,0.26078 0.18141,0.10205 0.39685,0.1474 0.21543,0.034 0.41953,0.034 0.28346,0 0.55559,-0.0567 0.28346,-0.068 0.4989,-0.23811 0.22677,-0.17008 0.34015,-0.43087 0.12473,-0.26079 0.12473,-0.54425 v -0.0227 h 0.9411 v 0.034 q 0,0.30614 -0.0907,0.60094 -0.0794,0.29481 -0.24945,0.55559 -0.15874,0.24945 -0.40819,0.44221 -0.23811,0.18142 -0.52157,0.30614 -0.28347,0.11339 -0.58961,0.1474 -0.2948,0.0454 -0.60094,0.0454 z m -0.11339,-6.65576 -0.54425,-0.47622 1.49669,-1.6441 0.66898,0.58961 z m 11.34995,9.00285 v -8.33387 h 0.9411 v 1.14519 q 0.10205,-0.27212 0.28347,-0.51023 0.19275,-0.24945 0.4422,-0.41953 0.24945,-0.17008 0.54426,-0.23811 0.30614,-0.068 0.61228,-0.068 0.30614,0 0.60095,0.0794 0.30614,0.068 0.55559,0.23811 0.24945,0.17008 0.43086,0.41953 0.19276,0.24945 0.29481,0.53291 0.11338,0.28347 0.1474,0.58961 0.0454,0.30614 0.0454,0.61228 v 1.13386 q 0,0.30614 -0.0454,0.61229 -0.034,0.30614 -0.1474,0.5896 -0.10205,0.28347 -0.29481,0.53292 -0.18141,0.24945 -0.43086,0.41953 -0.24945,0.17008 -0.55559,0.23811 -0.29481,0.0794 -0.60095,0.0794 -0.30614,0 -0.61228,-0.068 -0.29481,-0.068 -0.54426,-0.23812 -0.24945,-0.17007 -0.4422,-0.40818 -0.18142,-0.24945 -0.28347,-0.52158 v 3.583 z m 2.44914,-3.18615 q 0.21543,0 0.41953,-0.034 0.21543,-0.0453 0.39685,-0.1474 0.18141,-0.11338 0.31748,-0.27212 0.1474,-0.15874 0.22677,-0.3515 0.0907,-0.19276 0.11338,-0.39685 0.034,-0.21543 0.034,-0.43087 v -1.13386 q 0,-0.21543 -0.034,-0.41953 -0.0227,-0.21543 -0.11338,-0.40819 -0.0794,-0.19275 -0.22677,-0.35149 -0.13607,-0.15874 -0.31748,-0.26079 -0.18142,-0.11339 -0.39685,-0.1474 -0.2041,-0.0454 -0.41953,-0.0454 -0.21544,0 -0.43087,0.0454 -0.20409,0.034 -0.38551,0.1474 -0.18142,0.10205 -0.32882,0.26079 -0.13606,0.15874 -0.22677,0.35149 -0.0794,0.19276 -0.11339,0.40819 -0.0227,0.2041 -0.0227,0.41953 v 1.13386 q 0,0.21544 0.0227,0.43087 0.034,0.20409 0.11339,0.39685 0.0907,0.19276 0.22677,0.3515 0.1474,0.15874 0.32882,0.27212 0.18142,0.10205 0.38551,0.1474 0.21543,0.034 0.43087,0.034 z m 6.7578,0.83906 q -0.32882,0 -0.66897,-0.0567 -0.32882,-0.0567 -0.62363,-0.20409 -0.2948,-0.1474 -0.54425,-0.38551 -0.23811,-0.23811 -0.39685,-0.53292 -0.1474,-0.2948 -0.20409,-0.62362 -0.0567,-0.34016 -0.0567,-0.66898 v -1.13386 q 0,-0.32882 0.0567,-0.65764 0.0567,-0.34015 0.20409,-0.63496 0.15874,-0.2948 0.39685,-0.53291 0.24945,-0.23811 0.54425,-0.38551 0.29481,-0.14741 0.62363,-0.2041 0.34015,-0.0567 0.66897,-0.0567 0.32882,0 0.65764,0.0567 0.34016,0.0567 0.63496,0.2041 0.29481,0.1474 0.53292,0.38551 0.24945,0.23811 0.39685,0.53291 0.15874,0.29481 0.21543,0.63496 0.0567,0.32882 0.0567,0.65764 v 0.97512 h -4.05922 v 0.15874 q 0,0.21544 0.034,0.43087 0.034,0.21543 0.12473,0.40819 0.0907,0.19275 0.23811,0.36283 0.1474,0.15874 0.34016,0.26079 0.19275,0.10205 0.39685,0.1474 0.21543,0.034 0.43086,0.034 0.17008,0 0.32882,-0.0113 0.17008,-0.0113 0.32882,-0.0453 0.15874,-0.0454 0.30615,-0.11339 0.15874,-0.068 0.28346,-0.17008 0.12472,-0.10205 0.20409,-0.24945 0.0794,-0.1474 0.0907,-0.31748 h 0.92977 q -0.0113,0.28347 -0.12473,0.55559 -0.10204,0.26079 -0.2948,0.46489 -0.18142,0.20409 -0.43087,0.35149 -0.23811,0.13607 -0.51023,0.22677 -0.26079,0.0794 -0.54426,0.10205 -0.28346,0.034 -0.56693,0.034 z m -1.56472,-3.44694 h 3.12945 v -0.15874 q 0,-0.21543 -0.034,-0.43086 -0.034,-0.21544 -0.12473,-0.40819 -0.0907,-0.19276 -0.23811,-0.3515 -0.1474,-0.17008 -0.34016,-0.27213 -0.18142,-0.10204 -0.39685,-0.13606 -0.21543,-0.0454 -0.43087,-0.0454 -0.21543,0 -0.43086,0.0454 -0.21544,0.034 -0.40819,0.13606 -0.18142,0.10205 -0.32882,0.27213 -0.1474,0.15874 -0.23811,0.3515 -0.0907,0.19275 -0.12473,0.40819 -0.034,0.21543 -0.034,0.43086 z m 10.06868,3.35623 h -0.8504 l -0.85039,-4.71686 -0.8504,4.71686 h -0.85039 l -1.1452,-5.89607 h 0.89575 l 0.69165,4.61481 0.82772,-4.61481 h 0.86173 l 0.82772,4.61481 0.69165,-4.61481 h 0.89575 z m 2.69859,0 v -5.89607 h 0.94111 v 1.13386 q 0.10204,-0.27213 0.28346,-0.51024 0.18142,-0.23811 0.41953,-0.40819 0.24945,-0.17008 0.53291,-0.23811 0.29481,-0.068 0.60095,-0.068 0.2948,0 0.58961,0.0794 0.30614,0.068 0.55559,0.24945 0.24945,0.17008 0.41953,0.41953 0.18141,0.24944 0.28346,0.53291 0.10205,0.28346 0.13606,0.58961 0.0454,0.2948 0.0454,0.60094 v 3.51497 h -0.94111 v -3.51497 q 0,-0.20409 -0.034,-0.40819 -0.0227,-0.21543 -0.10205,-0.40819 -0.0794,-0.19275 -0.21543,-0.35149 -0.13607,-0.17008 -0.31748,-0.27213 -0.17008,-0.11339 -0.38552,-0.1474 -0.20409,-0.0454 -0.40818,-0.0454 -0.2041,0 -0.41953,0.0454 -0.2041,0.034 -0.38552,0.1474 -0.17007,0.10205 -0.30614,0.27213 -0.13606,0.15874 -0.21543,0.35149 -0.0794,0.19276 -0.11339,0.40819 -0.0227,0.2041 -0.0227,0.40819 v 3.51497 z m 8.78742,0.0907 q -0.24945,0 -0.4989,-0.034 -0.24945,-0.0227 -0.48756,-0.10205 -0.23811,-0.0907 -0.45354,-0.22677 -0.2041,-0.13606 -0.3515,-0.34016 -0.1474,-0.20409 -0.21543,-0.4422 -0.068,-0.24945 -0.068,-0.4989 0,-0.31748 0.10205,-0.62362 0.10205,-0.30615 0.30614,-0.53292 0.21544,-0.22677 0.4989,-0.37417 0.28347,-0.15874 0.57827,-0.23811 0.30614,-0.0907 0.61229,-0.12473 0.31748,-0.034 0.63496,-0.034 h 1.2359 v -0.45355 q 0,-0.18141 -0.0454,-0.36283 -0.0453,-0.18142 -0.1474,-0.32882 -0.10205,-0.1474 -0.26079,-0.24945 -0.1474,-0.11339 -0.31748,-0.17008 -0.17008,-0.068 -0.3515,-0.0907 -0.18141,-0.0227 -0.36283,-0.0227 -0.15874,0 -0.32882,0.0113 -0.15874,0.0113 -0.31748,0.0567 -0.1474,0.034 -0.30614,0.10204 -0.14741,0.0567 -0.27213,0.17008 -0.11339,0.10205 -0.19276,0.24945 -0.068,0.1474 -0.068,0.30614 v 0.0113 h -0.92976 v -0.0227 q 0,-0.27213 0.10204,-0.53292 0.10205,-0.27212 0.28347,-0.47622 0.18142,-0.20409 0.41953,-0.34016 0.24945,-0.1474 0.51023,-0.22677 0.27213,-0.0794 0.54426,-0.10205 0.27212,-0.034 0.55559,-0.034 0.2948,0 0.58961,0.0454 0.30614,0.034 0.57826,0.1474 0.28347,0.10205 0.53292,0.28347 0.24945,0.18142 0.40819,0.43087 0.17008,0.24944 0.23811,0.55559 0.068,0.2948 0.068,0.5896 v 3.9345 h -0.92977 v -1.03181 q -0.11338,0.27212 -0.31748,0.49889 -0.19275,0.21544 -0.45354,0.36284 -0.24945,0.1474 -0.54425,0.20409 -0.28347,0.0567 -0.57827,0.0567 z m 0.36283,-0.82772 q 0.19276,0 0.38552,-0.0227 0.20409,-0.034 0.38551,-0.11338 0.18142,-0.0794 0.32882,-0.2041 0.15874,-0.13606 0.24945,-0.30614 0.10204,-0.17008 0.13606,-0.36284 0.0454,-0.20409 0.0454,-0.39685 v -0.51023 h -1.2359 q -0.19276,0 -0.38552,0.0113 -0.18141,0.0113 -0.37417,0.0567 -0.19276,0.034 -0.37417,0.10204 -0.18142,0.068 -0.34016,0.18142 -0.1474,0.11339 -0.23811,0.28347 -0.0907,0.17008 -0.0907,0.36283 0,0.17008 0.068,0.32882 0.068,0.1474 0.19276,0.26079 0.12472,0.10205 0.27212,0.17008 0.15874,0.0567 0.31748,0.10205 0.17008,0.034 0.32882,0.0453 0.17008,0.0113 0.32882,0.0113 z m 11.25924,3.17481 v -8.33387 h 0.94111 v 1.14519 q 0.10205,-0.27212 0.28346,-0.51023 0.19276,-0.24945 0.44221,-0.41953 0.24945,-0.17008 0.54425,-0.23811 0.30614,-0.068 0.61229,-0.068 0.30614,0 0.60094,0.0794 0.30614,0.068 0.55559,0.23811 0.24945,0.17008 0.43087,0.41953 0.19276,0.24945 0.2948,0.53291 0.11339,0.28347 0.14741,0.58961 0.0454,0.30614 0.0454,0.61228 v 1.13386 q 0,0.30614 -0.0454,0.61229 -0.034,0.30614 -0.14741,0.5896 -0.10204,0.28347 -0.2948,0.53292 -0.18142,0.24945 -0.43087,0.41953 -0.24945,0.17008 -0.55559,0.23811 -0.2948,0.0794 -0.60094,0.0794 -0.30615,0 -0.61229,-0.068 -0.2948,-0.068 -0.54425,-0.23812 -0.24945,-0.17007 -0.44221,-0.40818 -0.18141,-0.24945 -0.28346,-0.52158 v 3.583 z m 2.44914,-3.18615 q 0.21544,0 0.41953,-0.034 0.21543,-0.0453 0.39685,-0.1474 0.18142,-0.11338 0.31748,-0.27212 0.1474,-0.15874 0.22677,-0.3515 0.0907,-0.19276 0.11339,-0.39685 0.034,-0.21543 0.034,-0.43087 v -1.13386 q 0,-0.21543 -0.034,-0.41953 -0.0227,-0.21543 -0.11339,-0.40819 -0.0794,-0.19275 -0.22677,-0.35149 -0.13606,-0.15874 -0.31748,-0.26079 -0.18142,-0.11339 -0.39685,-0.1474 -0.20409,-0.0454 -0.41953,-0.0454 -0.21543,0 -0.43086,0.0454 -0.2041,0.034 -0.38552,0.1474 -0.18141,0.10205 -0.32882,0.26079 -0.13606,0.15874 -0.22677,0.35149 -0.0794,0.19276 -0.11338,0.40819 -0.0227,0.2041 -0.0227,0.41953 v 1.13386 q 0,0.21544 0.0227,0.43087 0.034,0.20409 0.11338,0.39685 0.0907,0.19276 0.22677,0.3515 0.14741,0.15874 0.32882,0.27212 0.18142,0.10205 0.38552,0.1474 0.21543,0.034 0.43086,0.034 z m 6.75781,0.83906 q -0.32882,0 -0.66898,-0.0567 -0.32882,-0.0567 -0.62362,-0.20409 -0.2948,-0.1474 -0.54425,-0.38551 -0.23811,-0.23811 -0.39686,-0.53292 -0.1474,-0.2948 -0.20409,-0.62362 -0.0567,-0.34016 -0.0567,-0.66898 v -1.13386 q 0,-0.32882 0.0567,-0.65764 0.0567,-0.34015 0.20409,-0.63496 0.15875,-0.2948 0.39686,-0.53291 0.24945,-0.23811 0.54425,-0.38551 0.2948,-0.14741 0.62362,-0.2041 0.34016,-0.0567 0.66898,-0.0567 0.32882,0 0.65764,0.0567 0.34016,0.0567 0.63496,0.2041 0.2948,0.1474 0.53291,0.38551 0.24945,0.23811 0.39685,0.53291 0.15875,0.29481 0.21544,0.63496 0.0567,0.32882 0.0567,0.65764 v 1.13386 q 0,0.32882 -0.0567,0.66898 -0.0567,0.32882 -0.21544,0.62362 -0.1474,0.29481 -0.39685,0.53292 -0.23811,0.23811 -0.53291,0.38551 -0.2948,0.1474 -0.63496,0.20409 -0.32882,0.0567 -0.65764,0.0567 z m 0,-0.83906 q 0.21543,0 0.41953,-0.034 0.21543,-0.0453 0.40819,-0.1474 0.19275,-0.10204 0.32882,-0.26078 0.1474,-0.15875 0.23811,-0.3515 0.0907,-0.2041 0.12472,-0.40819 0.034,-0.21543 0.034,-0.43087 v -1.13386 q 0,-0.21543 -0.034,-0.41953 -0.034,-0.21543 -0.12472,-0.40819 -0.0907,-0.20409 -0.23811,-0.36283 -0.13607,-0.15874 -0.32882,-0.26079 -0.19276,-0.10205 -0.40819,-0.13606 -0.2041,-0.0454 -0.41953,-0.0454 -0.21543,0 -0.43087,0.0454 -0.20409,0.034 -0.39685,0.13606 -0.19275,0.10205 -0.34016,0.26079 -0.13606,0.15874 -0.22677,0.36283 -0.0907,0.19276 -0.12472,0.40819 -0.034,0.2041 -0.034,0.41953 v 1.13386 q 0,0.21544 0.034,0.43087 0.034,0.20409 0.12472,0.40819 0.0907,0.19275 0.22677,0.3515 0.14741,0.15874 0.34016,0.26078 0.19276,0.10205 0.39685,0.1474 0.21544,0.034 0.43087,0.034 z m 6.38364,0.83906 q -0.30614,0 -0.61228,-0.0794 -0.29481,-0.068 -0.54426,-0.23811 -0.24945,-0.17008 -0.4422,-0.41953 -0.18142,-0.24945 -0.29481,-0.53292 -0.10204,-0.28346 -0.1474,-0.5896 -0.034,-0.30615 -0.034,-0.61229 v -1.13386 q 0,-0.30614 0.034,-0.61228 0.0454,-0.30614 0.1474,-0.58961 0.11339,-0.28346 0.29481,-0.53291 0.19275,-0.24945 0.4422,-0.41953 0.24945,-0.17008 0.54426,-0.23811 0.30614,-0.0794 0.61228,-0.0794 0.30614,0 0.60095,0.068 0.30614,0.068 0.55559,0.23811 0.24945,0.17008 0.43086,0.41953 0.19276,0.23811 0.29481,0.51023 v -3.58299 h 0.9411 v 8.33387 h -0.9411 v -1.1452 q -0.10205,0.27213 -0.29481,0.52158 -0.18141,0.23811 -0.43086,0.40818 -0.24945,0.17008 -0.55559,0.23812 -0.29481,0.068 -0.60095,0.068 z m 0.37417,-0.83906 q 0.21544,0 0.41953,-0.034 0.21544,-0.0453 0.39685,-0.1474 0.18142,-0.11338 0.31748,-0.27212 0.14741,-0.15874 0.22678,-0.3515 0.0907,-0.19276 0.11338,-0.39685 0.034,-0.21543 0.034,-0.43087 v -1.13386 q 0,-0.21543 -0.034,-0.41953 -0.0227,-0.21543 -0.11338,-0.40819 -0.0794,-0.19275 -0.22678,-0.35149 -0.13606,-0.15874 -0.31748,-0.26079 -0.18141,-0.11339 -0.39685,-0.1474 -0.20409,-0.0454 -0.41953,-0.0454 -0.21543,0 -0.43086,0.0454 -0.2041,0.034 -0.38552,0.1474 -0.18141,0.10205 -0.32881,0.26079 -0.13607,0.15874 -0.22678,0.35149 -0.0794,0.19276 -0.11338,0.40819 -0.0227,0.2041 -0.0227,0.41953 v 1.13386 q 0,0.21544 0.0227,0.43087 0.034,0.20409 0.11338,0.39685 0.0907,0.19276 0.22678,0.3515 0.1474,0.15874 0.32881,0.27212 0.18142,0.10205 0.38552,0.1474 0.21543,0.034 0.43086,0.034 z m 6.429,0.83906 q -0.24945,0 -0.4989,-0.034 -0.24945,-0.0227 -0.48756,-0.10205 -0.23811,-0.0907 -0.45354,-0.22677 -0.2041,-0.13606 -0.3515,-0.34016 -0.1474,-0.20409 -0.21543,-0.4422 -0.068,-0.24945 -0.068,-0.4989 0,-0.31748 0.10204,-0.62362 0.10205,-0.30615 0.30615,-0.53292 0.21543,-0.22677 0.49889,-0.37417 0.28347,-0.15874 0.57827,-0.23811 0.30614,-0.0907 0.61229,-0.12473 0.31748,-0.034 0.63496,-0.034 h 1.23591 v -0.45355 q 0,-0.18141 -0.0454,-0.36283 -0.0453,-0.18142 -0.1474,-0.32882 -0.10205,-0.1474 -0.26079,-0.24945 -0.1474,-0.11339 -0.31748,-0.17008 -0.17008,-0.068 -0.3515,-0.0907 -0.18141,-0.0227 -0.36283,-0.0227 -0.15874,0 -0.32882,0.0113 -0.15874,0.0113 -0.31748,0.0567 -0.1474,0.034 -0.30614,0.10204 -0.14741,0.0567 -0.27213,0.17008 -0.11339,0.10205 -0.19276,0.24945 -0.068,0.1474 -0.068,0.30614 v 0.0113 h -0.92976 v -0.0227 q 0,-0.27213 0.10204,-0.53292 0.10205,-0.27212 0.28347,-0.47622 0.18142,-0.20409 0.41953,-0.34016 0.24945,-0.1474 0.51023,-0.22677 0.27213,-0.0794 0.54426,-0.10205 0.27212,-0.034 0.55559,-0.034 0.2948,0 0.58961,0.0454 0.30614,0.034 0.57826,0.1474 0.28347,0.10205 0.53292,0.28347 0.24945,0.18142 0.40819,0.43087 0.17008,0.24944 0.23811,0.55559 0.068,0.2948 0.068,0.5896 v 3.9345 h -0.92976 v -1.03181 q -0.11339,0.27212 -0.31749,0.49889 -0.19275,0.21544 -0.45354,0.36284 -0.24945,0.1474 -0.54425,0.20409 -0.28347,0.0567 -0.57827,0.0567 z m 0.36283,-0.82772 q 0.19276,0 0.38552,-0.0227 0.20409,-0.034 0.38551,-0.11338 0.18142,-0.0794 0.32882,-0.2041 0.15874,-0.13606 0.24945,-0.30614 0.10205,-0.17008 0.13606,-0.36284 0.0454,-0.20409 0.0454,-0.39685 v -0.51023 h -1.23591 q -0.19276,0 -0.38551,0.0113 -0.18142,0.0113 -0.37418,0.0567 -0.19275,0.034 -0.37417,0.10204 -0.18142,0.068 -0.34016,0.18142 -0.1474,0.11339 -0.23811,0.28347 -0.0907,0.17008 -0.0907,0.36283 0,0.17008 0.068,0.32882 0.068,0.1474 0.19276,0.26079 0.12472,0.10205 0.27213,0.17008 0.15874,0.0567 0.31748,0.10205 0.17007,0.034 0.32882,0.0453 0.17007,0.0113 0.32881,0.0113 z m 9.26364,0.73701 h -1.51937 q -0.26079,0 -0.52158,-0.0454 -0.24944,-0.0453 -0.48756,-0.15874 -0.22677,-0.11338 -0.40818,-0.2948 -0.18142,-0.18142 -0.29481,-0.40819 -0.11338,-0.23811 -0.15874,-0.48756 -0.0453,-0.26079 -0.0453,-0.52158 v -3.15213 h -1.76883 v -0.82771 h 1.76883 v -2.4378 h 0.9411 v 2.4378 h 2.49449 v 0.82771 h -2.49449 v 3.15213 q 0,0.21544 0.0453,0.41953 0.0567,0.2041 0.18142,0.36284 0.13607,0.15874 0.34016,0.22677 0.2041,0.068 0.40819,0.068 h 1.51937 z m 1.9956,0 v -5.89607 h 0.9411 v 1.13386 q 0.10205,-0.27213 0.28347,-0.51024 0.18141,-0.23811 0.41952,-0.40819 0.24945,-0.17008 0.53292,-0.23811 0.2948,-0.068 0.60094,-0.068 0.29481,0 0.58961,0.0794 0.30614,0.068 0.55559,0.24945 0.24945,0.17008 0.41953,0.41953 0.18142,0.24944 0.28347,0.53291 0.10204,0.28346 0.13606,0.58961 0.0453,0.2948 0.0453,0.60094 v 3.51497 h -0.9411 v -3.51497 q 0,-0.20409 -0.034,-0.40819 -0.0227,-0.21543 -0.10204,-0.40819 -0.0794,-0.19275 -0.21544,-0.35149 -0.13606,-0.17008 -0.31748,-0.27213 -0.17008,-0.11339 -0.38551,-0.1474 -0.20409,-0.0454 -0.40819,-0.0454 -0.20409,0 -0.41953,0.0454 -0.20409,0.034 -0.38551,0.1474 -0.17008,0.10205 -0.30614,0.27213 -0.13607,0.15874 -0.21544,0.35149 -0.0794,0.19276 -0.11338,0.40819 -0.0227,0.2041 -0.0227,0.40819 v 3.51497 z m 9.20694,0.0907 q -0.32882,0 -0.66897,-0.0567 -0.32882,-0.0567 -0.62363,-0.20409 -0.2948,-0.1474 -0.54425,-0.38551 -0.23811,-0.23811 -0.39685,-0.53292 -0.1474,-0.2948 -0.2041,-0.62362 -0.0567,-0.34016 -0.0567,-0.66898 v -1.13386 q 0,-0.32882 0.0567,-0.65764 0.0567,-0.34015 0.2041,-0.63496 0.15874,-0.2948 0.39685,-0.53291 0.24945,-0.23811 0.54425,-0.38551 0.29481,-0.14741 0.62363,-0.2041 0.34015,-0.0567 0.66897,-0.0567 0.32882,0 0.65764,0.0567 0.34016,0.0567 0.63496,0.2041 0.29481,0.1474 0.53292,0.38551 0.24945,0.23811 0.39685,0.53291 0.15874,0.29481 0.21543,0.63496 0.0567,0.32882 0.0567,0.65764 v 1.13386 q 0,0.32882 -0.0567,0.66898 -0.0567,0.32882 -0.21543,0.62362 -0.1474,0.29481 -0.39685,0.53292 -0.23811,0.23811 -0.53292,0.38551 -0.2948,0.1474 -0.63496,0.20409 -0.32882,0.0567 -0.65764,0.0567 z m 0,-0.83906 q 0.21544,0 0.41953,-0.034 0.21543,-0.0453 0.40819,-0.1474 0.19276,-0.10204 0.32882,-0.26078 0.1474,-0.15875 0.23811,-0.3515 0.0907,-0.2041 0.12472,-0.40819 0.034,-0.21543 0.034,-0.43087 v -1.13386 q 0,-0.21543 -0.034,-0.41953 -0.034,-0.21543 -0.12472,-0.40819 -0.0907,-0.20409 -0.23811,-0.36283 -0.13606,-0.15874 -0.32882,-0.26079 -0.19276,-0.10205 -0.40819,-0.13606 -0.20409,-0.0454 -0.41953,-0.0454 -0.21543,0 -0.43086,0.0454 -0.2041,0.034 -0.39686,0.13606 -0.19275,0.10205 -0.34015,0.26079 -0.13607,0.15874 -0.22678,0.36283 -0.0907,0.19276 -0.12472,0.40819 -0.034,0.2041 -0.034,0.41953 v 1.13386 q 0,0.21544 0.034,0.43087 0.034,0.20409 0.12472,0.40819 0.0907,0.19275 0.22678,0.3515 0.1474,0.15874 0.34015,0.26078 0.19276,0.10205 0.39686,0.1474 0.21543,0.034 0.43086,0.034 z m 6.79183,0.83906 q -0.27213,0 -0.54426,-0.0227 -0.26079,-0.0227 -0.52157,-0.0907 -0.26079,-0.068 -0.51024,-0.18142 -0.23811,-0.12472 -0.43087,-0.30614 -0.19275,-0.19275 -0.30614,-0.4422 -0.10205,-0.26079 -0.10205,-0.52158 v -0.0567 h 0.92977 v 0.0113 q 0,0.15874 0.0794,0.2948 0.0907,0.13606 0.21543,0.22677 0.12473,0.0794 0.27213,0.13606 0.1474,0.0454 0.2948,0.0794 0.15874,0.0227 0.30614,0.034 0.15875,0.0113 0.31749,0.0113 0.15874,0 0.30614,-0.0113 0.15874,-0.0113 0.30614,-0.034 0.15874,-0.034 0.30614,-0.0907 0.1474,-0.0567 0.27213,-0.14741 0.13606,-0.0907 0.21543,-0.22677 0.0794,-0.1474 0.0794,-0.2948 0,-0.18142 -0.11338,-0.34016 -0.10205,-0.15874 -0.26079,-0.24945 -0.15874,-0.0907 -0.34016,-0.1474 -0.17008,-0.0567 -0.3515,-0.0907 -0.17008,-0.0453 -0.35149,-0.0907 -0.17008,-0.0453 -0.3515,-0.0907 -0.17008,-0.0567 -0.3515,-0.11338 -0.17008,-0.0567 -0.34015,-0.12473 -0.17008,-0.068 -0.32882,-0.1474 -0.15874,-0.0907 -0.30615,-0.19276 -0.1474,-0.11338 -0.28346,-0.23811 -0.12473,-0.13606 -0.21543,-0.2948 -0.0907,-0.15874 -0.14741,-0.32882 -0.0453,-0.18142 -0.0453,-0.36283 0,-0.26079 0.0907,-0.51024 0.10205,-0.26079 0.28346,-0.45355 0.18142,-0.20409 0.40819,-0.32881 0.23811,-0.13607 0.48756,-0.2041 0.26079,-0.0794 0.52158,-0.10205 0.27212,-0.034 0.53291,-0.034 0.26079,0 0.52158,0.0227 0.26079,0.0227 0.51024,0.10205 0.26078,0.068 0.48756,0.19276 0.23811,0.11338 0.41952,0.30614 0.18142,0.19276 0.28347,0.44221 0.10205,0.23811 0.10205,0.49889 v 0.0567 h -0.92977 v -0.0227 q 0,-0.1474 -0.0794,-0.27213 -0.068,-0.13606 -0.19276,-0.22677 -0.11338,-0.0907 -0.26078,-0.13606 -0.13607,-0.0567 -0.28347,-0.0794 -0.13606,-0.034 -0.28346,-0.0454 -0.14741,-0.0113 -0.29481,-0.0113 -0.1474,0 -0.2948,0.0113 -0.1474,0.0113 -0.2948,0.0454 -0.14741,0.0227 -0.29481,0.0794 -0.13606,0.0567 -0.24945,0.15874 -0.11338,0.0907 -0.19275,0.22677 -0.068,0.13606 -0.068,0.28347 0,0.18141 0.10205,0.34015 0.11339,0.15874 0.26079,0.24945 0.15874,0.0907 0.32882,0.1474 0.18142,0.0454 0.36283,0.0907 0.18142,0.0454 0.3515,0.0907 0.18142,0.0454 0.3515,0.10205 0.18142,0.0453 0.35149,0.10205 0.17008,0.0567 0.34016,0.12472 0.17008,0.068 0.32882,0.15874 0.17008,0.0794 0.31748,0.18142 0.1474,0.10205 0.27213,0.23811 0.13606,0.13606 0.22677,0.2948 0.0907,0.14741 0.13606,0.32882 0.0567,0.18142 0.0567,0.36284 0,0.27213 -0.11339,0.53291 -0.10205,0.24945 -0.2948,0.45355 -0.18142,0.19275 -0.43087,0.31748 -0.23811,0.12472 -0.4989,0.20409 -0.26079,0.068 -0.53291,0.0907 -0.27213,0.034 -0.54425,0.034 z m -0.13607,-6.65576 -0.54425,-0.47622 1.49669,-1.6441 0.66898,0.58961 z m 6.91655,6.65576 q -0.32882,0 -0.65764,-0.0567 -0.32882,-0.0567 -0.62362,-0.20409 -0.29481,-0.15874 -0.53292,-0.39685 -0.23811,-0.23811 -0.38551,-0.53292 -0.1474,-0.2948 -0.20409,-0.62362 -0.0567,-0.32882 -0.0567,-0.65764 v -1.13386 q 0,-0.32882 0.0567,-0.65764 0.0567,-0.32882 0.20409,-0.62362 0.1474,-0.2948 0.38551,-0.53291 0.23811,-0.23811 0.53292,-0.38552 0.2948,-0.15874 0.62362,-0.21543 0.32882,-0.0567 0.65764,-0.0567 0.30614,0 0.60095,0.0454 0.30614,0.034 0.5896,0.15874 0.28347,0.11339 0.52158,0.30614 0.24945,0.18142 0.40819,0.44221 0.17008,0.24945 0.24945,0.54425 0.0907,0.29481 0.0907,0.60095 v 0.034 h -0.94111 v -0.0227 q 0,-0.28347 -0.12472,-0.54426 -0.11339,-0.26078 -0.34016,-0.43086 -0.21543,-0.17008 -0.4989,-0.22677 -0.27213,-0.068 -0.55559,-0.068 -0.20409,0 -0.41953,0.0454 -0.21543,0.034 -0.39685,0.13606 -0.18142,0.10205 -0.32882,0.27213 -0.13606,0.15874 -0.22677,0.35149 -0.0907,0.19276 -0.12473,0.40819 -0.0227,0.2041 -0.0227,0.41953 v 1.13386 q 0,0.21544 0.0227,0.43087 0.034,0.20409 0.12473,0.39685 0.0907,0.19276 0.22677,0.36284 0.1474,0.15874 0.32882,0.26078 0.18142,0.10205 0.39685,0.1474 0.21544,0.034 0.41953,0.034 0.28346,0 0.55559,-0.0567 0.28347,-0.068 0.4989,-0.23811 0.22677,-0.17008 0.34016,-0.43087 0.12472,-0.26079 0.12472,-0.54425 v -0.0227 h 0.94111 v 0.034 q 0,0.30614 -0.0907,0.60094 -0.0794,0.29481 -0.24945,0.55559 -0.15874,0.24945 -0.40819,0.44221 -0.23811,0.18142 -0.52158,0.30614 -0.28346,0.11339 -0.5896,0.1474 -0.29481,0.0454 -0.60095,0.0454 z m -0.11339,-6.65576 -0.54425,-0.47622 1.4967,-1.6441 0.66897,0.58961 z m 5.35184,8.39056 -0.40819,-0.74834 q 0.45354,-0.22678 0.8504,-0.53292 0.39685,-0.30614 0.71433,-0.68031 0.31748,-0.38552 0.55559,-0.82772 0.24945,-0.44221 0.39685,-0.91843 0.1474,-0.47622 0.20409,-0.97512 0.068,-0.4989 0.068,-0.9978 0,-0.49889 -0.068,-0.99779 -0.0567,-0.4989 -0.20409,-0.97512 -0.1474,-0.47622 -0.39685,-0.91843 -0.23811,-0.4422 -0.55559,-0.81638 -0.31748,-0.38551 -0.71433,-0.69165 -0.39686,-0.30614 -0.8504,-0.53292 l 0.40819,-0.74834 q 0.53291,0.24944 0.9978,0.60094 0.46488,0.3515 0.85039,0.7937 0.38551,0.43087 0.66898,0.94111 0.2948,0.4989 0.46488,1.05449 0.18142,0.55559 0.26079,1.13386 0.0794,0.57827 0.0794,1.15653 0,0.57827 -0.0794,1.15654 -0.0794,0.57827 -0.26079,1.13386 -0.17008,0.55559 -0.46488,1.06583 -0.28347,0.4989 -0.66898,0.92977 -0.38551,0.4422 -0.85039,0.7937 -0.46489,0.35149 -0.9978,0.60094 z"
       id="path2" />
    <circle
       id="path3"
       style="fill:#ff0000;stroke:#000000"
       cx="246.15501"
       cy="393.94757"
       r="0.0012592738" />
    <path
       style="fill:#ff0000"
       id="path4"
       d="m 239.14703,392.53196 c -0.25637,0.0103 -0.5115,-0.003 -0.76684,-0.0241 -0.16704,-0.019 -0.32697,-0.0674 -0.48628,-0.11836 -0.12841,-0.0335 -0.24709,-0.0948 -0.36879,-0.14628 -0.11732,-0.055 -0.2407,-0.095 -0.35981,-0.14525 -0.0926,-0.0372 -0.19536,-0.0438 -0.27785,-0.10296 0.20623,0.1186 0.41243,0.23724 0.61868,0.35579 0.0156,0.009 -0.0325,-0.0179 -0.0431,-0.0324 -0.0227,-0.0311 -0.0364,-0.073 -0.0511,-0.10797 -0.0599,-0.12128 -0.12248,-0.24066 -0.16884,-0.36799 -0.0567,-0.15906 -0.0902,-0.32537 -0.1215,-0.49098 -0.0274,-0.179 -0.0545,-0.35799 -0.0868,-0.53617 -0.0352,-0.18615 -0.0442,-0.37538 -0.0503,-0.56426 -0.005,-0.23973 -0.005,-0.47954 -0.005,-0.71931 0.001,-0.26426 0.0464,-0.52313 0.10892,-0.77887 0.0635,-0.22649 0.1028,-0.4581 0.14195,-0.68966 0.0326,-0.20233 0.0418,-0.40746 0.0474,-0.61203 0.008,-0.18238 0.002,-0.36379 -0.017,-0.54519 -0.024,-0.13115 -0.0457,-0.26279 -0.0703,-0.39382 -0.0218,-0.10328 -0.0453,-0.2059 -0.0714,-0.30817 -0.0221,-0.0775 -0.0249,-0.14177 0.0547,-0.17731 0.10765,-0.0234 0.21601,-0.0438 0.32574,-0.0568 0.11176,-0.0285 0.22494,-0.0483 0.33981,-0.0579 0.11157,-0.007 0.22343,-0.007 0.33516,-0.007 0.0979,0.0106 0.19051,-0.0194 0.28596,-0.0344 0.0989,-0.0131 0.19885,-0.0135 0.29842,-0.0146 0.10766,-7.8e-4 0.21531,-3.9e-4 0.32297,-2e-4 0.0906,-8.3e-4 0.17796,-0.0294 0.26813,-0.0399 0,0 -0.61726,-0.43557 -0.61726,-0.43557 v 0 c -0.0868,0.0139 -0.17265,0.0379 -0.26145,0.0318 -0.10777,-3e-5 -0.21556,-1.7e-4 -0.32332,0.002 -0.10237,0.002 -0.20519,0.005 -0.30619,0.0233 -0.0922,0.0172 -0.18327,0.0323 -0.2777,0.0249 -0.11332,8e-4 -0.22695,9.9e-4 -0.3398,0.0125 -0.11455,0.0141 -0.22671,0.0395 -0.3401,0.0604 -0.11631,0.017 -0.23798,0.0318 -0.34527,0.0815 -0.0883,0.0648 -0.12942,0.15096 -0.10032,0.2608 0.0236,0.10261 0.0532,0.20329 0.0727,0.3069 0.0321,0.12739 0.0416,0.2602 0.0754,0.38758 0.0213,0.17867 0.0336,0.3568 0.0233,0.53694 -0.004,0.20148 -0.0109,0.40353 -0.042,0.60299 -0.0377,0.23023 -0.0738,0.46101 -0.1357,0.68635 -0.0656,0.26059 -0.11578,0.52429 -0.11895,0.79408 -4e-5,0.24009 -0.001,0.4802 0.002,0.72027 0.004,0.1919 0.0105,0.38429 0.044,0.57376 0.0317,0.17823 0.0631,0.35655 0.0865,0.53609 0.0289,0.16857 0.0631,0.33773 0.11548,0.50058 0.0414,0.13025 0.0979,0.25334 0.16342,0.37306 0.18578,0.3925 -0.0714,0.13009 0.75151,0.57249 0.093,0.0346 0.1899,0.0567 0.28155,0.0954 0.12092,0.045 0.23968,0.0954 0.35806,0.14675 0.12155,0.0535 0.2443,0.10517 0.37289,0.13961 0.16112,0.0496 0.32526,0.0893 0.49384,0.10265 0.25722,0.0183 0.51435,0.0231 0.77223,0.021 z" />
    <path
       style="fill:#ff0000"
       id="path5"
       d="m 237.33099,389.12442 c 0.21345,-0.0415 0.43185,-0.0477 0.64601,-0.0825 0.12039,-0.0242 0.24185,-0.0401 0.36441,-0.0467 0.0986,-0.004 0.1973,-0.003 0.29595,-0.003 0.0945,7e-5 0.1891,4.7e-4 0.28365,7.2e-4 0.0813,-8e-5 0.16254,1.9e-4 0.24382,1.4e-4 0.0897,-1.2e-4 0.17944,-2.1e-4 0.26917,-2.6e-4 0,0 -0.61087,-0.44382 -0.61087,-0.44382 v 0 c -0.09,-5e-5 -0.17992,-1.3e-4 -0.26988,-2.6e-4 -0.0812,-7e-5 -0.16238,1.8e-4 -0.24357,-8e-5 -0.0944,0 -0.18875,-4e-5 -0.28312,-1.6e-4 -0.0997,2.6e-4 -0.19943,4e-4 -0.29888,0.008 -0.12274,0.0107 -0.24395,0.0314 -0.36513,0.0534 -0.21527,0.0296 -0.43204,0.0483 -0.64678,0.0823 z" />
  </g>
</svg>
